<svg width="14" height="14" viewBox="0 0 14 14" fill="none" xmlns="http://www.w3.org/2000/svg"><path d="M13 4.5V1.719L7.719 7 13 12.281V9.5c.02-.313.188-.48.5-.5.313.02.48.188.5.5v4c-.02.313-.188.48-.5.5h-4c-.313-.02-.48-.188-.5-.5.02-.313.188-.48.5-.5h2.781L7 7.719 1.719 13H4.5c.313.02.48.188.5.5-.02.313-.188.48-.5.5h-4c-.313-.02-.48-.188-.5-.5v-4c.02-.313.188-.48.5-.5.313.02.48.188.5.5v2.781L6.281 7 1 1.719V4.5c-.02.313-.188.48-.5.5-.313-.02-.48-.188-.5-.5v-4C.02.187.188.02.5 0h4c.313.02.48.188.5.5-.02.313-.188.48-.5.5H1.719L7 6.281 12.281 1H9.5C9.187.98 9.02.812 9 .5c.02-.313.188-.48.5-.5h4c.313.02.48.188.5.5v4c-.02.313-.188.48-.5.5-.313-.02-.48-.188-.5-.5z" fill="#6E777F"/></svg>