<svg width="16" height="16" viewBox="0 0 16 16" fill="none" xmlns="http://www.w3.org/2000/svg"><path d="M14.5 10c-.313.02-.48.188-.5.5v1c-.02.708-.26 1.302-.719 1.781-.479.459-1.073.698-1.781.719h-7c-.708-.02-1.302-.26-1.781-.719C2.26 12.802 2.02 12.208 2 11.5v-1c-.02-.313-.188-.48-.5-.5-.313.02-.48.188-.5.5v1c.02.98.354 1.792 1 2.438V15.5c.02.313.188.48.5.5.313-.02.48-.188.5-.5v-.844c.458.23.958.344 1.5.344h7c.542 0 1.042-.115 1.5-.344v.844c.02.313.188.48.5.5.313-.02.48-.188.5-.5v-1.563c.646-.645.98-1.458 1-2.437v-1c-.02-.313-.188-.48-.5-.5zm1-2H2V1.906c0-.25.094-.458.281-.625A.802.802 0 012.906 1a.9.9 0 01.656.281l.782.782A2.38 2.38 0 004 3.5c.063.52.281.98.656 1.375l.407.406c-.105.209-.073.396.093.563A.478.478 0 005.5 6c.125 0 .24-.052.344-.156l3-3c.208-.23.208-.459 0-.688-.167-.166-.354-.198-.563-.094l-.406-.406C7.395 1.22 6.865 1 6.281 1c-.437 0-.843.115-1.218.344L4.28.562A1.939 1.939 0 002.906 0c-.541.02-.99.208-1.344.563-.354.354-.541.802-.562 1.343V8H.5c-.313.02-.48.188-.5.5.02.313.188.48.5.5h15c.313-.02.48-.188.5-.5-.02-.313-.188-.48-.5-.5zM5.375 2.375c.25-.25.552-.375.906-.375a1.2 1.2 0 01.875.375l.375.375L5.75 4.531l-.375-.375A1.235 1.235 0 015 3.25a1.2 1.2 0 01.375-.875z" fill="#6E777F"/></svg>