<svg width="20" height="16" viewBox="0 0 20 16" fill="none" xmlns="http://www.w3.org/2000/svg"><path d="M10 10c.917-.02 1.677-.333 2.281-.938.604-.624.917-1.395.938-2.312-.021-.917-.334-1.688-.938-2.313-.625-.604-1.385-.916-2.281-.937-.917.02-1.677.333-2.281.938-.604.625-.917 1.395-.938 2.312 0 .917.302 1.688.907 2.313.625.604 1.395.916 2.312.937zm0-5.5c.625.02 1.156.24 1.594.656.416.417.635.948.656 1.594-.02.646-.24 1.177-.656 1.594A2.346 2.346 0 0110 9c-.646-.02-1.177-.24-1.594-.656-.416-.417-.635-.948-.656-1.594.02-.646.24-1.177.656-1.594.417-.416.948-.635 1.594-.656zm1.563 6.5H8.437c-1.25.02-2.291.427-3.124 1.219-.834.791-1.271 1.77-1.313 2.937 0 .25.083.448.25.594.167.167.375.25.625.25h10.25c.25 0 .458-.083.625-.25.167-.146.25-.344.25-.594-.042-1.166-.48-2.146-1.313-2.937-.833-.792-1.874-1.198-3.124-1.219zM5 15a3.173 3.173 0 011.063-2.125c.645-.563 1.427-.854 2.343-.875h3.156c.938.02 1.73.313 2.376.875.624.563.968 1.27 1.03 2.125H5zM16 5c.708-.02 1.302-.26 1.781-.719.459-.479.698-1.073.719-1.781-.02-.708-.26-1.302-.719-1.781C17.302.26 16.708.02 16 0c-.708.02-1.302.26-1.781.719-.459.479-.698 1.073-.719 1.781.02.708.26 1.302.719 1.781.479.459 1.073.698 1.781.719zm0-4c.417.02.77.167 1.063.438.27.291.416.645.437 1.062a1.63 1.63 0 01-.438 1.063A1.63 1.63 0 0116 4a1.63 1.63 0 01-1.063-.438A1.63 1.63 0 0114.5 2.5c.02-.417.167-.77.438-1.063A1.63 1.63 0 0116 1zM4 5c.708-.02 1.302-.26 1.781-.719.459-.479.698-1.073.719-1.781-.02-.708-.26-1.302-.719-1.781C5.302.26 4.708.02 4 0c-.708.02-1.302.26-1.781.719C1.76 1.198 1.52 1.792 1.5 2.5c.02.708.26 1.302.719 1.781C2.698 4.74 3.292 4.98 4 5zm0-4c.417.02.77.167 1.063.438.27.291.416.645.437 1.062a1.63 1.63 0 01-.438 1.063A1.63 1.63 0 014 4a1.63 1.63 0 01-1.063-.438A1.63 1.63 0 012.5 2.5c.02-.417.167-.77.438-1.063A1.63 1.63 0 014 1zm13.531 5H15.5c-.354 0-.688.073-1 .219-.27.166-.354.396-.25.687.146.25.365.323.656.219.188-.083.386-.125.594-.125h2.031c.396.02.74.177 1.032.469.27.291.416.666.437 1.125V9c.02.313.188.48.5.5.313-.02.48-.188.5-.5v-.406c-.02-.73-.26-1.344-.719-1.844-.458-.48-1.041-.73-1.75-.75zM5.094 7.125c.291.104.51.031.656-.219.104-.291.031-.52-.219-.687A2.548 2.548 0 004.5 6H2.469c-.709.02-1.292.27-1.75.75C.26 7.25.02 7.865 0 8.594V9c.02.313.188.48.5.5.313-.02.48-.188.5-.5v-.406c.02-.459.167-.834.438-1.125.27-.292.614-.448 1.03-.469H4.5c.208 0 .406.042.594.125z" fill="#6E777F"/></svg>