<svg width="287" height="280" viewBox="0 0 287 280" fill="none" xmlns="http://www.w3.org/2000/svg"><path d="M32.05 4.509a2.258 2.258 0 01-2.26-2.255A2.258 2.258 0 0132.05 0a2.259 2.259 0 012.261 2.254 2.258 2.258 0 01-2.26 2.255zm0 39.355a2.258 2.258 0 01-2.26-2.254 2.258 2.258 0 012.26-2.255 2.259 2.259 0 012.261 2.255 2.258 2.258 0 01-2.26 2.254zm0 39.356a2.258 2.258 0 01-2.26-2.255 2.258 2.258 0 012.26-2.254 2.259 2.259 0 012.261 2.254 2.258 2.258 0 01-2.26 2.255zm0 39.355a2.258 2.258 0 01-2.26-2.254 2.259 2.259 0 012.26-2.255 2.259 2.259 0 012.261 2.255 2.258 2.258 0 01-2.26 2.254zm0 39.359a2.258 2.258 0 01-2.26-2.254 2.259 2.259 0 012.26-2.255 2.259 2.259 0 012.261 2.255 2.258 2.258 0 01-2.26 2.254zm0 39.355a2.258 2.258 0 01-2.26-2.254 2.259 2.259 0 012.26-2.255 2.259 2.259 0 012.261 2.255 2.258 2.258 0 01-2.26 2.254zm0 39.356a2.259 2.259 0 01-2.26-2.255 2.258 2.258 0 012.26-2.254 2.259 2.259 0 012.261 2.254 2.259 2.259 0 01-2.26 2.255zm0 39.355a2.258 2.258 0 01-2.26-2.254 2.259 2.259 0 012.26-2.255 2.259 2.259 0 012.261 2.255 2.258 2.258 0 01-2.26 2.254zM2.26 4.509A2.258 2.258 0 010 2.254 2.258 2.258 0 012.26 0c1.25 0 2.262 1.01 2.262 2.254a2.258 2.258 0 01-2.26 2.255zm0 39.355A2.258 2.258 0 010 41.61a2.258 2.258 0 012.26-2.255 2.258 2.258 0 012.261 2.255 2.258 2.258 0 01-2.26 2.254zm0 39.356c1.25 0 2.261-1.01 2.261-2.255a2.258 2.258 0 00-2.26-2.254A2.258 2.258 0 000 80.965a2.257 2.257 0 002.26 2.255zm0 39.355A2.258 2.258 0 010 120.321a2.259 2.259 0 012.26-2.255 2.258 2.258 0 012.261 2.255 2.258 2.258 0 01-2.26 2.254zm0 39.359a2.257 2.257 0 002.261-2.254 2.258 2.258 0 00-2.26-2.255A2.258 2.258 0 000 159.68a2.257 2.257 0 002.26 2.254zm0 39.355A2.258 2.258 0 010 199.035a2.259 2.259 0 012.26-2.255 2.258 2.258 0 012.261 2.255 2.258 2.258 0 01-2.26 2.254zm0 39.356A2.259 2.259 0 010 238.39a2.258 2.258 0 012.26-2.254 2.258 2.258 0 012.261 2.254 2.259 2.259 0 01-2.26 2.255zm0 39.355a2.257 2.257 0 002.261-2.254 2.258 2.258 0 00-2.26-2.255A2.258 2.258 0 000 277.746 2.257 2.257 0 002.26 280zM95.223 4.509a2.258 2.258 0 01-2.26-2.255A2.258 2.258 0 0195.222 0c1.248 0 2.26 1.01 2.26 2.254a2.258 2.258 0 01-2.26 2.255zm0 39.355a2.258 2.258 0 01-2.26-2.254 2.258 2.258 0 012.26-2.255c1.248 0 2.26 1.01 2.26 2.255a2.258 2.258 0 01-2.26 2.254zm0 39.356a2.258 2.258 0 01-2.26-2.255 2.258 2.258 0 012.26-2.254c1.248 0 2.26 1.01 2.26 2.254a2.258 2.258 0 01-2.26 2.255zm0 39.355a2.258 2.258 0 01-2.26-2.254 2.259 2.259 0 012.26-2.255c1.248 0 2.26 1.01 2.26 2.255a2.258 2.258 0 01-2.26 2.254zm0 39.359a2.258 2.258 0 01-2.26-2.254 2.259 2.259 0 012.26-2.255c1.248 0 2.26 1.01 2.26 2.255a2.258 2.258 0 01-2.26 2.254zm0 39.355a2.258 2.258 0 01-2.26-2.254 2.259 2.259 0 012.26-2.255c1.248 0 2.26 1.01 2.26 2.255a2.258 2.258 0 01-2.26 2.254zm0 39.356a2.259 2.259 0 01-2.26-2.255 2.258 2.258 0 012.26-2.254c1.248 0 2.26 1.01 2.26 2.254a2.258 2.258 0 01-2.26 2.255zm0 39.355a2.258 2.258 0 01-2.26-2.254 2.259 2.259 0 012.26-2.255c1.248 0 2.26 1.01 2.26 2.255a2.258 2.258 0 01-2.26 2.254zM65.433 4.509a2.258 2.258 0 01-2.26-2.255A2.258 2.258 0 0165.432 0c1.248 0 2.26 1.01 2.26 2.254a2.258 2.258 0 01-2.26 2.255zm0 39.355a2.258 2.258 0 01-2.26-2.254 2.258 2.258 0 012.26-2.255c1.248 0 2.26 1.01 2.26 2.255a2.258 2.258 0 01-2.26 2.254zm0 39.356c1.248 0 2.26-1.01 2.26-2.255a2.258 2.258 0 00-2.26-2.254 2.257 2.257 0 00-2.26 2.254 2.257 2.257 0 002.26 2.255zm0 39.355a2.258 2.258 0 01-2.26-2.254 2.259 2.259 0 012.26-2.255c1.248 0 2.26 1.01 2.26 2.255a2.258 2.258 0 01-2.26 2.254zm0 39.359a2.257 2.257 0 002.26-2.254 2.258 2.258 0 00-2.26-2.255 2.258 2.258 0 00-2.26 2.255 2.257 2.257 0 002.26 2.254zm0 39.355a2.258 2.258 0 01-2.26-2.254 2.259 2.259 0 012.26-2.255c1.248 0 2.26 1.01 2.26 2.255a2.258 2.258 0 01-2.26 2.254zm0 39.356a2.259 2.259 0 01-2.26-2.255 2.258 2.258 0 012.26-2.254c1.248 0 2.26 1.01 2.26 2.254a2.259 2.259 0 01-2.26 2.255zm0 39.355a2.257 2.257 0 002.26-2.254 2.258 2.258 0 00-2.26-2.255 2.258 2.258 0 00-2.26 2.255 2.257 2.257 0 002.26 2.254zM158.395 4.509a2.259 2.259 0 01-2.261-2.255A2.259 2.259 0 01158.395 0a2.259 2.259 0 012.261 2.254 2.259 2.259 0 01-2.261 2.255zm0 39.355a2.259 2.259 0 01-2.261-2.254 2.259 2.259 0 012.261-2.255 2.259 2.259 0 012.261 2.255 2.259 2.259 0 01-2.261 2.254zm0 39.356a2.259 2.259 0 01-2.261-2.255 2.259 2.259 0 012.261-2.254 2.259 2.259 0 012.261 2.254 2.259 2.259 0 01-2.261 2.255zm0 39.355a2.259 2.259 0 01-2.261-2.254 2.259 2.259 0 012.261-2.255 2.259 2.259 0 012.261 2.255 2.259 2.259 0 01-2.261 2.254zm0 39.359a2.259 2.259 0 01-2.261-2.254 2.259 2.259 0 012.261-2.255 2.259 2.259 0 012.261 2.255 2.259 2.259 0 01-2.261 2.254zm0 39.355a2.259 2.259 0 01-2.261-2.254 2.259 2.259 0 012.261-2.255 2.259 2.259 0 012.261 2.255 2.259 2.259 0 01-2.261 2.254zm0 39.356a2.259 2.259 0 01-2.261-2.255 2.259 2.259 0 012.261-2.254 2.259 2.259 0 012.261 2.254 2.259 2.259 0 01-2.261 2.255zm0 39.355a2.259 2.259 0 01-2.261-2.254 2.259 2.259 0 012.261-2.255 2.259 2.259 0 012.261 2.255 2.259 2.259 0 01-2.261 2.254zM128.605 4.509a2.259 2.259 0 01-2.261-2.255A2.259 2.259 0 01128.605 0a2.259 2.259 0 012.261 2.254 2.259 2.259 0 01-2.261 2.255zm0 39.355a2.259 2.259 0 01-2.261-2.254 2.259 2.259 0 012.261-2.255 2.259 2.259 0 012.261 2.255 2.259 2.259 0 01-2.261 2.254zm0 39.356a2.258 2.258 0 002.261-2.255 2.258 2.258 0 00-2.261-2.254 2.258 2.258 0 00-2.261 2.254 2.257 2.257 0 002.261 2.255zm0 39.355a2.259 2.259 0 01-2.261-2.254 2.259 2.259 0 012.261-2.255 2.259 2.259 0 012.261 2.255 2.259 2.259 0 01-2.261 2.254zm0 39.359a2.258 2.258 0 002.261-2.254 2.259 2.259 0 00-2.261-2.255 2.258 2.258 0 00-2.261 2.255 2.257 2.257 0 002.261 2.254zm0 39.355a2.259 2.259 0 01-2.261-2.254 2.259 2.259 0 012.261-2.255 2.259 2.259 0 012.261 2.255 2.259 2.259 0 01-2.261 2.254zm0 39.356a2.259 2.259 0 01-2.261-2.255 2.259 2.259 0 012.261-2.254 2.259 2.259 0 012.261 2.254 2.259 2.259 0 01-2.261 2.255zm0 39.355a2.258 2.258 0 002.261-2.254 2.259 2.259 0 00-2.261-2.255 2.258 2.258 0 00-2.261 2.255 2.257 2.257 0 002.261 2.254zM221.567 4.509a2.259 2.259 0 01-2.261-2.255A2.259 2.259 0 01221.567 0a2.259 2.259 0 012.261 2.254 2.259 2.259 0 01-2.261 2.255zm0 39.355a2.259 2.259 0 01-2.261-2.254 2.259 2.259 0 012.261-2.255 2.259 2.259 0 012.261 2.255 2.259 2.259 0 01-2.261 2.254zm0 39.356a2.259 2.259 0 01-2.261-2.255 2.259 2.259 0 012.261-2.254 2.259 2.259 0 012.261 2.254 2.259 2.259 0 01-2.261 2.255zm0 39.355a2.259 2.259 0 01-2.261-2.254 2.259 2.259 0 012.261-2.255 2.259 2.259 0 012.261 2.255 2.259 2.259 0 01-2.261 2.254zm0 39.359a2.259 2.259 0 01-2.261-2.254 2.259 2.259 0 012.261-2.255 2.259 2.259 0 012.261 2.255 2.259 2.259 0 01-2.261 2.254zm0 39.355a2.259 2.259 0 01-2.261-2.254 2.259 2.259 0 012.261-2.255 2.259 2.259 0 012.261 2.255 2.259 2.259 0 01-2.261 2.254zm0 39.356a2.259 2.259 0 01-2.261-2.255 2.259 2.259 0 012.261-2.254 2.259 2.259 0 012.261 2.254 2.259 2.259 0 01-2.261 2.255zm0 39.355a2.259 2.259 0 01-2.261-2.254 2.259 2.259 0 012.261-2.255 2.259 2.259 0 012.261 2.255 2.259 2.259 0 01-2.261 2.254zM191.777 4.509a2.259 2.259 0 01-2.261-2.255A2.259 2.259 0 01191.777 0a2.259 2.259 0 012.261 2.254 2.259 2.259 0 01-2.261 2.255zm0 39.355a2.259 2.259 0 01-2.261-2.254 2.259 2.259 0 012.261-2.255 2.259 2.259 0 012.261 2.255 2.259 2.259 0 01-2.261 2.254zm0 39.356a2.257 2.257 0 002.261-2.255 2.258 2.258 0 00-2.261-2.254 2.258 2.258 0 00-2.261 2.254 2.258 2.258 0 002.261 2.255zm0 39.355a2.259 2.259 0 01-2.261-2.254 2.259 2.259 0 012.261-2.255 2.259 2.259 0 012.261 2.255 2.259 2.259 0 01-2.261 2.254zm0 39.359a2.257 2.257 0 002.261-2.254 2.258 2.258 0 00-2.261-2.255 2.259 2.259 0 00-2.261 2.255 2.258 2.258 0 002.261 2.254zm0 39.355a2.259 2.259 0 01-2.261-2.254 2.259 2.259 0 012.261-2.255 2.259 2.259 0 012.261 2.255 2.259 2.259 0 01-2.261 2.254zm0 39.356a2.259 2.259 0 01-2.261-2.255 2.259 2.259 0 012.261-2.254 2.259 2.259 0 012.261 2.254 2.259 2.259 0 01-2.261 2.255zm0 39.355a2.257 2.257 0 002.261-2.254 2.258 2.258 0 00-2.261-2.255 2.259 2.259 0 00-2.261 2.255 2.258 2.258 0 002.261 2.254zM284.739 4.509a2.258 2.258 0 01-2.26-2.255A2.258 2.258 0 01284.739 0 2.259 2.259 0 01287 2.254a2.259 2.259 0 01-2.261 2.255zm0 39.355a2.258 2.258 0 01-2.26-2.254 2.258 2.258 0 012.26-2.255A2.259 2.259 0 01287 41.61a2.259 2.259 0 01-2.261 2.254zm0 39.356a2.258 2.258 0 01-2.26-2.255 2.258 2.258 0 012.26-2.254A2.259 2.259 0 01287 80.965a2.259 2.259 0 01-2.261 2.255zm0 39.355a2.258 2.258 0 01-2.26-2.254 2.258 2.258 0 012.26-2.255 2.259 2.259 0 012.261 2.255 2.259 2.259 0 01-2.261 2.254zm0 39.359a2.258 2.258 0 01-2.26-2.254 2.258 2.258 0 012.26-2.255A2.259 2.259 0 01287 159.68a2.259 2.259 0 01-2.261 2.254zm0 39.355a2.258 2.258 0 01-2.26-2.254 2.258 2.258 0 012.26-2.255 2.259 2.259 0 012.261 2.255 2.259 2.259 0 01-2.261 2.254zm0 39.356a2.258 2.258 0 01-2.26-2.255 2.258 2.258 0 012.26-2.254A2.259 2.259 0 01287 238.39a2.259 2.259 0 01-2.261 2.255zm0 39.355a2.258 2.258 0 01-2.26-2.254 2.258 2.258 0 012.26-2.255 2.259 2.259 0 012.261 2.255 2.259 2.259 0 01-2.261 2.254zM254.949 4.509a2.258 2.258 0 01-2.26-2.255A2.258 2.258 0 01254.949 0a2.259 2.259 0 012.261 2.254 2.259 2.259 0 01-2.261 2.255zm0 39.355a2.258 2.258 0 01-2.26-2.254 2.258 2.258 0 012.26-2.255 2.259 2.259 0 012.261 2.255 2.259 2.259 0 01-2.261 2.254zm0 39.356a2.257 2.257 0 002.261-2.255 2.258 2.258 0 00-2.261-2.254 2.257 2.257 0 00-2.26 2.254 2.257 2.257 0 002.26 2.255zm0 39.355a2.258 2.258 0 01-2.26-2.254 2.258 2.258 0 012.26-2.255 2.259 2.259 0 012.261 2.255 2.259 2.259 0 01-2.261 2.254zm0 39.359a2.257 2.257 0 002.261-2.254 2.258 2.258 0 00-2.261-2.255 2.258 2.258 0 00-2.26 2.255 2.257 2.257 0 002.26 2.254zm0 39.355a2.258 2.258 0 01-2.26-2.254 2.258 2.258 0 012.26-2.255 2.259 2.259 0 012.261 2.255 2.259 2.259 0 01-2.261 2.254zm0 39.356a2.258 2.258 0 01-2.26-2.255 2.258 2.258 0 012.26-2.254 2.259 2.259 0 012.261 2.254 2.259 2.259 0 01-2.261 2.255zm0 39.355a2.257 2.257 0 002.261-2.254 2.258 2.258 0 00-2.261-2.255 2.258 2.258 0 00-2.26 2.255 2.257 2.257 0 002.26 2.254z" fill="#ea5c0b"/></svg>
