<svg width="741" height="450" viewBox="0 0 741 450" fill="none" xmlns="http://www.w3.org/2000/svg"><path d="M10.144 60.517c.959-.592 2.152-.559 3.11.022.257.157.524.313.792.459.279.145.546.29.825.413 1.014.481 1.694 1.453 1.728 2.571l.122 3.834 12.44-.39-.122-3.835a2.97 2.97 0 011.56-2.694 20.835 20.835 0 001.584-.972 2.96 2.96 0 013.088-.201l3.355 1.81 5.886-11.01-3.355-1.81c-.981-.526-1.572-1.577-1.55-2.695a20.48 20.48 0 00-.056-1.855 2.975 2.975 0 011.371-2.795l3.244-2.023L37.6 28.738l-3.266 2.024c-.947.592-2.14.558-3.088-.023a18.278 18.278 0 00-.791-.458c-.268-.145-.546-.28-.814-.414-1.014-.48-1.705-1.453-1.739-2.582l-.111-3.834-12.44.391.122 3.823a2.983 2.983 0 01-1.56 2.694 17.78 17.78 0 00-1.584.984 2.96 2.96 0 01-3.088.201l-3.355-1.81L0 40.743l3.355 1.81c.981.526 1.572 1.576 1.55 2.694-.011.626.011 1.252.056 1.867a2.975 2.975 0 01-1.372 2.794L.346 51.921 6.91 62.53l3.233-2.012zm3.121-19.707c2.665-4.974 8.852-6.852 13.812-4.18 4.96 2.671 6.823 8.875 4.158 13.85-2.664 4.974-8.84 6.84-13.8 4.18-4.961-2.683-6.834-8.875-4.17-13.85z" fill="#EBEBEB"/><path d="M355.605 125.93c.959-.592 2.152-.559 3.11.023.257.156.524.313.792.458.278.145.546.29.825.413 1.014.481 1.694 1.454 1.728 2.571l.122 3.834 12.441-.391-.123-3.834a2.972 2.972 0 011.561-2.694c.546-.302 1.07-.626 1.583-.972a2.959 2.959 0 013.088-.201l3.355 1.81 5.886-11.01-3.356-1.811c-.981-.525-1.571-1.576-1.549-2.694a20.41 20.41 0 00-.056-1.855 2.978 2.978 0 011.371-2.795l3.244-2.023-6.566-10.608-3.266 2.024c-.947.592-2.14.559-3.088-.023a18.323 18.323 0 00-.791-.458c-.268-.145-.546-.28-.814-.414-1.014-.48-1.705-1.453-1.739-2.582l-.111-3.834-12.441.391.123 3.823a2.984 2.984 0 01-1.561 2.694c-.546.302-1.07.626-1.583.984a2.96 2.96 0 01-3.088.201l-3.355-1.81-5.886 11.01 3.355 1.81c.981.526 1.572 1.576 1.55 2.694-.011.626.011 1.252.056 1.867a2.974 2.974 0 01-1.372 2.794l-3.243 2.012 6.565 10.608 3.233-2.012zm3.121-19.706c2.665-4.975 8.852-6.853 13.812-4.181 4.961 2.672 6.822 8.875 4.158 13.849-2.664 4.975-8.84 6.841-13.8 4.181-4.961-2.672-6.834-8.875-4.17-13.849z" stroke="#EBEBEB" stroke-miterlimit="10"/><path d="M531.862 242.896c.68.391 1.059 1.14 1.014 1.933-.011.213-.011.425-.011.649 0 .212 0 .436.011.648.045.783-.334 1.532-1.014 1.923l-2.319 1.341 4.359 7.579 2.318-1.342a2.062 2.062 0 012.174.079c.357.234.736.458 1.126.648a2.072 2.072 0 011.148 1.844v2.683h8.729v-2.683c0-.782.446-1.486 1.148-1.844.39-.201.758-.414 1.126-.648a2.06 2.06 0 012.173-.079l2.319 1.342 4.359-7.579-2.33-1.352c-.68-.392-1.048-1.141-1.014-1.923.011-.212.011-.425.011-.648 0-.213 0-.425-.011-.649a2.094 2.094 0 011.014-1.933l2.319-1.342-4.359-7.578-2.308 1.341a2.06 2.06 0 01-2.173-.078 14.043 14.043 0 00-1.126-.66 2.072 2.072 0 01-1.148-1.844v-2.683h-8.729v2.683c0 .782-.446 1.486-1.148 1.844-.39.201-.769.414-1.126.66-.658.424-1.494.469-2.174.078l-2.307-1.341-4.359 7.578 2.308 1.353zm13.165-4.583c3.946 0 7.145 3.208 7.145 7.165s-3.199 7.165-7.145 7.165c-3.946 0-7.146-3.208-7.146-7.165s3.2-7.165 7.146-7.165zM663.992 87.769c0 18.812 15.217 34.059 33.967 34.059 18.761 0 33.966-15.258 33.966-34.06 0-18.811-15.205-34.058-33.966-34.058-18.75 0-33.967 15.247-33.967 34.059zm18.104 0c0-8.786 7.101-15.906 15.863-15.906s15.862 7.12 15.862 15.906c0 8.786-7.1 15.906-15.862 15.906s-15.863-7.12-15.863-15.906z" fill="#EBEBEB"/><path d="M691.422 55.118h13.065l-.725-9.266h-11.616l-.724 9.266zm24.871 4.415l9.23 9.267 6.031-7.076-8.216-8.238-7.045 6.047zm14.469 20.747v13.1l9.241-.726V81.006l-9.241-.726zm-4.4 24.938l-9.241 9.255 7.056 6.047 8.216-8.238-6.031-7.064zm-20.692 14.509h-13.065l.725 9.266h11.616l.724-9.266zm-24.87-4.416l-9.23-9.266-6.031 7.075 8.216 8.238 7.045-6.047zm-14.469-20.746v-13.1l-9.241.726v11.647l9.241.727zm4.399-24.938l9.241-9.255-7.056-6.047-8.216 8.238 6.031 7.064z" fill="#EBEBEB"/><path d="M203.997 295.164v-11.659l-8.907-.693a33.662 33.662 0 00-5.217-11.938l5.674-6.64-8.215-8.238-6.756 5.79a33.317 33.317 0 00-12.162-4.951l-.657-8.484h-11.616l-.658 8.484a33.498 33.498 0 00-12.507 5.186h-.011l-6.054-5.198-8.215 8.239 5.172 6.058a33.6 33.6 0 00-5.317 12.977l-7.469.593v11.647l7.558.593a33.691 33.691 0 005.663 13.1l-4.771 5.589 8.216 8.238 5.796-4.974a33.414 33.414 0 0013.188 5.041l.591 7.568h11.615l.624-8.037a33.521 33.521 0 0012.452-5.701l6.154 5.265 8.215-8.238-5.585-6.539a33.566 33.566 0 004.66-12.419l8.539-.659zm-42.048 11.01c-8.762 0-15.863-7.12-15.863-15.906 0-8.786 7.101-15.906 15.863-15.906s15.874 7.12 15.874 15.906c0 8.786-7.112 15.906-15.874 15.906z" stroke="#EBEBEB" stroke-miterlimit="10"/><path d="M68.949 352.148c-6.399.112-22.54.392-28.727.459l-9.688.044h-.501v-.514l-.045-12.508v-.559h.558l19.207.079c4.782.044 14.425.145 19.207.212h.279l-.011.268-.28 12.519zm0 0l-.268-12.508.268.269c-4.794.067-14.414.167-19.207.212l-19.207.078.557-.559-.045 12.508-.512-.503 9.52.045c6.086.067 22.595.347 28.894.458zM47.523 367.92c-6.399.112-22.54.392-28.727.459l-9.687.044h-.502v-.514l-.044-12.508v-.559h.557l19.207.079c4.782.044 14.425.145 19.207.212h.279l-.011.268-.279 12.519zm0 0l-.268-12.508.268.269c-4.793.067-14.414.167-19.207.212l-19.207.078.557-.559-.044 12.508-.513-.503 9.52.045c6.075.067 22.596.347 28.894.458zm221.25-282.722l-19.073.324-9.654.134-9.687.045h-.502v-.514l-.045-12.508v-.56h.558l19.207.08 9.609.088 9.609.123h.279l-.011.269-.29 12.519zm0 0l-.268-12.508.268.268-9.609.123-9.609.09-19.207.078.557-.56-.045 12.509-.501-.514 9.52.044 9.553.135 19.341.335zm-21.426 15.772l-19.073.324-9.654.134-9.687.045h-.502v-.514l-.044-12.508v-.56h.557l19.207.08 9.609.088 9.61.124h.278l-.011.268-.29 12.519zm0 0l-.267-12.508.267.268-9.609.123-9.609.09-19.207.078.557-.56-.044 12.509-.513-.514 9.52.045 9.553.134 19.352.335zm42.856-12.508h-38.414v12.508h38.414V88.462zm404.414 266.95h-38.414v12.508h38.414v-12.508zm0-354.864h-38.414v12.508h38.414V.548zm21.426 28.28l-19.074.324-9.654.134-9.687.056h-.501v-.514l-.045-12.508v-.56h.557l19.208.08 9.609.088 9.609.123h.279l-.012.269-.289 12.508zm0 0l-.268-12.508.268.268-9.61.123-9.609.09-19.207.078.558-.56-.045 12.509-.513-.514 9.52.044 9.554.134 19.352.336zM43.8 13.078l-19.073.324-9.654.134-9.687.045h-.502v-.514L4.84.559V0h.557l19.207.078 9.61.09 9.609.123h.278l-.01.268-.29 12.52zm0 0L43.533.57l.267.268-9.609.123-9.609.09-19.207.078.557-.559-.044 12.508-.502-.514 9.52.045 9.553.134 19.341.335zm327.137 298.641h38.415v-12.508h-38.415v12.508zm21.427-28.281c6.399-.112 22.54-.391 28.727-.458l9.687-.045h.502v.514l.045 12.508v.559h-.558l-19.207-.078c-4.782-.045-14.425-.145-19.207-.213h-.279l.011-.268.279-12.519zm0 0l.268 12.508-.268-.268c4.793-.067 14.414-.168 19.207-.213l19.207-.078-.557.559.045-12.508.501.503-9.52-.045c-6.064-.067-22.585-.346-28.883-.458z" fill="#EBEBEB"/><path d="M639.536 166.528c.546.09 3.11.492 6.856 1.096 1.639-2.225 3.757-6.26 3.913-12.363.022-1.006 1.594 5.03-.424 12.933 7.235 1.162 17.089 2.738 25.695 4.035a159.206 159.206 0 011.349-6.438c-.034 2.47.189 4.739.524 6.729 1.181.19 2.33.346 3.444.514.457-5.276 2.587-14.297 2.587-14.297a46.533 46.533 0 002.318 15.001c5.474.76 9.097 1.163 8.896.872-7.001-10.653-.19-15.325-1.405-24.032-1.471-10.441-9.899-13.213-8.617-20.735 1.026-6.115 3.3-17.17-4.124-20.601 0 0-5.362-7.769-15.763-5.31-12.875 3.041-10.59 22.647-11.95 26.391-1.928 5.343-4.804 6.93-7.614 12.944-2.853 6.081-.535 10.697-.791 15.057-.29 4.337-6.265 8.003-4.894 8.204z" fill="#263238"/><path d="M695.106 173.269c-.88-1.856-1.616-3.778-1.928-5.746-.368-1.956.156-3.845.802-5.768.647-1.922 1.36-3.867 1.829-5.935.445-2.057.657-4.259.256-6.405-.368-2.146-1.304-4.18-2.564-5.902-1.237-1.744-2.731-3.208-4.158-4.65-1.416-1.453-2.831-2.895-3.801-4.639-1.003-1.721-1.483-3.733-1.449-5.79a10.396 10.396 0 00.791 6.126c.87 1.933 2.23 3.588 3.59 5.13 1.36 1.554 2.731 3.029 3.823 4.673 1.093 1.632 1.895 3.42 2.196 5.332.312 1.9.201 3.856-.2 5.801-.379 1.956-1.015 3.879-1.55 5.879-.256 1.006-.513 2.035-.624 3.108-.112 1.073.011 2.202.267 3.219.547 2.046 1.516 3.901 2.72 5.567zm-38.213-63.234c-1.271 2.202-1.962 4.673-2.653 7.109-.647 2.448-1.182 4.93-1.672 7.4l-.77 3.689c-.256 1.229-.579 2.381-1.036 3.476-.914 2.225-2.475 4.047-4.203 5.891-.847.939-1.706 1.923-2.441 3.007a17.765 17.765 0 00-1.862 3.487 26.916 26.916 0 00-1.059 3.756 16.427 16.427 0 00-.312 3.912c.045 1.308.245 2.571.39 3.801.145 1.229.178 2.47.089 3.689-.145 2.414-1.728 4.627-3.868 5.935 2.308-.984 4.214-3.186 4.637-5.835.212-1.285.246-2.582.201-3.867-.044-1.286-.201-2.527-.178-3.734.022-2.403.657-4.829 1.538-7.075.479-1.107 1.037-2.158 1.739-3.141.691-.984 1.494-1.901 2.341-2.828.836-.928 1.706-1.889 2.475-2.951.769-1.062 1.449-2.214 1.939-3.454.48-1.23.792-2.538 1.015-3.778.245-1.252.435-2.504.624-3.745.39-2.493.747-4.985 1.204-7.445.413-2.492.937-4.951 1.862-7.299z" fill="#263238"/><path d="M668.26 151.841c-9.498 6.125-48.693 9.691-58.157 5.287-14.068-6.55-29.307-22.401-34.356-28.638-2.208-2.716 20.812-17.896 23.576-15.37 5.909 5.411 16.967 19.785 19.464 21.037 2.497 1.252 24.77 5.947 36.943 7.065 16.342 1.497 17.334 7.522 12.53 10.619z" fill="#F7A9A0"/><path d="M582.553 135.99c-1.405-1.039-13.277-8.372-17.368-14.877-2.163-3.443-7.057-13.593-5.139-15.169 1.761-1.442 3.779 1.006 3.779 1.006s-2.118-4.549.345-6.539c2.464-1.978 5.663 2.325 5.663 2.325s-1.828-4.84.769-6.64c2.598-1.8 5.095 3.074 5.095 3.074s-1.884-4.348.881-4.918c3.321-.693 5.897 7.702 8.929 11.033.691.76 15.049 14.33 15.049 14.33l-18.003 16.375z" fill="#F7A9A0"/><path d="M575.892 99.182c1.906 6.17 3.801 8.54 8.617 12.675.089.079 0 .235-.111.168-5.084-3.622-7.893-6.248-8.807-12.765-.044-.324.212-.38.301-.078zm-5.865 3.532c2.531 6.237 4.571 8.83 9.297 13.536.067.067-.033.19-.111.123-5.028-4.225-7.77-6.919-9.476-13.48-.078-.291.179-.459.29-.179zm-5.964 4.449c2.887 5.857 4.994 8.797 10.177 12.776.123.089 0 .279-.133.201-5.675-3.543-8.328-7.187-10.212-12.866-.122-.391-.011-.48.168-.111z" fill="#263238"/><path d="M605.745 119.917s-3.389-7.355-5.585-10.251c-2.196-2.895-14.358-10.686-16.175-8.148-2.352 3.275 3.779 9.155 7.157 11.647 0 0-5.463 7.568-1.973 12.743 3.5 5.175 16.576-5.991 16.576-5.991z" fill="#F7A9A0"/><path d="M583.627 102.636c0 4.538 4.649 7.522 7.748 10.172.234.201.156.458-.033.614-2.074 3.331-4.047 8.63-2.419 12.441.044.112-.101.19-.168.09-2.296-3.845-.791-9.211 1.717-12.71-3.222-2.671-7.747-5.868-6.889-10.607.011-.034.044-.034.044 0z" fill="#263238"/><path d="M643.704 138.192l-6.989 21.842s24.792-4.326 31.726-7.657c7.803-3.756 4.18-6.93-3.556-9.736-7.726-2.805-21.181-4.449-21.181-4.449z" fill="#A6A6A6"/><path d="M641.582 158.201c.357-.716 2.642-7.489 3.11-8.976.468-1.487 2.419-7.523 2.776-9.099.011-.067-.078-.112-.112-.045-.635 1.476-2.631 7.557-3.132 9.066-.502 1.498-2.62 8.249-2.743 9.031-.011.068.078.079.101.023z" fill="#263238"/><path opacity=".1" d="M668.441 152.366c-6.934 3.342-31.726 7.668-31.726 7.668l2.274-7.109c6.164-2.638 17.691-7.702 24.569-10.731.457.145.903.291 1.327.447 7.747 2.806 11.359 5.98 3.556 9.725z" fill="#000"/><path d="M648.871 23.775l9.788 9.591c.044.045.078.078.111.123l-9.787-9.59c-.034-.045-.078-.079-.112-.124zM500.639 198.911l-9.787-9.591c.122.123.256.246.39.369l9.787 9.591a12.71 12.71 0 01-.39-.369zm114.48-111.489l9.777 9.591-72.437 74.478-9.787-9.59 72.447-74.479z" fill="#DA3C3C"/><path d="M615.119 87.422l9.777 9.591-72.437 74.478-9.787-9.59 72.447-74.479z" fill="#000" opacity=".1"/><path d="M612 211.754l-99.915-7.724c-1.171-.1-1.706-.156-2.252-.246-3.021-.458-5.908-1.632-8.26-3.946l-9.788-9.59c2.375 2.325 5.251 3.487 8.272 3.946.535.089 1.081.145 2.251.246l99.915 7.723 9.777 9.591z" fill="#DA3C3C"/><path d="M612 211.754l-99.915-7.724c-1.171-.1-1.706-.156-2.252-.246-3.021-.458-5.908-1.632-8.26-3.946l-9.788-9.59c2.375 2.325 5.251 3.487 8.272 3.946.535.089 1.081.145 2.251.246l99.915 7.723 9.777 9.591z" fill="#000" opacity=".1"/><path d="M651.085 179.126l-9.776-9.591 14.592-129.853c.044-.325.078-.638.111-.973.078-.637-.212-.984-.134-1.632.112-.95.134-1.285-.1-1.956.033-.324-.212-.984-.167-1.308-.212-.983-.19-1.308-.424-1.978-.279-.347-.535-1.018-.49-1.342-.535-1.006-.825-1.352-1.093-1.699-.29-.346-.535-1.017-.825-1.363-.278-.347-.568-.693-1.137-1.386.011-.09-.022-.18-.1-.291l9.687 9.49c.134.134.212.257.201.391.568.682.858 1.04 1.137 1.386.29.347.535 1.017.825 1.364.278.346.557.693 1.092 1.699-.033.335.212.984.491 1.341.245.671.212.984.423 1.979-.044.324.212.983.167 1.308.246.67.212.983.101 1.956-.067.637.212.983.145 1.632-.034.324-.078.648-.112.972l-14.614 129.854z" fill="#DA3C3C"/><path d="M651.085 179.126l-9.776-9.591 14.592-129.853c.044-.325.078-.638.111-.973.078-.637-.212-.984-.134-1.632.112-.95.134-1.285-.1-1.956.033-.324-.212-.984-.167-1.308-.212-.983-.19-1.308-.424-1.978-.279-.347-.535-1.018-.49-1.342-.535-1.006-.825-1.352-1.093-1.699-.29-.346-.535-1.017-.825-1.363-.278-.347-.568-.693-1.137-1.386.011-.09-.022-.18-.1-.291l9.687 9.49c.134.134.212.257.201.391.568.682.858 1.04 1.137 1.386.29.347.535 1.017.825 1.364.278.346.557.693 1.092 1.699-.033.335.212.984.491 1.341.245.671.212.984.423 1.979-.044.324.212.983.167 1.308.246.67.212.983.101 1.956-.067.637.212.983.145 1.632-.034.324-.078.648-.112.972l-14.614 129.854z" fill="#000" opacity=".1"/><path d="M670.18 198.43c-1.126 9.96-9.966 17.058-19.865 16.286l-3.199-.257-9.776-9.59 3.188.257c9.899.771 18.75-6.316 19.865-16.287a17.08 17.08 0 00-5.039-14.173l9.777 9.59a17.091 17.091 0 015.049 14.174z" fill="#DA3C3C"/><path d="M670.18 198.43c-1.126 9.96-9.966 17.058-19.865 16.286l-3.199-.257-9.776-9.59 3.188.257c9.899.771 18.75-6.316 19.865-16.287a17.08 17.08 0 00-5.039-14.173l9.777 9.59a17.091 17.091 0 015.049 14.174z" fill="#000" opacity=".1"/><path d="M644.386 238.916c-1.126 9.949-9.654 17.08-19.553 16.32-.491-.045-.948-.1-1.427-.179-3.679-.57-6.856-2.213-9.286-4.583l-9.776-9.59c2.419 2.369 5.607 4.013 9.286 4.594.457.067.936.123 1.415.168 9.899.771 18.438-6.361 19.553-16.32l2.753-24.446 9.777 9.59-2.742 24.446z" fill="#DA3C3C"/><path d="M644.386 238.916c-1.126 9.949-9.654 17.08-19.553 16.32-.491-.045-.948-.1-1.427-.179-3.679-.57-6.856-2.213-9.286-4.583l-9.776-9.59c2.419 2.369 5.607 4.013 9.286 4.594.457.067.936.123 1.415.168 9.899.771 18.438-6.361 19.553-16.32l2.753-24.446 9.777 9.59-2.742 24.446z" fill="#000" opacity=".1"/><path d="M660.4 188.851c-1.126 9.97-9.977 17.057-19.865 16.297l-3.188-.257-2.743 24.435c-1.125 9.959-9.653 17.08-19.552 16.32-.48-.034-.959-.09-1.416-.168-9.108-1.42-15.217-9.401-14.146-18.868l2.742-24.435-99.916-7.735a30.346 30.346 0 01-2.252-.235c-3.255-.503-6.343-1.822-8.806-4.505-7.291-6.729-7.023-17.739-.089-24.971L625.887 26.011c.323.022.368-.302.714-.604.356-.29.702-.592 1.103-1.207.992-.246 1.349-.536 1.695-.838.367-.302 1.036-.57 1.382-.86.68-.28 1.025-.57 1.984-.493.401-.626.747-.916 1.382-.86.357-.302.993-.246 1.985-.492.323.022.958.078 1.315-.224.635.056 1.594.123 2.23.18.011 0 .323.021.635.055l.647.045c.635.056 1.594.123 1.906.145.401.246.669.335.992.391.858.403 1.806.48 2.408.85 1.806 1.117 2.408 1.475 2.686 1.822.602.38.881.715 1.494 1.095.658.403 1.204.76 1.16 1.062.568.693.847 1.04 1.125 1.386.29.347.535 1.006.814 1.364.279.346.569.693 1.104 1.699-.045.324.212.983.49 1.341.246.67.212.984.424 1.979-.045.324.212.983.167 1.307.245.671.212.984.1 1.945-.078.649.212.984.134 1.633-.033.324-.067.648-.111.972L641.26 169.569l3.188.246c.468.033.925.089 1.371.156 9.23 1.397 15.607 9.68 14.581 18.88zm-117.73-26.95l63.53 4.918 8.918-79.397-72.448 74.479z" fill="#DA3C3C"/><path d="M674.595 199.447s-20.267 102.043-21.693 109.566c-.335 1.71.836 93.045.836 93.045h-37.657s-3.622-79.777-1.805-94.833c1.817-15.057 24.758-107.789 24.758-107.789h35.561v.011z" fill="#F7A9A0"/><path opacity=".1" d="M674.596 199.447l-16.32 82.247-19.241-82.247h35.561z" fill="#000"/><path d="M626.266 250.463l40.03 4.829 8.294-55.845h-35.549l-12.775 51.016z" fill="#37474F"/><path d="M664.805 247.579c-4.28-.86-8.617-1.386-12.953-1.878-4.292-.491-8.584-.95-12.875-1.397-2.453-.257-4.928-.503-7.391-.626-.167-.011-.179.201-.022.235 4.28.794 8.639 1.308 12.953 1.878a549.22 549.22 0 0012.864 1.565c2.464.268 4.916.469 7.402.57.223 0 .245-.302.022-.347zm4.249-44.879a1280.336 1280.336 0 00-8.517 32.192c-.379 1.509-.735 3.03-1.103 4.539-.379 1.542-.792 3.107-1.004 4.683a.075.075 0 00.145.034c1.015-2.594 1.617-5.399 2.341-8.082.725-2.671 1.405-5.343 2.096-8.026 1.382-5.354 2.753-10.708 4.047-16.085.735-3.062 1.482-6.136 2.207-9.199.011-.134-.179-.179-.212-.056z" fill="#263238"/><path d="M588.236 436.665c2.085.693 61.457.514 63.72-.917.858-.537 1.337-9.222 1.616-19.718.067-2.269.111-4.605.145-6.986.044-2.817.078-5.667.1-8.439a548.922 548.922 0 00-.379-23.384h-38.381l.023 23.384.011 8.439.2 6.986s-22.707 10.262-25.015 12.117c-2.296 1.844-4.113 7.836-2.04 8.518z" fill="#F7A9A0"/><path d="M588.236 436.665c2.085.693 61.457.514 63.72-.917.858-.537 1.337-9.222 1.616-19.718.067-2.269.111-4.605.145-6.986.044-2.817.078-5.667.1-8.439H615.08l.011 8.439.2 6.986s-22.707 10.261-25.015 12.117c-2.296 1.844-4.113 7.836-2.04 8.518z" fill="#DBDBDB"/><path d="M588.057 436.754c1.349.447 26.643.537 45.059.156a536 536 0 0011.303-.346c4.337-.201 7.246-.436 7.714-.738 1.048-.67 1.55-13.413 1.784-26.849h-38.849l.2 7.02s-22.83 10.317-25.159 12.184c-2.308 1.866-4.136 7.88-2.052 8.573z" fill="#DA3C3C"/><path d="M588.905 434.362c10.01-.28 50.398-.436 60.319.055.078 0 .078.056 0 .067-9.91.492-50.309.324-60.319.056-.212-.022-.212-.178 0-.178zm24.935-20.579c3.935-.749 8.751-.156 11.772 2.65.111.111-.033.268-.167.234-3.891-1.218-7.525-1.989-11.594-2.381-.278-.033-.289-.447-.011-.503zm-2.84 1.722c3.935-.749 8.751-.157 11.772 2.649.112.112-.033.268-.167.235-3.891-1.219-7.525-1.99-11.593-2.381-.279-.023-.29-.447-.012-.503zm-2.836 1.732c3.936-.749 8.751-.156 11.772 2.649.123.112-.033.269-.167.235-3.89-1.218-7.525-1.989-11.593-2.381-.279-.033-.29-.447-.012-.503zm-2.839 1.722c3.935-.749 8.75-.157 11.771 2.649.112.112-.033.268-.167.235-3.89-1.219-7.524-1.99-11.593-2.381-.279-.034-.29-.447-.011-.503z" fill="#263238"/><path d="M608.323 410.285c2.787 2.168 6.421 3.04 9.676 4.236.334.123.602-.19.613-.492.067-.011.123-.055.089-.145-1.081-3.297-3.422-6.796-6.086-9.032-1.65-1.386-4.537-2.336-6.076-.19-1.46 2.035.156 4.36 1.784 5.623zm-1.015-3.175c-.702-4.326 3.935-2.068 5.117-1.006.758.682 1.438 1.476 2.096 2.258 1.371 1.632 2.475 3.432 3.678 5.198-1.56-.682-3.177-1.23-4.759-1.867-1.896-.738-5.741-2.191-6.132-4.583z" fill="#263238"/><path d="M631.842 407.837c-.959-2.459-3.991-2.258-5.931-1.33-3.143 1.498-6.276 4.303-8.149 7.221-.044.067-.011.134.056.156-.067.291.112.671.468.637 3.456-.346 7.179-.29 10.423-1.688 1.895-.816 4.036-2.671 3.133-4.996zm-8.428 5.075c-1.694.212-3.389.335-5.072.614 1.594-1.408 3.121-2.872 4.849-4.113.825-.593 1.684-1.185 2.587-1.654 1.404-.738 6.465-1.767 4.704 2.246-.97 2.225-5.05 2.661-7.068 2.907z" fill="#263238"/><path opacity=".1" d="M653.798 414.488c-.268 11.222-.769 20.768-1.661 21.35-.479.301-3.389.536-7.714.737-3.144.134-7.045.246-11.304.347-2.742.067-5.64.1-8.572.134l29.251-22.568z" fill="#000"/><path d="M663.841 397.363l38.704-.492s-7.602-132.435-10.913-159.989c0 0 6.276-14.922-5.474-37.468h-47.142s3.154 21.45 8.572 35.054c0 0 3.5.939 9.866 4.46l6.387 158.435z" fill="#F7A9A0"/><path d="M658.133 255.583h37.032l-2.809-18.712s5.629-18.991-5.373-37.468h-47.979s1.984 20.12 7.87 35.255l6.02 2.682 5.239 18.243z" fill="#37474F"/><path d="M652.906 237.341c-.044-.235-.524-.235-.49.011 1.951 11.032 5.027 16.375 5.25 16.878.034.067.112.067.145 0 .179-.525-4.024-12.307-4.905-16.889z" fill="#263238"/><path d="M645.797 233.92c4.248 1.464 8.35 3.543 12.274 5.734.156.09.056.324-.112.257-4.135-1.777-8.349-3.487-12.384-5.488-.324-.168-.112-.615.222-.503zm-1.32-28.448c.011-.145.268-.179.256-.022-.033 4.918.279 9.255.692 13.849.189 2.135 1.906 13.939 5.596 13.079.613-.146.936-.749 1.025-1.688.112-1.129-.301-2.504-.49-3.622a92.884 92.884 0 01-.948-7.444c-.39-4.662-.412-9.312.145-13.962.022-.156.234-.145.234.012 0 6.449.167 12.888 1.126 19.27.457 3.074 2.007 7.691-1.193 8.16-3.266.481-5.373-7.254-5.763-9.378-1.104-5.891-1.148-12.273-.68-18.254z" fill="#263238"/><path d="M650.934 232.702c.334.793.602 1.62.825 2.448.178.648.423 1.341.345 2.012-.011.134-.189.145-.256.056-.435-.548-.613-1.308-.859-1.957-.278-.76-.579-1.509-.836-2.269-.167-.514.569-.782.781-.29zm34.354-12.788c-3.489-.346-7.079-.302-10.312-1.867-3.288-1.587-5.373-4.705-7.056-7.846-1.059-1.968-1.784-3.991-2.319-6.159-.022-.101-.178-.068-.167.022.078 1.978.669 3.99 1.427 5.812.747 1.8 1.639 3.566 2.776 5.142 1.07 1.498 2.374 2.851 3.979 3.756 1.606.894 3.412 1.386 5.229 1.587 2.129.224 4.336.213 6.454-.033.256-.045.245-.392-.011-.414zm4.804 20.903c-.379-1.71-.947-3.465-1.037-5.22-.089-1.755.837-3.264 1.361-4.885 2.051-6.282 1.215-13.168-1.015-19.271-1.282-3.498-2.999-6.818-4.816-10.06-.044-.078-.167-.011-.122.078 3.054 5.981 5.752 12.363 6.354 19.126.29 3.253.056 6.561-.892 9.691-.446 1.487-1.304 2.918-1.427 4.482-.134 1.644.401 3.298.769 4.874.446 1.956 1.817 7.869 2.419 9.848.056.167.346.134.324-.056-.301-1.766-1.516-6.796-1.918-8.607zm2.665 9.926c-4.347-.324-8.728-.313-13.087-.28-4.314.045-8.628.112-12.953.201-2.475.056-4.95.112-7.413.28-.168.011-.156.223.011.235 4.347.268 8.728.234 13.087.268 4.314.033 8.639.045 12.953-.034 2.475-.044 4.939-.134 7.413-.346.234-.011.223-.313-.011-.324z" fill="#263238"/><path d="M636.608 436.888c2.073.716 61.456 1.129 63.73-.29.858-.526 1.427-9.211 1.817-19.696.089-2.269.156-4.594.212-6.986.078-2.817.133-5.667.178-8.439.201-12.43-1.739-24.435-1.739-24.435l-36.787.659-.211 23.384-.079 8.44.134 6.986s-22.807 10.038-25.126 11.871c-2.319 1.822-4.203 7.802-2.129 8.506z" fill="#F7A9A0"/><path d="M636.608 436.888c2.073.716 61.456 1.129 63.73-.29.858-.526 1.427-9.211 1.817-19.696.089-2.269.156-4.594.212-6.986.078-2.817.133-5.667.178-8.439l-38.737-.381-.079 8.44.134 6.986s-22.807 10.038-25.126 11.871c-2.319 1.811-4.203 7.791-2.129 8.495z" fill="#DBDBDB"/><path d="M636.417 436.978c1.349.458 26.643.804 45.059.603a470.48 470.48 0 0011.303-.234c4.336-.157 7.246-.369 7.725-.66 1.048-.659 1.672-13.391 2.051-26.827l-38.849-.391.134 7.031s-22.93 10.093-25.271 11.927c-2.33 1.833-4.225 7.824-2.152 8.551z" fill="#DA3C3C"/><path d="M637.296 434.586c10.01-.179 50.409.067 60.319.648.078 0 .078.056 0 .067-9.922.391-50.309-.179-60.319-.548-.212-.011-.212-.167 0-.167zm25.141-20.333c3.946-.704 8.762-.067 11.749 2.761.112.112-.045.268-.167.235-3.879-1.252-7.502-2.068-11.56-2.504-.29-.022-.301-.436-.022-.492zm-2.858 1.699c3.946-.704 8.762-.067 11.749 2.761.112.112-.044.268-.167.235-3.879-1.252-7.502-2.068-11.571-2.504-.29-.022-.29-.436-.011-.492zm-2.852 1.699c3.946-.704 8.762-.067 11.75 2.761.111.112-.045.268-.168.235-3.879-1.252-7.502-2.068-11.571-2.504-.29-.022-.29-.436-.011-.492zm-2.851 1.699c3.946-.704 8.762-.067 11.749 2.761.112.112-.045.268-.167.235-3.879-1.252-7.502-2.068-11.571-2.504-.29-.022-.29-.436-.011-.492z" fill="#263238"/><path d="M656.949 410.71c2.775 2.191 6.387 3.107 9.631 4.337.334.123.602-.19.624-.492.067-.011.123-.056.089-.145-1.047-3.309-3.355-6.83-5.997-9.088-1.639-1.397-4.515-2.381-6.075-.257-1.472 2.023.111 4.359 1.728 5.645zm-.981-3.186c-.669-4.337 3.957-2.034 5.127-.95.747.693 1.427 1.487 2.074 2.28 1.349 1.654 2.441 3.465 3.623 5.231-1.561-.704-3.155-1.263-4.738-1.911-1.895-.771-5.719-2.258-6.086-4.65z" fill="#263238"/><path d="M680.495 408.485c-.936-2.47-3.968-2.302-5.919-1.397-3.155 1.464-6.321 4.237-8.216 7.143-.044.067-.011.134.056.156-.067.291.111.671.468.637 3.456-.313 7.19-.212 10.445-1.576 1.895-.793 4.047-2.626 3.166-4.963zm-8.472 4.997c-1.694.19-3.389.302-5.072.559 1.605-1.386 3.144-2.839 4.894-4.058.836-.581 1.694-1.173 2.608-1.632 1.405-.726 6.477-1.699 4.682 2.303-1.014 2.202-5.094 2.604-7.112 2.828z" fill="#263238"/><path d="M642.762 178.768l-3.723 20.679 47.945-.033s.658-36.239-11.548-52.235c-6.109-8.003-11.482-7.366-17.023-2.671-1.404 1.185-15.316 15.526-17.635 23.138-2.04 6.707 1.984 11.122 1.984 11.122z" fill="#A6A6A6"/><path d="M650.077 176.868c2.152.559 4.303 1.218 6.343 2.168 1.015.47 2.007.995 2.999 1.554.49.28.992.525 1.494.783.513.257 1.07.514 1.627.603.056.011.034.101-.011.101-.546-.056-1.07-.112-1.616-.246a9.201 9.201 0 01-1.494-.559c-1.037-.469-2.051-.984-3.088-1.464-2.084-.962-4.169-1.934-6.309-2.705-.101-.056-.045-.269.055-.235zm-5.72 1.632c1.828.011 3.679.134 5.484.402a28.11 28.11 0 012.687.559c.424.112.847.224 1.271.347.468.134.914.346 1.382.48.045.011.034.112-.011.101-.446-.101-.903-.123-1.36-.19-.446-.078-.903-.145-1.349-.224-.903-.145-1.806-.279-2.709-.436-1.806-.313-3.6-.603-5.417-.849-.101-.022-.078-.19.022-.19z" fill="#263238"/><path d="M670.743 144.731c-.379.939-6.064 6.551-10.49 5.623-1.438-.302-.145-8.272-.145-8.272l-.033-.615-.524-8.539 10.657-4.673 1.527-.603s-.011 2.347-.056 5.264v.414c0 .168.011.324 0 .481 0 .436 0 .883-.011 1.33-.011.335-.011.67-.033 1.017-.012.358-.034.704-.045 1.062-.201 3.532-.691 7.12-.847 7.511z" fill="#F7A9A0"/><path d="M659.535 132.939l.513 8.215c6.265-1.117 9.944-5.063 11.616-7.377l.011-.827c.033-2.918.044-5.265.044-5.265l-1.527.592-10.657 4.662z" fill="#263238"/><path d="M652.681 115.311c-7.112 13.224-.011 18.98 2.831 20.523 2.586 1.397 11.549 5.801 19.988-6.617 8.427-12.419 4.548-19.908-1.193-23.407-5.741-3.499-14.525-3.722-21.626 9.501z" fill="#F7A9A0"/><path d="M655.731 114.305c.334.112.669.157 1.003.235.39.089.691.201 1.07.045.212-.079.335-.38.279-.593-.134-.492-.591-.715-1.048-.838-.502-.134-.925-.112-1.393.1-.457.224-.346.906.089 1.051zm9.194 4.337c-.301-.19-.546-.413-.825-.626-.312-.246-.59-.402-.724-.793-.067-.213.078-.503.279-.593.457-.201.925 0 1.315.28.424.301.669.637.814 1.14.122.48-.457.838-.859.592zm-3.091 1.52c.022-.033.044.079.033.112-.479.906-.892 2.012-.212 2.728.023.022 0 .067-.033.044-.948-.637-.39-2.112.212-2.884z" fill="#263238"/><path d="M663.118 119.615c1.527.626.167 3.632-1.238 3.051-1.393-.559-.033-3.577 1.238-3.051z" fill="#263238"/><path d="M663.64 120.039c.189.291.312.705.613.883.345.202.769.012 1.137-.178.044-.023.056.022.033.056-.245.581-.735 1.073-1.393.883-.602-.179-.769-.872-.658-1.509.022-.135.19-.246.268-.135zm-6.971-2.347c.012-.033-.089.011-.111.045-.401.939-1.014 1.956-1.995 1.867-.034 0-.045.044-.012.055 1.082.336 1.884-1.017 2.118-1.967z" fill="#263238"/><path d="M656.289 116.328c-1.439-.804-2.943 2.135-1.606 2.873 1.305.749 2.809-2.191 1.606-2.873z" fill="#263238"/><path d="M655.585 116.217c-.312.033-.68.201-.97.078-.334-.146-.401-.581-.457-.995 0-.045-.044-.034-.067.011-.301.548-.412 1.23.067 1.621.435.346 1.048.056 1.472-.436.078-.101.078-.302-.045-.279zm2.109 11.289c-.324.09-.703.269-1.037.123-.323-.145-.613-.48-.836-.749-.023-.022-.067-.011-.067.023.044.469.424.95.869 1.106.446.146.836-.089 1.137-.413.034-.045-.022-.101-.066-.09zm1.583-2.258c-.914.481-1.862.492-2.72.213a4.017 4.017 0 01-1.093-.548c-.067-.045-.133-.089-.189-.134-.056-.045-.112-.078-.178-.134-.09-.067-.101-.19-.067-.291v-.011c.022-.034.033-.056.055-.09v-.011l.045-.078c.357-.682.992-1.665.992-1.665-.312-.012-1.873-.157-1.661-.492 1.795-2.806 3.79-5.936 6.165-8.35.078-.078.211.022.145.112-1.617 2.772-3.713 5.231-5.385 7.992.48.067 1.293.156 1.639.358.078.078-1.26 1.877-1.393 2.202 0 0-.012.011-.012.033 1.048.771 2.085.917 3.601.771.112-.022.145.079.056.123z" fill="#263238"/><path d="M674.283 129.742c-3.333-1.789.792-12.721 1.316-14.062-.368.827-2.352 5.187-2.765 5.198-.1 0-.446-.268-.97-.727h-.011c.234-.492.457-1.039.625-1.598.089-.257-.346.469-.926 1.341-.167-.145-.345-.313-.535-.48.48-.917.981-2.091 1.271-3.432.1-.458-.903 1.319-2.073 2.727-2.029-1.788-5.006-4.27-8.116-5.935a27.968 27.968 0 00-2.229-1.084c.613-1.275 1.427-2.56 1.193-2.314a13.478 13.478 0 00-1.684 2.101c-.356-.156-.691-.29-1.003-.402.792-1.833 3.043-4.281 2.542-3.991-1.929 1.163-3.255 2.717-3.891 3.566-1.338-.358-1.795-.291-1.672-.626.223-.603 3.378-5.276 9.074-7.042 6.198-1.923 15.138 1.23 16.889 9.736 0 0 2.664 4.494 1.259 8.942-1.371 4.46-6.365 9.11-8.294 8.082z" fill="#263238"/><path d="M672.849 129.105s4.86-3.007 6.343-1.084c1.483 1.922-3.456 7.176-6.109 7.042-2.653-.134-2.575-2.605-2.575-2.605l2.341-3.353z" fill="#F7A9A0"/><path d="M677.734 129.485c.033.011.022.067-.011.067-1.884-.045-3.367 1.084-4.627 2.37.736-.392 1.528-.436 2.074.48.033.045-.045.101-.078.067-.591-.424-1.115-.514-1.795-.178-.479.234-.892.614-1.304.95-.134.111-.368-.079-.234-.224l.033-.033c.836-2.057 3.657-4.248 5.942-3.499z" fill="#263238"/><path d="M671.772 133.744c-.167.38 0 .816.379.972.368.168.814 0 .97-.38a.729.729 0 00-.379-.972.73.73 0 00-.97.38z" fill="#fff"/><path d="M678.147 162.605c-.09 7.992-.725 36.328-7.124 44.175-4.158 5.108-35.549 15.448-43.586 17.125-3.367.704-11.783-23.049-8.116-23.251 2.698-.145 33.175-8.193 35.683-9.311 0 0 7.001-17.694 11.906-30.124 4.86-12.285 11.382-12.028 11.237 1.386z" fill="#F7A9A0"/><path d="M609.663 205.17c1.383-.86.937-1.598-1.939-1.911-2.91-.324-14.559.894-14.626-3.219-.089-4.136 16.42-5.589 21.169-4.695 4.76.883 12.151 4.002 12.151 4.002-3.166.927-10.601 3.923-16.755 5.823z" fill="#F7A9A0"/><path d="M630.66 223.234c-8.974 2.291-20.01 5.7-30.053 2.783-1.974-.57-2.821-1.889-2.821-1.889-4.526-1.23-5.306-3.733-5.306-3.733-3.868-2.437-4.314-5.109-4.314-5.109s-5.295-1.498-4.916-4.862c.401-3.767 7.759-.928 12.764-1.844 11.448-2.102 27.144-8.294 30.388-9.233l4.258 23.887z" fill="#F7A9A0"/><path d="M609.57 214.839c-3.377.548-6.688 1.185-10.133 1.275-3.779.1-7.424-.448-11.147-.906-.112-.011-.145.145-.034.179 6.611 1.9 14.771 1.621 21.337-.391.167-.056.144-.19-.023-.157zm2.272 6.74c-3.322.358-9.163.939-19.319-1.296-.033-.011-.056.045-.022.056 6.399 2.325 12.719 2.671 19.352 1.397.212-.034.212-.179-.011-.157zm1.152 3.645c-5.675.38-9.297-.09-15.161-1.118-.033-.011-.056.056-.011.056 6.555 1.866 9.141 1.799 15.216 1.252.201-.012.179-.202-.044-.19z" fill="#263238"/><path d="M658.746 176.6l20.032 11.077s.535-25.229-1.393-32.684c-2.174-8.395-5.975-5.444-10.211 1.621-4.225 7.075-8.428 19.986-8.428 19.986z" fill="#A6A6A6"/><path d="M677.933 182.546c-.635-.491-6.822-4.035-8.182-4.784-1.36-.737-6.901-3.834-8.372-4.482a.058.058 0 00-.056.101c1.316.905 6.889 4.035 8.26 4.828 1.372.783 7.57 4.159 8.305 4.438.067.022.09-.067.045-.101z" fill="#263238"/><path d="M660.345 177.46c-.58-.38-1.505-.927-1.505-.927.802-2.538 6.008-15.001 7.212-18.03.022-.045-.056-.079-.078-.034a512.774 512.774 0 00-2.341 5.019c.056-.224.112-.447.178-.682.212-.805.402-1.609.636-2.403.022-.067-.078-.112-.1-.045-.301.783-.602 1.565-.803 2.381-.145.57-.245 1.151-.346 1.733-.434.961-.869 1.922-1.282 2.906-1.259 2.996-2.664 6.058-3.689 9.155 0 0 1.27.827 2.051 1.084.111.022.156-.101.067-.157zm16.518 9.144c.68.291 1.349.603 2.029.916l-.267.146c.011-5.354-.078-12.866.1-18.153.234 1.498.401 3.018.502 4.527.356 4.639.278 9.311-.29 13.939-.68-.459-1.394-.894-2.074-1.375z" fill="#263238"/><path d="M678.969 175.236c.078-1.274.245-2.392.702-3.588.312 1.218.1 2.593-.702 3.588z" fill="#263238"/><path d="M418.015 79.452c-3.021-2.202-6.209-3.632-9.486-4.27a22.49 22.49 0 00-5.451-.715c-8.417-.078-18.137 4.27-28.215 13.447-12.117 11.636-23.354 30.147-29.128 52.905-5.696 22.445-4.637 44.108.647 59.366 3.701 10.462 8.795 17.661 14.636 21.931l-11.047-8.082c-5.841-4.27-10.958-11.468-14.637-21.931-5.295-15.258-6.342-36.909-.657-59.366 5.774-22.758 17.022-41.28 29.139-52.905 10.078-9.177 19.798-13.514 28.203-13.447a22.35 22.35 0 015.452.716c3.277.637 6.476 2.056 9.497 4.27l11.047 8.081z" fill="#DA3C3C"/><path d="M418.015 79.452c-3.021-2.202-6.209-3.632-9.486-4.27a22.49 22.49 0 00-5.451-.715c-8.417-.078-18.137 4.27-28.215 13.447-12.117 11.636-23.354 30.147-29.128 52.905-5.696 22.445-4.637 44.108.647 59.366 3.701 10.462 8.795 17.661 14.636 21.931l-11.047-8.082c-5.841-4.27-10.958-11.468-14.637-21.931-5.295-15.258-6.342-36.909-.657-59.366 5.774-22.758 17.022-41.28 29.139-52.905 10.078-9.177 19.798-13.514 28.203-13.447a22.35 22.35 0 015.452.716c3.277.637 6.476 2.056 9.497 4.27l11.047 8.081z" fill="#000" opacity=".1"/><path d="M467.919 168.686c-7.614 28.704-21.471 53.642-40.221 70.789-14.893 13.995-33.822 23.653-53.72 23.474a60.053 60.053 0 01-12.719-1.498c-7.937-1.811-15.072-5.22-21.337-9.803l-11.047-8.082c6.276 4.583 13.411 7.993 21.336 9.803a59.3 59.3 0 0012.72 1.498c19.898.19 38.827-9.479 53.72-23.473 18.739-17.136 32.595-42.074 40.22-70.79 7.068-29.152 6.611-57.03-1.861-80.38-5.206-15.336-14.102-29.04-26.609-38.173l11.058 8.082c12.496 9.132 21.392 22.825 26.598 38.172 8.472 23.351 8.929 51.217 1.862 80.381z" fill="#DA3C3C"/><path d="M467.919 168.686c-7.614 28.704-21.471 53.642-40.221 70.789-14.893 13.995-33.822 23.653-53.72 23.474a60.053 60.053 0 01-12.719-1.498c-7.937-1.811-15.072-5.22-21.337-9.803l-11.047-8.082c6.276 4.583 13.411 7.993 21.336 9.803a59.3 59.3 0 0012.72 1.498c19.898.19 38.827-9.479 53.72-23.473 18.739-17.136 32.595-42.074 40.22-70.79 7.068-29.152 6.611-57.03-1.861-80.38-5.206-15.336-14.102-29.04-26.609-38.173l11.058 8.082c12.496 9.132 21.392 22.825 26.598 38.172 8.472 23.351 8.929 51.217 1.862 80.381z" fill="#000" opacity=".1"/><path d="M454.998 80.224c8.472 23.35 8.94 51.217 1.861 80.38-7.614 28.716-21.47 53.654-40.22 70.79-14.893 13.994-33.822 23.663-53.72 23.473a59.921 59.921 0 01-12.72-1.498c-23.822-5.432-40.387-25.262-48.336-48.154-8.171-23.272-8.862-51.53-1.56-80.313 7.391-29.096 21.47-53.654 39.908-70.857 14.96-14.252 34.056-23.697 53.664-23.507a59.46 59.46 0 0112.475 1.453c24.457 5.589 40.789 25.039 48.648 48.233zm-32.473 72.555c5.774-22.769 4.637-44.108-.569-59.678-5.919-15.403-14.826-24.122-24.502-25.989a21.883 21.883 0 00-5.451-.715c-8.406-.079-18.137 4.27-28.215 13.447-12.117 11.625-23.365 30.146-29.128 52.905-5.697 22.445-4.638 44.108.657 59.365 5.518 15.638 14.202 23.977 23.789 26.168 1.672.38 3.422.581 5.24.604 8.583.078 18.616-4.025 29.128-13.503 12.028-11.324 23.354-30.158 29.051-52.604z" fill="#DA3C3C"/><path d="M379.748 436.486c-2.274.771-67.286.916-69.761-.66-.947-.581-1.527-10.082-1.884-21.573 0-.123 0-.235-.011-.358-.078-2.37-3.311-41.403-3.311-41.403l42.35.514 2.909 40.33-.011.716s24.915 11.11 27.456 13.122c2.508 2.012 4.526 8.552 2.263 9.312z" fill="#D3766A"/><path d="M379.739 436.486c-2.274.771-67.275.916-69.761-.66-.813-.492-1.348-7.5-1.716-16.688 10.222 1.699 59.438 9.68 60.575 5.555.234-.872-.892-2.034-2.385-3.141 5.239 2.47 9.977 4.784 11.013 5.6 2.531 2.034 4.549 8.574 2.274 9.334zM239.531 221.255s54.233 85.243 55.448 91.178c1.861 9.122 11.014 100.434 11.014 100.434l46.563-.067s-9.03-80.693-16.933-106.906c-5.697-18.879-48.113-81.945-48.113-81.945l-47.979-2.694z" fill="#263238"/><path d="M349.384 404.763c-7.045-.19-32.026-.961-41.424-.224-.067.011-.067.134 0 .146 3.222.547 34.379.391 41.424.279.134 0 .134-.19 0-.201z" fill="#37474F"/><path d="M278.839 450c-2.397.078-64.6-18.857-66.517-21.093-.736-.838 1.482-10.082 4.492-21.182l.1-.347c.613-2.291 16.109-36.775 16.109-36.775l40.342 12.911-16.186 35.635-.223.682s20.578 17.929 22.418 20.6c1.839 2.65 1.861 9.502-.535 9.569z" fill="#D3766A"/><path d="M278.838 450c-2.397.078-64.6-18.857-66.518-21.093-.635-.704.892-7.567 3.233-16.454 9.275 4.617 54.021 26.693 56.306 23.083.48-.761-.256-2.203-1.371-3.7 4.292 3.901 8.138 7.5 8.896 8.584 1.828 2.661 1.85 9.513-.546 9.58zm-19.086-29.42l-45.928-13s48.001-95.583 47.745-101.619c-.223-5.343-31.403-52.726-33.019-61.512-2.642-14.386 4.571-27.072 11.46-34.875l47.477 14.375s-3.958 8.205-11.036 13.313c0 0 29.072 50.781 29.541 67.324.479 16.622-46.24 115.994-46.24 115.994z" fill="#263238"/><path d="M260.642 412.263c-6.655-2.045-4.715-1.554-11.404-3.521-3.266-.961-24.758-7.288-27.969-7.646-.067-.011-.1.112-.033.135 2.92 1.386 24.513 7.321 27.802 8.226 6.721 1.845 4.804 1.241 11.548 3.007.134.023.19-.167.056-.201zm23.195-176.801c-4.616 1.532-9.075 3.723-13.333 6.003-.167.089-.056.335.123.268 4.492-1.867 9.074-3.655 13.455-5.756.345-.157.111-.638-.245-.515z" fill="#37474F"/><path d="M278.253 234.177a21.373 21.373 0 00-.903 2.56c-.189.67-.457 1.408-.367 2.112.011.134.2.146.278.056.468-.581.669-1.364.925-2.057.301-.793.625-1.576.903-2.38.19-.526-.613-.805-.836-.291z" fill="#37474F"/><path d="M278.337 229.84c.201-.727.401-1.464.624-2.191.223-.749.502-1.498.669-2.269.023-.123.223-.067.19.056-.201.726-.301 1.498-.446 2.247-.145.748-.301 1.497-.457 2.235-.301 1.386-.703 2.772-1.137 4.136.735-.09 1.505-.212 2.14-.615.691-.447 1.048-1.274 1.338-2.023.312-.827.591-1.666.925-2.493.357-.905.769-1.811.97-2.783.022-.123.212-.067.189.056-.479 2.001-.936 3.99-1.806 5.879-.345.738-.601 1.498-1.337 1.856-.792.38-1.706.425-2.575.458-.101.045-.246-.011-.223-.145.234-1.453.535-2.962.936-4.404zm-.974 9.076c1.761 3.32 3.779 6.517 5.652 9.759 1.839 3.174 3.578 6.405 5.295 9.646a266.968 266.968 0 019.531 20.109 224.586 224.586 0 014.047 10.239c1.259 3.454 2.508 6.953 3.277 10.552.758 3.622.892 7.266.267 10.91-.635 3.7-1.828 7.288-3.009 10.842-2.72 8.115-5.697 16.152-9.453 23.843-.123.257-.547.056-.446-.213 2.653-7.086 5.395-14.14 7.792-21.327 2.33-6.964 5.061-14.174 3.991-21.629-.513-3.6-1.65-7.076-2.843-10.496a200.706 200.706 0 00-3.957-10.373c-2.776-6.741-5.909-13.302-9.119-19.852-1.795-3.667-3.69-7.277-5.507-10.944-1.828-3.688-3.612-7.444-5.674-10.999-.067-.089.1-.178.156-.067zm-34.639-7.668c.869-.134 2.129.201 5.875.011 1.036-.055 2.062-.234 3.076-.447 1.015-.212 2.04-.458 2.876-1.106 1.394-1.107 2.475-2.895 3.334-4.427.947-1.688 1.906-3.621 2.374-5.499.033-.112.201-.056.178.056-.212 1.095-.345 2.19-.657 3.264-.29 1.017-.703 2-1.149 2.962-.836 1.788-1.806 3.7-3.433 4.884-1.717 1.241-4.069 1.442-6.12 1.543-1.182.056-5.819-.145-6.432-.827-.089-.134-.078-.391.078-.414z" fill="#37474F"/><path d="M223.343 399.845c5.251-13.045 33.42-70.701 38.95-82.75 1.326-2.884 2.898-5.791 3.611-8.898.781-3.376-.211-6.461-1.583-9.535-2.519-5.633-5.473-11.066-8.617-16.375-3.143-5.332-6.476-10.541-9.765-15.784-3.266-5.197-6.699-10.395-9.341-15.939-2.531-5.299-3.891-10.932-3.033-16.812.859-5.835 3.478-11.267 6.288-16.387.735-1.352 1.493-2.694 2.24-4.035.056-.1.212 0 .156.101-3.121 5.354-6.12 10.988-7.636 17.035-.747 2.984-1.103 6.092-.836 9.166.268 3.118 1.193 6.148 2.43 9.02 2.408 5.578 5.808 10.731 9.019 15.862 3.277 5.253 6.621 10.451 9.81 15.761 3.21 5.331 6.253 10.775 8.895 16.42 1.171 2.515 2.464 5.142 2.709 7.947.268 3.074-.892 5.992-2.118 8.741-5.351 11.972-40.142 85.176-40.9 86.652-.112.167-.357 0-.279-.19z" fill="#37474F"/><path d="M296.304 131.787s9.04-4.94 17.078 0c8.037 4.941 11.861 17.125 10.489 27.342-1.382 10.216 7.057 16.968 7.96 24.557.914 7.59-4.136 11.1-5.819 15.091-1.94 4.56 5.819 20.757-13.935 24.524-24.703 4.695-34.156-10.317-31.636-22.736 1.237-6.081 4.693-10.407 4.637-15.325-.067-4.918-3.578-8.842-1.75-15.079 1.839-6.237 4.269-5.388 5.273-15.191 1.003-9.803-1.048-21.517 7.703-23.183z" fill="#263238"/><path d="M311.679 131.553c5.351 3.443 9.342 8.271 11.683 13.894a28.043 28.043 0 012.096 8.886c.256 3.991-.368 7.735 1.137 11.603 2.407 6.204 7.223 11.379 6.989 18.298-.1 3.186-1.126 6.316-2.965 9.021-2.14 3.118-5.173 5.589-6.967 8.931-.078.134-.29.022-.223-.123 1.493-2.973 3.901-5.243 5.919-7.903 2.408-3.186 3.768-6.964 3.656-10.865-.189-6.572-4.938-11.625-7.156-17.605-1.004-2.716-1.07-5.332-.981-8.182.1-3.354-.257-6.651-1.282-9.881-2.018-6.372-6.321-11.883-11.973-15.985-.044-.045.023-.123.067-.089zm10.401 74.635c.033 0 .033.044 0 .044-.034 0-.034-.044 0-.044zm-41.548-7.389c.624-2.94 2.173-5.6 2.798-8.529.747-3.521-.156-7.031-.836-10.496-.97-4.941-.859-9.602 1.348-14.252 1.427-3.007 3.166-5.823 4.225-8.976a36.254 36.254 0 001.884-10.607c0-.079.134-.079.134 0 .033 5.287-.959 10.306-3.311 15.135-1.349 2.772-3.021 5.387-3.801 8.383-.936 3.599-.569 7.076.067 10.697.423 2.403.936 4.851.914 7.299-.022 2.549-.836 4.807-1.75 7.188-2.364 6.17-2.33 12.485.111 18.633.045.101-.145.179-.189.079-2.018-4.617-2.631-9.647-1.594-14.554z" fill="#263238"/><path d="M332.502 182.803c-.223-5.41-4.035-9.087-6.354-13.782-1.75-3.543-2.943-7.333-2.363-11.234.011-.067.122-.045.122.011-.301 5.656 2.107 10.776 5.273 15.515 2.107 3.152 3.846 6.17 3.868 9.96.023 3.711-1.482 6.841-3.623 9.903-1.527 2.191-3.021 4.226-3.667 6.819-.647 2.571-.502 5.276-.368 7.892.011.134-.223.134-.234 0-.368-4.058-.424-7.982 1.639-11.693 2.541-4.527 5.93-7.891 5.707-13.391zm-52.916 12.151c.825-1.856 1.984-3.555 3.143-5.243 2.096-3.04 2.442-5.51 1.751-9.121-.012-.078.111-.112.133-.033 1.004 2.973 1.238 5.443-.546 8.193-2.497 3.823-4.927 7.31-5.44 11.882-.914 8.104 3.723 15.66 11.237 19.763.111.056.011.201-.1.156-6.299-3.063-10.724-8.618-11.638-15.157-.491-3.521 0-7.154 1.46-10.44z" fill="#263238"/><path d="M286.853 164.036c-.246.994 1.059 8.976 5.228 10.865 1.36.614 5.039-6.674 5.039-6.674l.39-.48 5.507-6.673-5.931-10.184-.892-1.408s-1.382 1.923-3.088 4.337c-.078.112-.156.224-.245.347-.1.134-.2.257-.278.391-.257.357-.524.726-.781 1.095-.189.28-.39.548-.579.85-.201.302-.391.592-.591.894-1.94 2.996-3.668 6.226-3.779 6.64z" fill="#D3766A"/><path d="M293.094 153.841c-.903 7.087 2.631 11.972 4.404 13.917l5.507-6.673-5.931-10.183-.892-1.409c.011.011-1.382 1.934-3.088 4.348z" fill="#263238"/><path d="M319.369 150.342c-.97 15.169-10.111 16.454-13.4 16.085-2.954-.324-13.02-1.229-13.622-16.409-.602-15.191 6.733-19.528 13.533-19.449 6.8.078 14.459 4.605 13.489 19.773z" fill="#D3766A"/><path d="M318.561 146.699c-.345-.067-.669-.19-1.003-.302-.379-.123-.702-.179-.97-.503-.145-.179-.1-.503.056-.66.368-.357.869-.335 1.338-.201.512.134.869.369 1.17.794.301.413-.134.961-.591.872zm-9.798-.246c.356-.011.691-.09 1.036-.134.402-.056.725-.056 1.037-.336.167-.145.178-.48.056-.659-.301-.414-.803-.47-1.293-.414-.524.056-.914.224-1.282.593-.368.357-.034.961.446.95zm1.927 3.901c-.011-.045-.078.045-.089.089-.022 1.04-.234 2.213-1.181 2.504-.034.011-.034.056 0 .056 1.159-.089 1.404-1.666 1.27-2.649z" fill="#263238"/><path d="M309.832 149.225c-1.65-.224-1.973 3.107-.435 3.308 1.494.202 1.817-3.118.435-3.308z" fill="#263238"/><path d="M309.167 149.337c-.312.156-.624.469-.981.469-.412 0-.68-.38-.914-.738-.022-.033-.056-.011-.056.034-.067.637.112 1.319.781 1.475.613.146 1.114-.38 1.337-.994.045-.123-.044-.302-.167-.246zm7.105.983c.011-.033.078.056.067.101-.134 1.028-.123 2.224.769 2.66.022.011.022.067-.011.056-1.126-.279-1.126-1.867-.825-2.817z" fill="#263238"/><path d="M317.295 149.337c1.661.044 1.449 3.375-.089 3.342-1.516-.045-1.305-3.376.089-3.342z" fill="#263238"/><path d="M317.971 149.605c.256.19.49.536.802.57.357.045.658-.291.914-.626.023-.034.056 0 .045.045-.022.637-.279 1.285-.892 1.375-.568.078-.936-.503-1.048-1.141-.022-.134.078-.301.179-.223zm-8.059 8.707c.212.28.413.638.769.727.357.078.792-.022 1.138-.101.033-.011.066.034.033.056-.323.358-.914.526-1.371.369-.446-.145-.624-.581-.68-1.017 0-.067.078-.078.111-.034zm4.614-3.364s.078 1.554.022 2.28c-.011.067-.178.09-.435.078-.011 0-.022.012-.033 0-1.293.09-2.542-.458-3.233-1.576-.045-.078.056-.145.112-.089.891.782 1.939 1.051 3.065 1.174.067-.202-.234-2.661-.111-2.661.401 0 1.159.336 1.616.514-.078-3.252-.68-6.46-.702-9.702 0-.112.167-.134.189-.033.87 3.319 1.037 7.064 1.204 10.417.022.414-1.416-.257-1.694-.402z" fill="#263238"/><path d="M314.105 156.748s-.68.983-1.649 1.363a1.909 1.909 0 01-1.149.112c-.847-.19-.891-.961-.758-1.621.112-.547.346-1.017.346-1.017s1.248 1.096 3.21 1.163z" fill="#263238"/><path d="M312.456 158.111a1.909 1.909 0 01-1.149.112c-.847-.19-.891-.961-.758-1.621.892.056 1.795.637 1.907 1.509z" fill="#FF99BA"/><path d="M292.759 150.197c1.661.09 6.466-3.968 7.502-11.938 0 0-1.427 7.087-2.084 8.082-.658.984 2.686-2.28 3.611-8.696 0 0 3.267 2.973 6.198 4.18 2.932 1.196 4.794 1.375 5.039 1.185.245-.19-4.058-2.113-5.105-3.644 0 0 7.636 4.684 11.325 5.388.424.078.926-6.998-4.403-11.413-5.317-4.415-13.856-3.119-16.576-1.028 0 0-2.921.078-6.533 3.99-3.589 3.901-.758 13.805 1.026 13.894z" fill="#263238"/><path d="M295.33 150.577s-3.222-4.795-5.396-3.655c-2.162 1.14.201 8.059 2.709 9.043s3.456-1.319 3.456-1.319l-.769-4.069z" fill="#D3766A"/><path d="M290.672 148.889c-.045 0-.045.056-.011.068 1.75.748 2.653 2.403 3.277 4.124-.513-.659-1.226-1.039-2.107-.425-.045.034 0 .101.045.101.724-.145 1.248-.011 1.727.581.335.414.569.939.803 1.42.078.156.368.078.312-.101 0-.011-.011-.022-.011-.044.078-2.27-1.616-5.455-4.035-5.724z" fill="#263238"/><path d="M292.8 214.236l-3.768 12.016-50.52-17.337s22.35-36.172 40.944-43.952c9.297-3.89 16.354-.022 18.829 6.83.624 1.733 5.941 24.591 4.169 32.36-1.594 6.852-9.654 10.083-9.654 10.083z" fill="#455A64"/><path d="M285.647 175.594c-3.289 8.316-12.419 42.04-5.251 51.44 8.673 11.379 24.335 21.618 29.976 26.38 1.416 1.196 15.84-21.83 12.151-24.323-5.73-3.868-18.918-12.698-19.854-13.861-1.616-2-3.556-24.837-5.005-37.255-1.316-11.19-10.078-7.288-12.017-2.381z" fill="#D3766A"/><path d="M332.135 241.812c-.858-1.42-.122-1.878 2.642-.839 2.798 1.051 12.798 7.501 14.748 3.801 1.962-3.711-12.34-12.62-17.066-13.995-4.727-1.386-12.854-1.945-12.854-1.945 2.431 2.28 7.804 8.417 12.53 12.978z" fill="#D3766A"/><path d="M304.82 248.541c7.09 6.215 15.54 14.374 25.985 16.342 2.051.391 3.422-.425 3.422-.425 4.66.961 6.522-.95 6.522-.95 4.615-.436 6.242-2.661 6.242-2.661s5.485 1.074 6.689-2.146c1.349-3.61-6.622-4.404-10.735-7.534-9.431-7.165-20.835-20.008-23.343-22.344l-14.782 19.718z" fill="#D3766A"/><path d="M327.797 250.62c2.82 2.056 5.529 4.147 8.606 5.812 3.377 1.822 6.933 3.007 10.523 4.304.111.044.067.201-.045.179-6.867-1.319-14.146-5.321-19.185-10.172-.111-.112-.044-.224.101-.123zm-5.14 5.075c2.854 1.844 7.882 5.063 18.115 7.701.033.011.033.067-.011.067-6.878-.827-12.764-3.42-18.193-7.634-.167-.123-.1-.257.089-.134zm-2.718 2.783c4.972 2.951 8.472 4.191 14.269 5.958.033.011.022.067-.011.067-6.8-1.319-9.119-2.571-14.381-5.858-.178-.123-.066-.279.123-.167z" fill="#263238"/><path d="M316.688 225.022l-12.797 25.475s-21.192-14.722-25.394-24.704c-4.203-9.981 1.07-33.433 5.161-46.064 4.091-12.619 13.477-16.923 15.261 3.868 1.784 20.791 3.567 29.957 4.18 30.952.613.994 13.589 10.473 13.589 10.473z" fill="#455A64"/><path d="M285.755 235.518c-.234-.838-5.942-5.365-8.06-13-.925-3.319-.512-13.011.39-18.98.346-2.291.903-4.538 1.394-6.796.981-4.56 2.073-9.121 2.753-13.737.011-.056-.067-.068-.089-.023-.97 2.828-1.761 5.734-2.452 8.652-.011-.168-.011-.335-.023-.492-.066-1.42-.178-2.85-.111-4.27.011-.101-.156-.101-.156.011-.022 1.409-.19 2.817-.245 4.225a24.938 24.938 0 00-.034 2.046c.011.257.022.537.045.816-.201.905-.39 1.811-.569 2.727-.457 2.314-.78 4.639-1.193 6.964-1.137 6.383-1.649 14.967-.479 19.606 1.984 7.847 8.539 11.938 8.684 12.251.033.09.178.112.145 0zm14.192 10.82c1.192-1.822 2.14-3.834 3.154-5.767a564.845 564.845 0 002.943-5.746c1.951-3.879 4.024-7.735 5.719-11.737.044-.089-.089-.167-.145-.078-2.341 3.7-4.314 7.657-6.31 11.547a239.336 239.336 0 00-2.92 5.902c-.914 1.9-1.906 3.812-2.598 5.812-.033.101.101.146.157.067z" fill="#263238"/><path d="M483.866 267.085s-7.904 1.151-10.858 7.098c-2.954 5.946-16.643 37.479-19.386 43.638-2.753 6.148-26.118 34.294-26.118 34.294s7.692 10.407 10.021 12.62c3.244 3.096 15.607 8.819 15.607 8.819s16.008-44.287 17.535-48.881c1.527-4.605 13.199-57.588 13.199-57.588z" fill="#DA3C3C"/><path d="M453.157 339.383c-1.137-.29-2.274.246-3.266 1.129-1.505.984-2.809 2.594-3.489 3.823-.457.827-.959 2.191.156 2.739 1.181.581 2.909-.716 3.79-1.375.925-.671 5.785-5.556 2.809-6.316zm-12.485.57c-1.728.079-2.965 1.979-3.657 3.354-.457.905-1.036 2.269-1.148 3.554-.111.749-.1 1.465.201 1.979.903 1.542 2.318-.134 3.077-.928 1.393-1.475 2.619-3.219 3.032-5.242.234-1.252.1-2.795-1.505-2.717zm13.366-9.4c-.736-.716-1.661-.436-2.509.212-1.114.738-2.14 2.023-2.552 2.716-.379.649-1.037 1.789-.569 2.571.468.794 1.538.47 2.185.112 1.193-.659 5.072-4.024 3.445-5.611zm-14.916 35.434c-.646-.447-1.193-.872-1.594-1.263a21.436 21.436 0 01-.814-.839c.09-.011.19-.022.268-.033 1.059-.157 2.006.056 2.307 1.028.134.414.056.783-.167 1.107zm-6.421-7.031c-1.728-2.202-3.411-4.449-4.381-5.734.067-.492.145-.984.268-1.454.145-.558.357-1.218.68-1.788.011-.011.011-.022.022-.034.201-.346.446-.659.736-.883 0 0 .011-.022.022-.022a1.916 1.916 0 011.204-.413c2.107.011 2.185 2.861 2.308 4.337.156 2.012.1 4.158-.859 5.991zm4.894-5.097c-1.059 2.85-.513 4.806.301 4.996 1.594.369 2.921-1.833 3.612-3.688.535-1.442.836-4.293-.212-4.796-.858-.402-2.72.85-3.701 3.488zm39.473-56.281c-.133.57-.256 1.14-.39 1.71-.145-.536.089-1.185.39-1.71zm-5.239-5.097c-1.728-.034-3.088 1.777-3.868 3.107-.513.872-1.182 2.202-1.382 3.466-.168.737-.19 1.453.078 1.989.802 1.599 2.329.023 3.132-.726 1.494-1.386 2.82-3.041 3.355-5.042.324-1.218.29-2.761-1.315-2.794zm8.561-9.736c-.345 1.531-.702 3.13-1.07 4.784-.502.078-.992-.045-1.237-.536-.424-.816.301-1.901.724-2.527.312-.447.892-1.117 1.583-1.721zm-12.53 23.418c-1.237 2.783-.813 4.761-.022 5.007 1.572.47 3.043-1.643 3.835-3.442.624-1.409 1.104-4.237.1-4.796-.825-.469-2.764.66-3.913 3.231zm-10.088 10.596c-1.048-.067-1.795.794-2.263 1.845-.435.838-.68 1.833-.758 2.425-.067.537 0 1.308.702 1.353.747.056 1.483-.872 1.84-1.409.446-.681 2.552-4.08.479-4.214z" fill="#263238"/><path d="M370.846 436.732c-2.185-.727-.245-7.042 2.185-8.987.769-.615 3.634-2.079 7.223-3.812 7.904-3.812 19.252-8.898 19.252-8.898l-9.676-41.101 39.429.213s10.768 38.608 10.701 41c0 .145-.011.302-.011.447-.334 10.899-.881 19.807-1.772 20.378-2.397 1.509-65.146 1.497-67.331.76z" fill="#D3766A"/><path d="M370.837 436.732c2.196.737 64.946.749 67.331-.772.892-.559 1.427-9.479 1.773-20.366 0-.145.011-.302.011-.447.011-.514-.468-2.683-1.227-5.768h-40.554l1.326 5.656s-11.359 5.086-19.262 8.898c-3.59 1.732-6.444 3.197-7.224 3.812-2.419 1.945-4.348 8.26-2.174 8.987z" fill="#EBEBEB"/><path d="M370.135 437.089c2.229.749 66.127.682 68.557-.871.936-.571 1.46-9.915 1.784-21.205 0-.123 0-.235.011-.358l-41.224-.413.011.704s-24.446 10.999-26.932 12.989c-2.475 1.967-4.437 8.405-2.207 9.154z" fill="#DA3C3C"/><path d="M370.855 434.596c10.769-.279 54.233-.379 64.901.168.089 0 .089.067 0 .067-10.668.513-54.132.257-64.901-.056-.234 0-.234-.167 0-.179zm23.809-20.242c4.236-.794 9.42-.157 12.664 2.872.122.112-.045.291-.179.246-4.18-1.319-8.093-2.157-12.462-2.582-.313-.033-.324-.481-.023-.536zm-3.051 1.855c4.237-.794 9.42-.156 12.664 2.873.123.112-.045.29-.178.246-4.181-1.319-8.093-2.158-12.463-2.582-.312-.034-.324-.481-.023-.537zm-3.054 1.856c4.236-.794 9.419-.157 12.663 2.872.123.112-.044.291-.178.246-4.18-1.319-8.093-2.157-12.463-2.582-.312-.033-.323-.48-.022-.536z" fill="#263238"/><path d="M391.058 411.146c2.998 2.336 6.9 3.286 10.4 4.583.368.134.647-.213.669-.537.067-.011.123-.067.1-.157-1.159-3.543-3.667-7.321-6.543-9.724-1.773-1.487-4.872-2.515-6.533-.213-1.571 2.169.157 4.684 1.907 6.048zm-1.082-3.421c-.747-4.661 4.248-2.224 5.507-1.073.814.738 1.55 1.587 2.252 2.426 1.471 1.766 2.664 3.7 3.946 5.6-1.683-.738-3.411-1.33-5.116-2.012-2.04-.805-6.176-2.37-6.589-4.941z" fill="#263238"/><path d="M416.361 408.541c-1.026-2.649-4.292-2.437-6.377-1.442-3.377 1.61-6.766 4.617-8.784 7.758-.045.078-.011.145.056.178-.067.313.122.716.513.682 3.712-.369 7.725-.29 11.225-1.788 2.04-.883 4.348-2.873 3.367-5.388zm-9.074 5.455c-1.829.223-3.646.358-5.463.648 1.717-1.509 3.356-3.085 5.228-4.415.892-.637 1.817-1.274 2.787-1.777 1.516-.794 6.956-1.889 5.061 2.436-1.048 2.381-5.44 2.84-7.613 3.108z" fill="#263238"/><path d="M484.196 346.537s7.067 25.653-5.273 33.254c-8.238 5.075-44.646-1.944-46.195-6.449-2.932-8.529-2.932-11.648-2.932-11.648l9.353 45.193-45.861.536s-8.606-37.39-6.399-77.071c.814-14.677 20.49-19.115 34.167-11.815 13.266 7.075 37.021 26.715 37.021 26.715l26.119 1.285z" fill="#37474F"/><path d="M435.283 380.395c-2.475-6.07-2.274-8.45-8.45-27.274-.824-2.515-1.516-5.075-2.251-7.623-.77-2.638-1.672-5.265-2.252-7.948-.034-.134-.245-.078-.201.056.714 2.325 1.171 4.728 1.784 7.087a489.509 489.509 0 001.85 6.897c.279.994.569 1.978.847 2.962-.122-.201-.245-.414-.367-.615a138.028 138.028 0 00-1.639-2.772c-1.159-1.889-2.553-3.655-3.567-5.623-.067-.123-.257-.011-.179.101 1.171 1.878 1.996 3.968 3.088 5.891a87.064 87.064 0 001.65 2.761c.502.804 1.003 1.721 1.65 2.436.847 2.907 2.653 9.904 3.556 12.799 2.843 9.099 1.906 6.137 4.024 11.022.112.279.569.1.457-.157zm-20.889 19.014c6.9-.078 13.8-.47 20.701-.593.134 0 .156-.201.011-.212-6.878-.045-13.756-.313-20.634-.224-6.912.079-13.79.425-20.69.66-.178.011-.201.279-.022.279 6.878 0 13.756.157 20.634.09zm16.924-2.314c-.636-3.052-1.516-6.059-2.319-9.077-.803-3.018-1.616-6.036-2.441-9.042-1.661-6.025-3.4-12.028-5.128-18.03-.981-3.41-2.04-6.797-3.088-10.195-.033-.1-.178-.067-.156.034a1014.04 1014.04 0 009.921 36.138c1.003 3.398 1.906 6.852 3.099 10.183.034.078.134.056.112-.011z" fill="#263238"/><path d="M478.932 379.78c12.34-7.589 5.273-33.243 5.273-33.243l-22.006-1.073-29.953 26.402c.156.47.323.962.502 1.476 1.538 4.493 37.946 11.513 46.184 6.438zm-85.866 26.592c.145.682.234 1.04.234 1.04l45.861-.537-7.19-34.774-38.905 34.271z" fill="#263238"/><path d="M578.138 441.471c.412 2.269-6.031 3.611-8.907 2.415-.914-.381-3.567-2.191-6.811-4.505-7.135-5.108-17.056-12.631-17.056-12.631l-33.699 2.045-18.806-34.752s30.99-1.799 33.12-2.895c.133-.067.267-.134.39-.201 9.687-4.952 17.735-8.775 18.661-8.26 2.474 1.352 32.684 56.504 33.108 58.784z" fill="#D3766A"/><path d="M520.059 392.031l17.735 35.177 7.569-.458s9.922 7.523 17.056 12.631c3.244 2.314 5.886 4.124 6.811 4.505 2.876 1.196 9.319-.146 8.907-2.415-.412-2.28-30.622-57.432-33.108-58.796-.914-.514-8.974 3.309-18.661 8.261a12.73 12.73 0 00-.39.201c-.524.268-2.787.581-5.919.894z" fill="#EBEBEB"/><path d="M578.782 441.929c-.424-2.325-31.258-58.438-33.788-59.824-.948-.547-9.364 3.488-19.397 8.652-.1.056-.212.112-.312.168l19.497 36.428.602-.357s21.381 16.185 24.324 17.415c2.921 1.207 9.498-.168 9.074-2.482z" fill="#DA3C3C"/><path d="M576.261 442.488c-5.429-9.333-26.453-47.483-31.113-57.119-.033-.078.012-.111.056-.033 5.585 9.132 26.297 47.45 31.213 57.063.1.212-.045.291-.156.089zm-29.171-11.177c-2.742-3.343-4.67-8.205-3.589-12.509.044-.167.279-.1.301.034.858 4.315 2.006 8.149 3.745 12.206.134.28-.256.503-.457.269zm3.094 1.788c-2.742-3.342-4.671-8.205-3.589-12.508.044-.168.278-.101.301.033.858 4.315 2.006 8.149 3.745 12.207.123.29-.267.514-.457.268zm3.094 1.8c-2.742-3.343-4.671-8.205-3.59-12.508.045-.168.279-.101.301.033.859 4.315 2.007 8.149 3.746 12.206.122.28-.257.503-.457.269z" fill="#263238"/><path d="M546.029 436.039c.59-3.756-.457-7.646-1.004-11.346-.055-.38-.49-.469-.78-.324-.045-.056-.123-.078-.178-.011-2.542 2.727-4.627 6.751-5.351 10.429-.446 2.269.145 5.499 2.954 5.846 2.642.324 4.013-2.403 4.359-4.594zm-2.464 2.593c-3.712 2.906-3.98-2.66-3.589-4.326.256-1.073.646-2.124 1.036-3.152.836-2.146 1.951-4.125 2.988-6.159.156 1.833.479 3.644.702 5.466.279 2.18.903 6.573-1.137 8.171z" fill="#263238"/><path d="M531.57 415.047c-1.817 2.179-.067 4.94 1.806 6.304 3.032 2.202 7.29 3.722 11.002 3.979.09.012.134-.067.123-.134.312-.089.569-.458.357-.771-2.107-3.085-3.98-6.651-6.967-8.998-1.751-1.375-4.604-2.448-6.321-.38zm9.13 5.343c1.07 1.498 2.062 3.029 3.199 4.482-2.14-.782-4.314-1.464-6.376-2.47-.981-.481-1.985-.984-2.899-1.599-1.415-.95-5.005-5.209-.312-5.611 2.586-.212 5.106 3.42 6.388 5.198z" fill="#263238"/><path d="M455.193 340.255s-1.17 10.675-1.059 18.835c0 0-43.564 22.892-45.549 44.656-.702 7.712.324 22.143 15.395 28.727 16.844 7.355 109.914 2.291 109.914 2.291l-11.626-42.967-41.045.022s28.961 4.616 32.115-14.733c2.921-17.985-8.093-36.82-8.093-36.82h-50.052v-.011z" fill="#37474F"/><path d="M524.268 432.663c-1.025-4.952-2.018-9.926-3.166-14.844a474.265 474.265 0 00-3.667-14.744c-.368-1.386-.747-2.761-1.115-4.136-.178-.659-.357-1.319-.546-1.967-.19-.66-.346-1.342-.602-1.979-.034-.067-.112-.033-.101.034.123 1.263.469 2.56.736 3.8.257 1.196.502 2.392.769 3.588.535 2.46 1.082 4.908 1.65 7.356 1.126 4.907 2.375 9.78 3.645 14.643.725 2.761 1.45 5.533 2.185 8.294.045.145.246.111.212-.045zm-28.886-40.855c-3.322-.235-6.655-.347-9.988-.414-3.333-.067-6.666-.033-9.999.022-3.333.112-6.666.235-9.988.537-3.322.302-6.644.671-9.899 1.431l2.475-.324 2.485-.235c1.661-.146 3.311-.28 4.972-.358 3.322-.19 6.644-.324 9.966-.38 3.322-.112 6.655-.145 9.988-.179l9.988-.1z" fill="#263238"/><path d="M496.106 343.776a119.384 119.384 0 013.868 11.692c1.081 3.957 1.94 7.981 2.374 12.05.201 2.035.29 4.08.123 6.103-.167 2.012-.557 4.036-1.483 5.802a8.243 8.243 0 01-1.772 2.325c-.747.659-1.572 1.218-2.441 1.721-1.75.973-3.657 1.688-5.596 2.258-3.902 1.118-7.96 1.699-12.017 2.191-4.058.469-8.149.805-12.229 1.218-4.08.414-8.182.906-12.207 1.9-1.995.503-4.024 1.141-5.863 2.169a28.132 28.132 0 00-5.106 3.622l-.925.827 1.249-.023 33.197-.447 16.598-.134c5.53-.022 11.07-.033 16.599.123-5.529-.324-11.058-.413-16.599-.503-5.529-.089-11.069-.112-16.598-.123l-16.599.011-16.598.157.323.805a26.64 26.64 0 014.927-3.465c1.75-.973 3.679-1.577 5.652-2.057 3.946-.95 8.015-1.42 12.073-1.867 4.068-.436 8.159-.782 12.239-1.285 4.08-.503 8.172-1.107 12.151-2.269 1.984-.593 3.946-1.331 5.764-2.393.902-.536 1.772-1.14 2.552-1.855a8.76 8.76 0 001.906-2.571c.959-1.911 1.338-4.013 1.472-6.081.134-2.079.022-4.158-.212-6.204-.468-4.113-1.46-8.126-2.619-12.072-1.204-3.968-2.587-7.847-4.203-11.625zm-36.18-3.979c0-.089-.156-.101-.167-.011-.167 1.486-.691 9.993-.947 13.19-.09 1.14-.034 3.174-1.684 3.174-1.315 0-1.962-1.442-2.107-2.548-.178-1.364.547-11.223.714-14.509 0-.09-.145-.101-.167-.011-.602 3.286-1.773 13.76-1.427 15.224.267 1.151.858 2.247 2.029 2.627.022.011-.19 1.542.055 3.878.011.112.346.135.368.045h.011c-.055-.771.346-3.744.335-3.767.858 0 1.538-.19 2.107-.961 1.17-1.531.914-12.542.88-16.331z" fill="#263238"/><path d="M464.637 365.014c-1.182-.816-2.419-1.565-3.657-2.302a103.087 103.087 0 00-3.757-2.113c-1.27-.659-2.552-1.33-3.857-1.923-1.304-.603-2.619-1.184-3.979-1.665.613.38 1.248.715 1.873 1.084l1.883 1.051c1.249.704 2.52 1.375 3.779 2.057 1.271.659 2.542 1.33 3.835 1.967l1.94.95c.635.291 1.282.604 1.94.894zm30.92-6.841c-2.308-.011-9.52.414-12.954-2.492-2.775-2.359-4.002-10.396-4.481-12.598-.022-.111-.178-.067-.19.034-.078 2.47.279 4.996.937 7.377.557 2.035 1.315 4.304 2.954 5.735 1.728 1.497 4.069 2.023 6.276 2.302 2.497.313 4.983.235 7.469-.1.145-.023.156-.258-.011-.258zm4.192-90.742c1.56.894 3.567.917 5.083-.112 1.494-1.006 2.241-2.85 2.018-4.605 1.728.85 3.801.838 5.228-.693 1.483-1.598 1.338-3.868.033-5.511-.011-.011-.033 0-.022.011 1.014 1.621 1.137 3.79-.256 5.243-1.182 1.241-2.698 1.352-4.136.894 1.427-.067 2.843-.57 3.79-1.688 1.037-1.218 1.293-3.018.546-4.437 1.628-.816 3.077-2.258 3.389-4.114.256-1.565-.379-3.23-1.717-4.069 1.427-1.106 2.152-3.051 1.661-4.828-.468-1.666-1.895-2.907-3.556-3.242 2.029-1.833 1.461-5.22-1.081-6.282.613-.771.647-1.867.19-2.75-.524-1.017-1.583-1.587-2.642-1.922.066-1.018-.324-2.057-1.16-2.683-1.126-.827-2.608-.637-3.567.279-1.081-1.464-2.464-2.895-4.303-3.275-1.516-.313-3.233.168-4.102 1.498a5.449 5.449 0 00-8.16.358c-1.182-.682-2.653-.604-3.835.089s-1.772 1.476-2.006 1.867c-1.104-.525-2.453-.235-3.289.659-.825.884-.992 2.012-.881 3.141-.133.28-.323.515-.613.749-1.326 1.073-2.04 2.627-1.917 4.326-1.884.693-2.742 3.085-1.739 4.829-1.616 1.252-1.895 3.789-.591 5.365-1.159 1.118-1.828 2.694-1.739 4.315.067 1.252.68 2.605 1.895 3.018-.646.738-.323 1.923.357 2.582.256.257.557.459.869.649.368.223.892.413 1.16.76.278.357.245.872.345 1.296.067.302.179.593.312.872 1.004 2.113 3.523 3.275 5.764 2.672.39 1.609 1.984 2.47 3.533 2.749.513.09 1.015.101 1.528.101.479 0 .891.034 1.304.302.256.168.468.391.713.559.859.57 1.829.469 2.776.268 1.193 4.248 6.611 4.169 8.818.76zM477.766 228.8c.758-1.095 2.018-1.52 3.288-1.218-.044.078-.078.145-.078.145s-.423.011-.624.045a3.746 3.746 0 00-1.07.335 4.032 4.032 0 00-1.706 1.554 3.797 3.797 0 00-.39.961.534.534 0 01-.044.123c.067-.693.211-1.341.624-1.945zm29.251-1.129c-.87-.849-2.23-1.073-3.311-.525a.38.38 0 01-.056-.078c1.026-.716 2.163-1.096 3.311-.213.803.615 1.026 1.476.959 2.359h-.022a3.22 3.22 0 00-.881-1.543zm-15.908 38.933c.012 0 .034-.011.045-.011a5.266 5.266 0 007.101 1.889c-2.542 1.677-5.708 1.643-7.146-1.878z" fill="#263238"/><path d="M479.892 281.873c2.62.671 9.141-3.13 12.151-6.863.201-.257.312-3.331.624-7.054.201-2.258.469-4.773.881-7.042l-14.848.861s.535 5.019-.212 8.987a5.196 5.196 0 01-.268.917c-.011.044-.033.089-.044.156-.613 1.71-2.386 8.987 1.716 10.038z" fill="#AD6359"/><path d="M479.629 272.182a9.971 9.971 0 01-1.449-.347.489.489 0 00.044-.156c.123-.28.212-.582.268-.917.747-3.946.212-8.987.212-8.987l13.778-.805c-1.249 3.577-5.15 12.43-12.853 11.212z" fill="#263238"/><path d="M500.054 243.589c.279 5.365-5.942 19.114-10.278 21.439-6.287 3.376-14.793 1.71-17.201-5.455-2.329-6.953 6.087-24.725 10.758-26.659 6.9-2.828 16.32 2.75 16.721 10.675z" fill="#AD6359"/><path d="M483.145 248.194c.022-.034.045.078.034.112-.48.894-.881 2.001-.212 2.716.022.022 0 .067-.034.045-.936-.637-.39-2.102.212-2.873z" fill="#263238"/><path d="M484.437 247.657c1.516.626.167 3.611-1.237 3.041-1.383-.57-.034-3.566 1.237-3.041zm-6.133-1.855c.011-.034-.089.011-.111.045-.391.939-.993 1.945-1.962 1.877-.034 0-.045.045-.012.056 1.082.325 1.862-1.028 2.085-1.978z" fill="#263238"/><path d="M477.913 244.461c-1.438-.783-2.899 2.146-1.572 2.872 1.315.727 2.776-2.213 1.572-2.872zm8.301 2.358c-.357-.29-.647-.615-.97-.928-.368-.357-.702-.614-.814-1.14-.056-.279.179-.637.446-.715.624-.19 1.193.134 1.65.559.502.458.769.927.869 1.598.112.637-.702 1.006-1.181.626zm-8.812-3.99c.446.123.87.156 1.327.234.513.079.903.202 1.393-.022.268-.123.402-.525.313-.782-.212-.626-.814-.872-1.427-1.006-.658-.135-1.204-.068-1.806.245-.569.291-.379 1.174.2 1.331zm3.254 14.631c-.323.112-.68.313-1.025.19-.335-.122-.647-.435-.892-.681-.023-.023-.067-.012-.067.033.078.47.479.917.947 1.04.446.111.825-.157 1.093-.492.044-.056-.011-.112-.056-.09z" fill="#263238"/><path d="M480.931 254.241c-.88.57-1.839.66-2.731.447a4.473 4.473 0 01-1.159-.458.855.855 0 01-.201-.123c-.067-.033-.122-.078-.189-.123-.101-.067-.123-.179-.089-.29v-.012c.011-.033.033-.056.055-.089v-.011l.034-.078c.301-.727.858-1.778.858-1.778-.323.011-1.917.011-1.728-.357 1.572-2.996 3.333-6.338 5.529-8.987.067-.09.212 0 .156.1-1.404 2.94-3.31 5.623-4.76 8.551.491.034 1.316.045 1.684.224.089.078-1.115 2.012-1.226 2.347 0 0-.012.011-.012.034 1.126.693 2.185.737 3.712.469.112-.011.157.09.067.134z" fill="#263238"/><path d="M477.633 254.062s.245 1.141.97 1.845c.267.257.59.458.992.525.825.145 1.148-.525 1.282-1.174.111-.525.067-1.039.067-1.039s-1.539.514-3.311-.157z" fill="#263238"/><path d="M478.59 255.896c.267.257.591.458.992.525.825.145 1.148-.525 1.282-1.174-.825-.268-1.851-.089-2.274.649z" fill="#FF99BA"/><path d="M477.486 240.068c.557.156 2.943-.526 4.169-3.633.97.581 3.59-.335 4.593-1.006-.368 3.689 3.054 6.36 6.254 5.287-.335 1.442-.424 2.996.156 4.281.947 2.102 2.508 2.895 2.508 2.895v.023c-1.438 2.436.145 5.41 2.452 5.577.212.034.424.056.636.056 1.148-.033 2.352-.313 3.155-1.397 1.036-1.397 1.059-3.488.033-4.672 1.182-.749 1.884-2.258 1.605-3.711-.167-.906-1.059-1.588-.858-2.549.156-.794.189-1.554.033-2.314-.278-1.319-1.014-2.347-2.051-2.951-.49-.279-.813-.525-1.092-1.062a9.848 9.848 0 00-.535-.939 5.516 5.516 0 00-1.26-1.285 5.21 5.21 0 00-1.928-.883c-.747-.168-1.606.022-2.252-.436-.558-.403-2.586-.861-3.278-.894-3.021-.168-4.637.961-4.637.961s-1.572-.112-3.445 1.543c-1.794 1.576-2.14 3.051-2.14 3.051s-.646.123-1.393 1.274c-.859 1.297-.803 2.761-.725 2.784zm17.658 7.981c-.257 2.068 0 3.13.479 3.957a3.686 3.686 0 01-.479-3.957zm-8.662-12.464c.212 2.035 1.26 3.667 2.742 4.494-1.616-.716-2.764-2.191-2.742-4.494z" fill="#263238"/><path d="M494.059 254.565s4.481-3.755 6.265-2.034c1.784 1.721-2.464 7.78-5.172 8.037-2.709.246-2.988-2.258-2.988-2.258l1.895-3.745z" fill="#AD6359"/><path d="M499.076 254.241c.045.011.034.067 0 .067-1.917.235-3.255 1.588-4.347 3.085.691-.503 1.482-.659 2.173.179.034.045-.022.101-.067.078-.668-.346-1.203-.357-1.839.079-.446.313-.814.76-1.182 1.151-.122.134-.379-.022-.267-.19.011-.011.022-.022.022-.034.535-2.213 3.077-4.84 5.507-4.415z" fill="#263238"/><path d="M512.386 356.061c-.167.156-60.386-9.893-60.899-10.608-.189-.268-4.604-3.544-2.474-10.597.59-1.956 3.266-4.147 4.202-6.807 5.619-16.085 16.153-47.171 23.577-55.23 2.932-3.186 11.906-4.214 15.584-.548 15.741 15.727 20.59 83.242 20.01 83.79z" fill="#EBEBEB"/><path d="M478.5 270.762s-13.377 59.332-13.867 66.721c-.491 7.389 4.347 24.278 4.347 24.278 9.197 10.809 49.618 18.947 49.618 18.947s-11.282-99.282-25.027-108.403c-7.223-4.807-15.071-1.543-15.071-1.543z" fill="#DA3C3C"/><path d="M509.995 338.813c-1.082.458-1.661 1.565-1.929 2.873-.613 1.699-.691 3.767-.49 5.153.134.939.546 2.325 1.772 2.101 1.304-.246 1.884-2.325 2.207-3.387.324-1.095 1.271-7.936-1.56-6.74zm-9.632 7.981c-1.326 1.107-1.181 3.376-.903 4.885.179.995.535 2.437 1.215 3.532.357.671.803 1.23 1.349 1.453 1.65.682 1.773-1.509 1.895-2.593.223-2.023.156-4.147-.735-6.014-.547-1.14-1.583-2.28-2.821-1.263zm5.039-15.571c-1.014-.123-1.583.66-1.873 1.688-.446 1.263-.49 2.906-.401 3.711.089.749.245 2.057 1.092 2.392.859.347 1.516-.547 1.817-1.229.535-1.252 1.617-6.271-.635-6.562zm8.818 36.317c-.825-.603-1.706-.19-2.453.57-.992.884-1.828 2.314-2.14 3.052-.29.704-.769 1.923-.19 2.627.58.715 1.595.246 2.185-.201 1.082-.828 4.437-4.706 2.598-6.048zm-43.765-43.906c-1.071 1.352-.469 3.543.111 4.974.379.939 1.026 2.28 1.906 3.208.491.581 1.037 1.039 1.617 1.14 1.75.324 1.427-1.833 1.326-2.929-.189-2.023-.691-4.091-1.951-5.734-.758-.995-2.017-1.911-3.009-.659zm-.848 14.005c-.958.369-1.092 1.319-.869 2.37.189 1.319.925 2.806 1.382 3.465.424.626 1.182 1.699 2.085 1.599.914-.101 1.081-1.207 1.025-1.934-.1-1.352-1.493-6.293-3.623-5.5zm24.213-6.27c.992-.056 1.906 1.352 2.341 2.079.702 1.196 1.126 2.593 1.293 3.957.1.805.39 2.492-.357 3.107-.903.738-1.772-.112-2.419-1.252-1.326-1.553-1.928-3.845-1.917-5.79 0-.715.089-2.034 1.059-2.101zm4.214 28.034c-1.305.972-.747 2.873-.235 4.113.814 1.968 2.23 3.7 3.969 4.896.736.503 1.85 1.107 2.642.816.814-.145 1.159-.939 1.059-1.978-.212-2.236-1.55-4.158-2.999-5.779-.97-1.096-2.742-3.331-4.436-2.068zm8.226.358c.87 2.917 2.486 4.147 3.244 3.811 1.494-.67 1.238-3.23.669-5.119-.435-1.476-1.917-3.935-3.043-3.7-.937.19-1.672 2.303-.87 5.008zm-30.087-14.543c-.49 3.007.435 4.818 1.26 4.851 1.639.056 2.519-2.369 2.831-4.314.246-1.521-.011-4.382-1.125-4.662-.926-.245-2.52 1.342-2.966 4.125zm18.728-58.471c-1.148-.235-2.263.346-3.21 1.274-1.461 1.051-2.698 2.705-3.311 3.968-.424.849-.87 2.236.278 2.739 1.216.536 2.865-.85 3.735-1.543.869-.715 5.518-5.813 2.508-6.438zm-12.441 1.117c-1.716.157-2.876 2.102-3.5 3.51-.412.928-.936 2.314-.992 3.599-.078.761-.033 1.476.29 1.968.97 1.498 2.319-.235 3.032-1.062 1.327-1.543 2.475-3.331 2.798-5.377.167-1.24-.045-2.783-1.628-2.638zm11.003-11.882c-.758-.682-1.672-.357-2.497.324-1.081.783-2.051 2.113-2.43 2.828-.357.671-.959 1.834-.457 2.594.513.771 1.56.402 2.185.022 1.159-.727 4.882-4.248 3.199-5.768zm-13.477 25.911c-.926 2.895-.301 4.828.513 4.985 1.616.302 2.842-1.967 3.444-3.834.468-1.464.647-4.326-.423-4.784-.859-.38-2.665.95-3.534 3.633zm20.121 16.062c-.87.581-.959 1.722-.702 2.839a8.08 8.08 0 00.847 2.392c.267.47.78 1.04 1.371.66.624-.402.658-1.587.624-2.236-.055-.816-.412-4.806-2.14-3.655zm-4.125-20.031c-.825-.648-1.928-.357-2.909.235a8.186 8.186 0 00-1.996 1.565c-.367.402-.735 1.073-.189 1.509.58.47 1.717.123 2.308-.123.758-.302 4.414-1.911 2.786-3.186z" fill="#263238"/><path d="M490.481 285.405c-8.349 3.588-45.381 15.046-55.113 7.992-11.794-8.539-22.63-24.233-27.624-29.856-1.248-1.408 21.716-16.778 24.347-13.078 4.079 5.734 12.005 18.309 13.209 19.226 2.085 1.599 26.732 3.588 39.373 4.717 11.404 1.017 10.724 8.875 5.808 10.999z" fill="#AD6359"/><path d="M436.268 256.667l-2.396-4.583c-.524-.95-.925-2.09-1.516-4.751-1.416-6.315-8.874-20.791-26.799-23.552-6.867-1.061-10.612 3.309-3.667 5.679 4.882 1.665 8.416 2.403 9.865 3.398 0 0-7.446 2.671-8.684 7.098-.557 1.978-1.939 7.411-2.408 11.781 0 0 .926.358 2.163.649 0 0-1.371 5.622 3.779 9.568l4.782 6.014 24.881-11.301z" fill="#AD6359"/><path d="M430.042 241.521c-2.732-2.001-8.584-6.159-14.548-7.881-6.621-1.922-19.909-3.823-21.269 1.096-1.004 3.61 4.013 4.784 4.013 4.784s-5.652.369-5.841 3.834c-.179 3.152 3.756 3.823 3.756 3.823s-3.389.816-2.976 3.878c.501 3.689 7.524 1.375 11.248 4.673.836.726 25.617-14.207 25.617-14.207z" fill="#AD6359"/><path d="M414.644 240.995c-2.876-1.464-10.255-3.107-16.308-1.587-.134.034-.19.157-.056.157 7.023-.257 13.577.849 16.342 1.498.045 0 .056-.056.022-.068zm-2.131 6.651c-2.608-1.006-10.289-2.358-16.364-.603-.134.044-.179.167-.045.156 7.324-.581 13.611.034 16.398.514.034 0 .045-.056.011-.067z" fill="#263238"/><path d="M447.843 296.807l-1.761-27.23s30.143 1.923 43.386 4.997c11.125 2.582 10.468 9.222-3.5 13.581-13.221 4.125-38.125 8.652-38.125 8.652z" fill="#DA3C3C"/><path d="M456.994 280.42c-1.617-.615-3.512.615-4.693 1.598-.781.649-1.862 1.666-2.475 2.784-.401.637-.68 1.307-.602 1.889.212 1.777 2.174.816 3.188.391 1.873-.794 3.679-1.889 4.872-3.588.713-1.029 1.204-2.493-.29-3.074zm6.61-7.366c-.39-.951-1.349-1.062-2.385-.816-1.316.223-2.776.994-3.423 1.464-.613.447-1.672 1.218-1.549 2.124.111.916 1.226 1.05 1.962.983 1.349-.123 6.243-1.643 5.395-3.755zm20.356 15.705c-1.327.38-2.754.782-4.225 1.162.646-1.028 1.56-1.956 2.72-2.057.836-.078 1.293.324 1.505.895zm9.497-12.777c-.758-.682-1.672-.357-2.497.324-1.081.783-2.051 2.113-2.43 2.828-.357.671-.959 1.834-.457 2.594.513.771 1.561.402 2.185.022 1.159-.727 4.883-4.248 3.199-5.768zm-29.195 2.236c-2.988.57-4.37 2.045-4.113 2.839.512 1.565 3.076 1.565 5.005 1.196 1.505-.291 4.102-1.509 3.991-2.66-.09-.95-2.118-1.901-4.883-1.375z" fill="#263238"/><path d="M451.936 272.908c.39 1.71.48 3.488.669 5.209.19 1.8.312 3.588.446 5.388.134 1.788.39 8.965.457 10.753 0 .078-.145.078-.145-.011-.201-1.8-.97-8.92-1.092-10.675-.123-1.755-.257-3.521-.324-5.276-.067-1.777-.234-3.61-.089-5.365-.011-.056.067-.068.078-.023z" fill="#263238"/><path d="M490.407 286.512c-13.811 4.929-28.136 8.562-42.683 10.44-.023-.961-.045-1.923-.056-2.884.111.905.212 1.822.301 2.727l-.145-.123c3.59-.704 7.168-1.363 10.724-2.168 10.322-2.202 21.626-5.209 31.859-7.992z" fill="#263238"/><path d="M489.831 287.574c-1.527.547-3.199.781-4.815.524 1.627-.123 3.199-.346 4.815-.524zm-13.589-15.191c4.325.212 8.64.872 12.798 2.09-4.303-.469-8.562-1.118-12.798-2.09z" fill="#263238"/><path d="M484.344 273.511c1.059-.357 2.207-.401 3.311-.201-1.115.179-2.185.213-3.311.201z" fill="#263238"/><path d="M46.036 350.639s-19.552 34.674-19.563 34.697c-3.144 6.997-5.775 13.178-6.834 16.509-.011.012-.011.034-.011.056-.401 1.252-.58 2.091-.457 2.392.011.023.011.045.022.067 1.438 2.348 56.44 29.141 58.67 29.432 2.24.302 3.221-6.07 1.917-8.82-1.327-2.76-17.791-22.456-17.791-22.456l19.196-34.808-35.149-17.069z" fill="#EB9481"/><path d="M76.978 433.58c-2.23-.291-56.35-26.883-57.789-29.231a.154.154 0 01-.022-.067c-.123-.302.056-1.14.457-2.392.011-.022.011-.033.022-.056 1.06-3.331 3.69-9.512 6.823-16.509 0-.012 3.3-6.059 4.604-8.16l34.98 18.13-4.068 7.21s15.595 19.494 16.91 22.244c1.316 2.761.324 9.121-1.917 8.831z" fill="#EBEBEB"/><path d="M77.978 432.831c-2.252-.347-57.042-28.649-58.435-31.053-.547-.905 3.099-9.154 7.792-18.991.044-.1.1-.201.145-.302l35.549 17.863-.323.592s16.141 20.243 17.4 23.049c1.26 2.794.124 9.188-2.128 8.842z" fill="#DA3C3C"/><path d="M78.45 430.372c-9.119-4.997-46.374-24.301-55.76-28.538-.078-.033-.1.012-.033.056 8.929 5.153 46.34 24.145 55.715 28.638.2.101.267-.045.078-.156z" fill="#fff"/><path d="M65.621 402.583c-3.288-2.559-8.015-4.292-12.128-3.13-.156.045-.09.269.044.291 4.17.715 7.893 1.721 11.839 3.286.278.112.48-.268.245-.447zm1.817 2.94c-3.289-2.56-8.016-4.292-12.129-3.13-.156.045-.09.269.045.291 4.169.715 7.892 1.721 11.838 3.286.268.112.48-.268.246-.447zm1.804 2.94c-3.288-2.56-8.015-4.293-12.128-3.13-.156.045-.09.268.044.291 4.17.715 7.893 1.721 11.839 3.286.267.112.48-.268.245-.447z" fill="#263238"/><path d="M33.365 393.305c-2.954-4.046-9.219.548-6.265 4.595 2.955 4.046 9.22-.548 6.265-4.595z" fill="#fff"/><path opacity=".1" d="M65.121 403.98l3.935 24.67c4.96 2.47 8.383 4.102 8.918 4.181 2.24.346 3.389-6.048 2.14-8.842-.958-2.124-10.445-14.263-14.993-20.009z" fill="#000"/><path d="M79.827 431.288c.792.883-1.126 4.08-1.962 3.979-.847-.1-60.453-31.231-61.344-31.98-.903-.748 1.348-4.214 2.63-3.789 1.271.425 60.676 31.79 60.676 31.79z" fill="#263238"/><path d="M30.984 373.923l39.407 21.104s49.74-71.08 50.743-89.759c1.371-25.798-20.589-107.676-20.589-107.676l-35.037-.235s14.247 84.214 13.087 98.578c-.602 7.511-47.61 77.988-47.61 77.988z" fill="#37474F"/><path d="M73.832 386.856c-2.029-1.464-20.712-12.318-34.936-19.248-.1-.045-.156.089-.078.145 4.314 2.861 32.194 18.175 34.903 19.259.1.034.2-.089.111-.156zm9.624-108.918c-1.627-12.318-3.422-24.625-5.462-36.887-2.051-12.318-4.214-24.625-6.778-36.842-.312-1.487-.646-2.985-.97-4.471-.044-.235-.4-.168-.356.067 2.162 12.128 4.38 24.234 6.365 36.384a1434.799 1434.799 0 015.507 36.529c.412 3.018.814 6.048 1.204 9.066.401 3.118.858 6.259.892 9.411.033 3.03-.435 5.981-1.505 8.82-1.048 2.783-2.53 5.376-4.036 7.925-6.331 10.753-34.724 57.734-35.46 59.097-.044.09.078.179.134.09 6.811-10.597 27.947-44.455 34.368-55.375 2.898-4.93 6.22-9.915 7.168-15.672.992-5.958-.28-12.217-1.07-18.142z" fill="#263238"/><path d="M73.37 373.923l-.39 40.106c.212 7.668.535 14.386 1.026 17.84a.1.1 0 00.011.056c.178 1.308.39 2.135.624 2.348.023.022.023.033.045.044 2.319 1.487 63.463 1.576 65.592.861 2.14-.704.267-6.874-2.107-8.775-2.386-1.9-25.773-12.441-25.773-12.441l.011-40.05-39.038.011z" fill="#EB9481"/><path d="M73.058 405.802l-.078 8.227c.212 7.668.535 14.386 1.026 17.84a.1.1 0 00.011.056c.257 1.286.48 2.135.624 2.348.023.022.023.033.045.044 2.319 1.487 63.463 1.576 65.592.861 2.14-.704.267-6.874-2.107-8.775-2.386-1.9-25.773-12.441-25.773-12.441v-8.35l-39.34.19z" fill="#EBEBEB"/><path d="M140.299 435.111c-2.162.693-63.786-.403-66.104-1.934-.892-.57-1.26-9.579-1.382-20.489v-.347l39.763.258-.023.681s23.399 10.999 25.773 12.956c2.352 1.956 4.147 8.193 1.973 8.875z" fill="#DA3C3C"/><path d="M139.652 432.696c-10.379-.436-52.304-1.229-62.605-.872-.089 0-.089.056 0 .068 10.278.659 52.215 1.106 62.605.972.211 0 .211-.156 0-.168z" fill="#fff"/><path d="M115.885 413.459c-4.069-.838-9.085-.29-12.262 2.571-.123.112.033.28.167.246 4.057-1.207 7.836-1.956 12.061-2.291.301-.034.324-.47.034-.526zm2.918 1.833c-4.08-.838-9.085-.29-12.262 2.571-.123.112.033.28.167.246 4.057-1.207 7.836-1.956 12.061-2.291.301-.034.324-.459.034-.526zm2.926 1.834c-4.069-.839-9.086-.291-12.263 2.57-.122.112.034.28.168.246 4.057-1.207 7.836-1.956 12.061-2.291.301-.034.323-.458.034-.525zm19.55 15.783c1.093.447.792 4.158-.011 4.437-.802.28-67.988-1.196-69.126-1.475-1.136-.28-.646-4.382.68-4.561 1.338-.19 68.457 1.599 68.457 1.599z" fill="#263238"/><path d="M82.854 419.451c-4.425-2.314-8.026 4.583-3.59 6.896 4.427 2.325 8.027-4.571 3.59-6.896z" fill="#fff"/><path d="M100.104 197.502s0 .011-.011.034c-.234.726-12.82 35.322-14.012 35.87-1.338.614 27.813 49.73 29.541 72.544 1.103 14.587-1.059 97.17-1.059 97.17H71.935s2.05-74.233 3.02-97.762c.38-9.121-29.261-54.537-29.63-82.817-.11-8.909 6.277-25.195 6.277-25.195l48.502.156z" fill="#37474F"/><path d="M75.215 304.721c0-.38-.3-.503-.323-.112-.959 12.731-1.193 25.396-1.795 38.139-.602 12.709-.256 15.783-.825 28.492-.323 7.199-.022 14.409-.178 21.607 0 .112.167.123.178.011 1.316-12.675 2.932-80.928 2.943-88.137zm40.408 1.732c-.089-3.141-.301-6.282-.858-9.367-.546-3.018-1.505-5.947-2.631-8.797-2.352-5.958-5.139-11.759-7.803-17.583-2.698-5.902-5.44-11.77-8.283-17.594a1127.46 1127.46 0 00-4.827-9.814c-1.638-3.309-3.4-6.55-5.116-9.814-.067-.134-.268-.034-.2.1 2.73 5.88 5.428 11.782 8.16 17.662a1944.82 1944.82 0 018.092 17.694c2.642 5.801 5.284 11.614 7.77 17.494 1.193 2.816 2.307 5.667 3.043 8.64.758 3.052 1.07 6.181 1.249 9.311.412 7.299.613 14.621 1.326 21.909.011.089.156.078.156-.011.223-6.595.123-13.235-.078-19.83zm-4.151 88.216c-2.475-.324-21.359-.972-37.166-.302-.111 0-.1.157 0 .168 5.15.458 34.245.66 37.143.324.101-.011.134-.168.023-.19z" fill="#263238"/><path d="M91.98 231.494c-4.56 1.062-9.03 2.783-13.333 4.639-.167.067-.09.335.09.279 4.47-1.408 9.029-2.716 13.41-4.37a.287.287 0 00-.168-.548zm4.303-29.297c0-.145-.256-.212-.267-.045-.49 5.108-1.271 9.557-2.185 14.286-.424 2.19-3.456 14.24-7.19 12.955-.625-.213-.892-.883-.892-1.856 0-1.174.58-2.56.892-3.7a94.137 94.137 0 001.772-7.612c.903-4.784 1.416-9.613 1.327-14.486 0-.157-.234-.168-.246-.012-.68 6.685-1.538 13.336-3.21 19.852-.803 3.13-2.887 7.758.379 8.585 3.333.85 6.332-6.953 6.967-9.11 1.784-6.003 2.497-12.609 2.653-18.857z" fill="#263238"/><path d="M86.707 229.728c-.435.782-.791 1.61-1.115 2.448-.256.648-.58 1.341-.568 2.046 0 .134.178.167.256.089.502-.525.78-1.285 1.093-1.934.367-.749.758-1.498 1.103-2.269.234-.514-.501-.872-.769-.38zm-7.135 87.557c.223-6.081.892-12.453-1.093-18.31-.98-2.906-2.485-5.6-3.89-8.316a445.983 445.983 0 01-4.347-8.618c-5.697-11.536-11.059-23.25-15.852-35.188-2.308-5.746-4.37-11.648-5.195-17.829-.858-6.461-.245-13.056 1.193-19.383.357-1.576.747-3.152 1.17-4.717.034-.111-.133-.179-.178-.067-1.918 5.992-3.244 12.229-3.322 18.544-.078 6.081 1.248 11.994 3.21 17.717 2.04 5.969 4.604 11.771 7.124 17.538a563.301 563.301 0 008.093 17.717c2.787 5.824 5.763 11.558 8.706 17.315 1.427 2.783 2.72 5.634 3.277 8.73.558 3.152.468 6.371.346 9.568-.502 13.447-1.661 58.181-1.828 71.583-.023 1.7-.045 3.41-.056 5.109 0 .145.223.167.234.022.836-13.38 1.929-58.013 2.408-71.415z" fill="#263238"/><path d="M70.01 206.21c-.01-.101-.145-.078-.156.011-.501 3.7-.791 7.534-2.575 10.887-1.639 3.085-4.481 5.064-7.591 6.45-1.795.805-3.668 1.442-5.53 2.045-.133.045-.1.258.045.224 3.523-.738 7.112-1.554 10.178-3.543 3.277-2.124 4.972-5.522 5.507-9.334.312-2.224.278-4.493.122-6.74z" fill="#263238"/><path d="M92.328 144.262c8.84 12.91 33.81 30.091 41.223 30.963 9.141 1.073 27.078-16.219 33.677-25.933 2.731-4.013-12.34-18.276-17.936-16.856-3.077.782-17.134 18.812-19.91 18.019-6.688-1.901-16.186-6.294-29.708-12.106-7.357-3.152-12.842-2.113-7.346 5.913z" fill="#EB9481"/><path d="M143.117 138.572s2.82-6.841 4.716-9.568c1.895-2.727 12.708-10.295 14.469-8.048 2.274 2.906-3.11 8.506-6.098 10.898 0 0 5.273 6.707 2.274 11.57-2.998 4.851-15.361-4.852-15.361-4.852z" fill="#EB9481"/><path d="M165.089 151.952c2.274-1.688 12.006-10.362 14.168-13.38 2.174-3.018 7.781-12.161 5.652-14.061-2.14-1.901-3.991.648-3.991.648s1.762-4.236-.568-5.958c-2.33-1.721-5.083 2.336-5.083 2.336s1.493-4.482-.948-6.036c-2.441-1.542-4.537 2.996-4.537 2.996s1.561-4.035-.992-4.46c-3.066-.514-5.095 7.254-7.736 10.407-.602.715-13.21 13.648-13.21 13.648l17.245 13.86z" fill="#EB9481"/><path d="M169.971 118.117c-1.505 5.712-3.143 7.947-7.391 11.904-.078.079.012.224.112.146 4.504-3.499 6.978-6.003 7.569-11.994.011-.291-.223-.336-.29-.056zm5.406 2.962c-2.085 5.79-3.846 8.238-7.982 12.709-.056.067.045.168.112.112 4.425-4.046 6.833-6.606 8.148-12.664.056-.28-.178-.425-.278-.157zm5.321 4.292c-2.419 5.466-4.236 8.216-8.807 12.05-.111.09.012.257.134.179 5.05-3.443 7.335-6.874 8.84-12.128.1-.369-.011-.447-.167-.101zm-18.031-3.409c.168 4.147-3.957 7.042-6.688 9.58-.212.19-.123.424.056.558 2.017 2.963 4.013 7.724 2.675 11.268-.045.1.1.179.156.078 1.951-3.599.368-8.439-2.051-11.547 2.842-2.56 6.856-5.645 5.897-9.948-.011-.022-.045-.022-.045.011z" fill="#263238"/><path d="M117.473 144.418l-6.487 21.864s-17.937-17.493-21.76-24.133c-4.303-7.467.445-8.048 8.36-5.991 7.915 2.057 19.887 8.26 19.887 8.26z" fill="#C7C7C7"/><path d="M113.295 144.016c-1.204 2.671-3.679 11.2-4.103 12.597-.223.738-.981 3.734-1.215 4.472-.033.089.123.123.156.033.435-1.408 1.015-2.772 1.472-4.18.457-1.442 3.277-9.982 3.801-12.889a.058.058 0 00-.111-.033z" fill="#263238"/><path opacity=".1" d="M89.226 142.149c3.823 6.64 21.76 24.133 21.76 24.133l3.344-11.267-24.39-19.774c-2.632.447-3.278 2.459-.714 6.908z" fill="#000"/><path d="M45.848 206.601l60.253 11.703c-.234 1.185 5.774-47.975-4.348-79.553-.691-2.157-9.754-6.081-14.681-3.029-21.56 13.358-41.369 71.65-41.224 70.879z" fill="#C7C7C7"/><path d="M106.394 214.985c-.033.402-.067.76-.1 1.095l-59.896-10.966c.112-.301.234-.659.38-1.05l59.616 10.921zm-56.885-18.053c-.145.358-.28.704-.413 1.04l57.8 10.585c.033-.357.056-.726.078-1.095l-57.465-10.53zm2.876-7.109c-.145.358-.29.693-.435 1.04l55.381 10.138c.011-.358.033-.727.044-1.095l-54.99-10.083zm3.043-7.076c-.145.347-.301.682-.446 1.029l52.605 9.635c0-.369.011-.738.022-1.106l-52.181-9.558zm52.215 1.934l-48.971-8.976c-.167.347-.323.682-.49 1.018l49.472 9.065c0-.369-.011-.738-.011-1.107zm-.179-7.668l-45.336-8.305c-.168.335-.346.682-.513 1.017l45.894 8.406a36.138 36.138 0 00-.045-1.118zm-.412-7.713l-41.168-7.545c-.2.336-.39.671-.568 1.018l41.803 7.656c-.011-.368-.045-.749-.067-1.129zm-.725-7.768l-36.34-6.651c-.212.324-.413.659-.625.995l37.099 6.796c-.044-.38-.078-.76-.134-1.14zm-1.07-7.836l-30.622-5.6c-.245.324-.48.648-.725.984l31.526 5.779c-.056-.392-.123-.772-.179-1.163zm-1.583-7.925l-23.488-4.304c-.3.313-.602.638-.903.962l24.659 4.516-.268-1.174zm-1.928-7.009c-.112-.346-.435-.737-.925-1.151h-.012l-12.853-2.347a6.07 6.07 0 00-.892.458c-.2.123-.39.246-.59.391l15.316 2.806c-.011-.056-.033-.101-.044-.157z" fill="#EBEBEB"/><path d="M89.295 119.089s-10.601 9.244-9.208 11.245c1.394 2.001 15.685.738 18.995-1.386 3.311-2.124 9.922-11.479 9.922-11.479l-19.709 1.62z" fill="#DA3C3C"/><path opacity=".1" d="M89.295 119.089s-10.601 9.244-9.208 11.245c1.394 2.001 15.685.738 18.995-1.386 3.311-2.124 9.922-11.479 9.922-11.479l-19.709 1.62z" fill="#000"/><path d="M99.125 145.916c-2.932.637-8.963-2.917-10.97-7.142-.133-.291.458-3.231 1.015-6.83.324-2.191.636-4.639.77-6.886.022-.458 13.889 4.214 13.889 4.214s-1.65 4.639-1.839 8.574c-.011.324 0 .637.045.928 0 .044.011.089.011.156.178 1.766.223 6.304-2.921 6.986z" fill="#EB9481"/><path d="M102.038 138.774c0 .044.011.1 0 .156-.446.034-.926.034-1.45 0-8.282-.648-9.887-11.178-10.166-13.838 2.486.503 13.399 4.18 13.399 4.18s-1.65 4.65-1.839 8.574c-.011.324 0 .637.056.928z" fill="#263238"/><path d="M88.288 107.375c-1.65 4.974.647 19.528 4.125 22.836 5.038 4.807 13.477 5.455 17.59-.659 3.991-5.936.669-24.837-3.232-27.867-5.753-4.46-16.053-1.654-18.483 5.69z" fill="#EB9481"/><path d="M102.18 116.384c-.011-.033-.066.056-.066.101.178.972.222 2.124-.614 2.582-.022.011-.011.067.012.056 1.059-.313.992-1.844.668-2.739z" fill="#263238"/><path d="M101.144 115.501c-1.594.123-1.226 3.309.245 3.186 1.449-.112 1.093-3.286-.245-3.186zm6.745.403c0-.034.078.033.089.078.078.995.334 2.112 1.26 2.336.033.011.033.056 0 .056-1.104-.034-1.438-1.52-1.349-2.47z" fill="#263238"/><path d="M108.646 114.775c1.571-.302 2.051 2.861.602 3.141-1.438.279-1.918-2.895-.602-3.141zm-8.918-.593c.424-.156.78-.369 1.182-.57.445-.223.836-.358 1.092-.816.134-.246.022-.648-.201-.805-.524-.368-1.148-.234-1.694.023a2.503 2.503 0 00-1.293 1.218c-.29.57.357 1.163.914.95zm9.967-1.151c-.446-.022-.859-.112-1.293-.19-.502-.078-.903-.09-1.293-.436-.212-.19-.223-.604-.056-.827.39-.514 1.014-.57 1.616-.503.658.078 1.137.302 1.594.771.457.458.023 1.218-.568 1.185zm-7.39 12.609c.256.201.535.491.891.48.346-.011.725-.212 1.026-.369.033-.011.067.012.045.045-.212.402-.725.704-1.193.682-.457-.022-.714-.391-.87-.783-.011-.055.056-.089.101-.055z" fill="#263238"/><path d="M103.004 122.566c.647.793 1.505 1.173 2.408 1.241.401.033.814 0 1.215-.079.078-.011.156-.033.223-.056.067-.022.134-.033.212-.056.111-.033.167-.134.167-.245v-.012a.327.327 0 00-.022-.1v-.011l-.011-.09c-.067-.76-.268-1.911-.268-1.911.29.112 1.773.581 1.706.19-.569-3.264-1.193-6.886-2.453-10.004-.033-.101-.2-.056-.178.044.424 3.152 1.393 6.215 1.862 9.379-.469-.123-1.238-.358-1.639-.302-.1.044.435 2.202.435 2.548v.034c-1.249.313-2.252.033-3.59-.682-.067-.034-.134.045-.067.112z" fill="#263238"/><path d="M88.995 121.481c2.687-.994 3.367-10.339 3.367-10.339s.278 3.923 1.003 3.767c.725-.157 3.31-5.701 3.355-9.546 0 0 3.657 2.09 7.224 2.861 3.556.772 6.9 1.297 6.856.705-.134-1.766-2.196-6.606-4.716-8.048-2.898-1.666-6.532-3.13-12.039-.515-5.518 2.627-6.577 5.656-7.201 8.551-.625 2.896 1.17 12.933 2.151 12.564z" fill="#263238"/><path d="M104.855 99.54c-4.939-2.438-15.562-1.141-17.658 7.399-1.393 5.656.112 11.2.112 11.2s6.276-6.159 8.75-7.377c6.288-3.097 14.838-2.538 14.838-2.538s-1.606-6.505-6.042-8.685zm-7.815 8.908c-.067-1.453.38-3.611 3.501-4.292 3.6-.794 4.537 2.571 4.537 2.571-4.058.067-8.038 1.721-8.038 1.721z" fill="#DA3C3C"/><path d="M91.658 119.436s-3.244-4.695-5.373-3.532c-2.13 1.162.3 7.958 2.787 8.897 2.486.939 3.4-1.352 3.4-1.352l-.814-4.013z" fill="#EB9481"/><path d="M87.031 117.826c-.044 0-.044.056-.011.067 1.739.716 2.653 2.348 3.288 4.024-.512-.648-1.226-1.006-2.084-.391-.045.034 0 .101.044.09.714-.146 1.227-.023 1.717.547.346.414.569.928.814 1.397.078.157.368.079.3-.111 0-.011-.01-.023-.01-.045.044-2.213-1.672-5.343-4.058-5.578z" fill="#263238"/><path d="M194.57 29.811l11.46 7.49.134.1-11.46-7.489a.524.524 0 00-.134-.1zM83.315 230.6l-11.46-7.489c.145.1.301.19.457.29l11.46 7.49c-.156-.09-.3-.19-.457-.291zm90.557-131.765l11.46 7.489-56.54 87.232-11.46-7.478 56.54-87.243z" fill="#DA3C3C"/><path d="M173.872 98.835l11.46 7.489-56.54 87.232-11.46-7.478 56.54-87.243z" fill="#000" opacity=".1"/><path d="M195.033 221.378l-99.492 11.994c-1.17.134-1.705.179-2.251.201-3.055.146-6.11-.436-8.874-2.258l-11.47-7.489c2.775 1.811 5.83 2.392 8.884 2.258.535-.022 1.092-.067 2.252-.201l99.491-11.994 11.46 7.489z" fill="#DA3C3C"/><path d="M195.033 221.378l-99.492 11.994c-1.17.134-1.705.179-2.251.201-3.055.146-6.11-.436-8.874-2.258l-11.47-7.489c2.775 1.811 5.83 2.392 8.884 2.258.535-.022 1.092-.067 2.252-.201l99.491-11.994 11.46 7.489z" fill="#000" opacity=".1"/><path d="M227.019 181.73l-11.459-7.489-10.992-130.223c-.022-.324-.044-.648-.078-.972-.044-.648-.401-.928-.446-1.576-.078-.95-.122-1.285-.479-1.89-.022-.323-.401-.927-.424-1.251-.401-.928-.434-1.252-.802-1.855-.335-.28-.725-.895-.736-1.219-.725-.883-1.07-1.162-1.405-1.453-.345-.28-.724-.894-1.07-1.174-.334-.28-.691-.57-1.382-1.14 0-.09-.056-.179-.156-.257l11.348 7.411c.156.112.256.212.268.335.691.56 1.047.85 1.382 1.14.345.28.724.895 1.07 1.174.334.28.68.57 1.405 1.453.022.336.401.928.735 1.219.379.603.402.927.803 1.855.022.324.401.928.424 1.252.379.604.401.928.479 1.89.056.648.401.927.457 1.575.022.324.056.649.078.973l10.98 130.222z" fill="#DA3C3C"/><path d="M227.019 181.73l-11.459-7.489-10.992-130.223c-.022-.324-.044-.648-.078-.972-.044-.648-.401-.928-.446-1.576-.078-.95-.122-1.285-.479-1.89-.022-.323-.401-.927-.424-1.251-.401-.928-.434-1.252-.802-1.855-.335-.28-.725-.895-.736-1.219-.725-.883-1.07-1.162-1.405-1.453-.345-.28-.724-.894-1.07-1.174-.334-.28-.691-.57-1.382-1.14 0-.09-.056-.179-.156-.257l11.348 7.411c.156.112.256.212.268.335.691.56 1.047.85 1.382 1.14.345.28.724.895 1.07 1.174.334.28.68.57 1.405 1.453.022.336.401.928.735 1.219.379.603.402.927.803 1.855.022.324.401.928.424 1.252.379.604.401.928.479 1.89.056.648.401.927.457 1.575.022.324.056.649.078.973l10.98 130.222z" fill="#000" opacity=".1"/><path d="M249.488 196.921c.836 9.982-6.455 18.678-16.309 19.874l-3.188.38-11.46-7.489 3.177-.38c9.855-1.185 17.156-9.87 16.309-19.874a17.113 17.113 0 00-7.692-12.911l11.46 7.489c4.269 2.795 7.246 7.445 7.703 12.911z" fill="#DA3C3C"/><path d="M249.488 196.921c.836 9.982-6.455 18.678-16.309 19.874l-3.188.38-11.46-7.489 3.177-.38c9.855-1.185 17.156-9.87 16.309-19.874a17.113 17.113 0 00-7.692-12.911l11.46 7.489c4.269 2.795 7.246 7.445 7.703 12.911z" fill="#000" opacity=".1"/><path d="M232.086 241.677c.836 9.982-6.132 18.645-15.997 19.83-.491.056-.948.089-1.427.112-3.712.167-7.157-.816-9.999-2.672l-11.46-7.489c2.832 1.855 6.287 2.839 9.999 2.683a20.4 20.4 0 001.416-.112c9.855-1.185 16.844-9.848 15.997-19.83l-2.062-24.513 11.459 7.489 2.074 24.502z" fill="#DA3C3C"/><path d="M232.086 241.677c.836 9.982-6.132 18.645-15.997 19.83-.491.056-.948.089-1.427.112-3.712.167-7.157-.816-9.999-2.672l-11.46-7.489c2.832 1.855 6.287 2.839 9.999 2.683a20.4 20.4 0 001.416-.112c9.855-1.185 16.844-9.848 15.997-19.83l-2.062-24.513 11.459 7.489 2.074 24.502z" fill="#000" opacity=".1"/><path d="M238.038 189.432c.836 9.993-6.454 18.689-16.309 19.874l-3.177.38 2.073 24.502c.837 9.982-6.131 18.645-15.996 19.83-.48.056-.959.1-1.427.112-9.208.402-16.755-6.238-17.546-15.739l-2.074-24.502-99.492 11.994c-1.17.134-1.717.19-2.252.212-3.288.146-6.577-.536-9.509-2.694-8.46-5.164-10.345-16.017-4.95-24.468L172.458 36.496c.323-.045.301-.369.591-.727.289-.357.579-.715.847-1.397.925-.436 1.215-.794 1.505-1.163.301-.368.903-.76 1.193-1.117.602-.403.891-.76 1.85-.872.268-.693.557-1.04 1.193-1.118.29-.369.925-.436 1.85-.872.324-.044.959-.112 1.249-.48.635-.079 1.583-.19 2.218-.269.011 0 .324-.044.636-.078.323-.045.323-.045.635-.078.624-.078 1.583-.19 1.906-.235.435.168.725.201 1.048.19.914.224 1.862.112 2.531.358 1.984.737 2.653.983 2.998 1.263.669.246 1.004.536 1.673.782.724.269 1.326.503 1.348.816.691.56 1.037.85 1.383 1.14.345.28.724.883 1.07 1.174.345.28.691.559 1.404 1.453.023.324.402.928.736 1.219.368.603.401.927.803 1.855.022.324.401.928.423 1.252.368.604.402.928.48 1.89.055.648.401.927.457 1.575.033.324.056.649.078.973l10.991 130.222 3.177-.391c.457-.056.926-.089 1.383-.112 9.263-.413 17.145 6.472 17.925 15.683zm-120.706-3.354l63.263-7.623-6.722-79.609-56.541 87.232z" fill="#DA3C3C"/><path d="M80.438 152.075c-2.196 14.654-7.659 44.935-1.539 54.045 8.026 11.95 34.836 20.087 41.87 22.501 3.066 1.051 11.248-18.935 9.565-21.964-1.683-3.029-29.519-14.453-31.403-16.23-1.884-1.778-4.314-25.777-6.766-38.106-3.088-15.571-9.866-12.653-11.727-.246z" fill="#EB9481"/><path d="M138.69 213.8c-1.092-1.241-.457-1.822 2.43-1.297 2.921.525 13.868 5.064 15.128 1.095 1.27-3.99-14.325-10.16-19.208-10.663-4.871-.515-12.931.38-12.931.38 2.787 1.811 9.141 6.852 14.581 10.485z" fill="#EB9481"/><path d="M113.125 225.279c8.048 4.818 17.78 11.301 28.359 11.368 2.074.011 3.278-1.028 3.278-1.028 4.737.112 6.22-2.102 6.22-2.102 4.448-1.252 5.652-3.722 5.652-3.722s5.562.067 6.164-3.297c.691-3.778-7.268-3.141-11.85-5.466-10.512-5.343-23.967-15.884-26.843-17.729l-10.98 21.976z" fill="#EB9481"/><path d="M136.01 223.2c3.122 1.509 6.154 3.074 9.464 4.158 3.635 1.185 7.324 1.711 11.081 2.337.112.022.1.19-.011.178-6.967-.067-14.804-2.682-20.601-6.539-.145-.078-.089-.201.067-.134zm-4.136 5.902c3.121 1.297 8.628 3.555 19.118 4.315.033 0 .044.067 0 .067-6.878.413-13.11-1.073-19.185-4.225-.178-.112-.134-.246.067-.157zm-2.165 3.208c5.396 2.012 9.041 2.594 15.038 3.287.034 0 .034.067 0 .067-6.889-.079-9.386-.883-15.127-3.175-.2-.089-.122-.257.089-.179z" fill="#263238"/><path d="M96.203 169.177l-21.426 7.143s3.991-24.569 7.202-31.466c3.611-7.757 6.777-4.214 9.62 3.41 2.843 7.623 4.604 20.913 4.604 20.913z" fill="#C7C7C7"/><path d="M94.157 165.545c-2.854.536-11.17 3.364-12.552 3.823-.725.234-3.59 1.319-4.314 1.553-.09.034-.034.168.067.134 1.393-.447 2.831-.749 4.225-1.173 1.426-.447 9.965-3.007 12.618-4.226.045-.033.023-.134-.044-.111z" fill="#263238"/><path d="M79.142 154.445c.022-.101-.134-.123-.156-.022a165.58 165.58 0 00-1.583 6.147c-.011-1.106.111-2.202.3-3.308.012-.045-.066-.056-.077-.011-.301 1.24-.38 2.537-.346 3.822a299.67 299.67 0 00-.97 4.315c-.78 3.667-1.605 7.344-2.174 11.055-.033.201.168.347.346.28.736-.269 1.46-.559 2.174-.884.078-.033.056-.167-.034-.145-.635.123-1.27.291-1.895.447.847-3.521 1.516-7.098 2.263-10.641a247.843 247.843 0 002.152-11.055zm15.8 5.097a96.579 96.579 0 00-.29-3.577c0-.022-.033-.022-.033 0 .022.883.067 1.755.122 2.638a87.368 87.368 0 00-1.27-5.097c-.012-.022-.045-.011-.045.011.356 2.627.858 5.243 1.27 7.858.413 2.571.859 5.131 1.316 7.702-.457.235-.925.469-1.405.693-.089.045-.033.168.056.145.546-.156 1.093-.313 1.65-.436.134-.033.245-.134.223-.279-.39-3.231-.914-6.461-1.594-9.658z" fill="#263238"/></svg>