<svg width="16" height="14" viewBox="0 0 16 14" fill="none" xmlns="http://www.w3.org/2000/svg"><path d="M15 6.5V2c-.02-.563-.219-1.031-.594-1.406S13.562.02 13 0H3c-.563.02-1.031.219-1.406.594S1.02 1.438 1 2v4.5c-.625.48-.958 1.146-1 2v5c.02.313.188.48.5.5.313-.02.48-.188.5-.5V12h14v1.5c.02.313.188.48.5.5.313-.02.48-.188.5-.5v-5c-.042-.854-.375-1.52-1-2zM13.5 6h-5V5c0-.292.094-.531.281-.719A.973.973 0 019.5 4H13c.292 0 .531.094.719.281A.974.974 0 0114 5v1.063A2.055 2.055 0 0013.5 6zM3 1h10c.292 0 .531.094.719.281A.974.974 0 0114 2v1.281A1.809 1.809 0 0013 3H9.5c-.625.02-1.125.25-1.5.688C7.625 3.25 7.125 3.02 6.5 3H3c-.375 0-.708.094-1 .281V2c0-.292.094-.531.281-.719A.973.973 0 013 1zM2 5c0-.292.094-.531.281-.719A.973.973 0 013 4h3.5c.292 0 .531.094.719.281A.973.973 0 017.5 5v1h-5c-.167 0-.333.02-.5.063V5zm13 6H1V8.5c.02-.417.167-.77.438-1.063A1.63 1.63 0 012.5 7h11c.417.02.77.167 1.063.438.27.291.416.645.437 1.062V11z" fill="#6E777F"/></svg>