<svg width="50" height="50" viewBox="0 0 29 32" fill="none" xmlns="http://www.w3.org/2000/svg">
<path d="M11.0146 5.98598C12.6116 5.98598 13.9105 4.68629 13.9105 3.09006C13.9105 3.04762 13.9001 3.00868 13.8978 2.96699C17.2054 2.73881 20.4391 3.7364 23.0357 5.81976C28.7033 10.3637 29.616 18.6696 25.0721 24.3359C24.9423 24.4977 24.9685 24.7319 25.1288 24.8602C25.1982 24.9154 25.2801 24.9431 25.3622 24.9431C25.4711 24.9431 25.5799 24.8954 25.6546 24.803C30.4548 18.8164 29.49 10.039 23.5026 5.23808C20.737 3.01994 17.2908 1.96491 13.7645 2.22803C13.3948 1.0529 12.3091 0.193115 11.0139 0.193115C9.41687 0.193115 8.11719 1.4928 8.11719 3.0898C8.11769 4.68654 9.41738 5.98622 11.0146 5.98622V5.98598ZM11.0146 0.938772C12.2002 0.938772 13.1651 1.90369 13.1651 3.09C13.1651 4.2756 12.2002 5.24046 11.0146 5.24046C9.82833 5.24046 8.86341 4.27554 8.86341 3.09C8.86341 1.90293 9.82833 0.938772 11.0146 0.938772Z" fill="#EA5C0B"/>
<path d="M6.08931 26.9551C8.57958 28.9518 11.6218 30.0158 14.7767 30.0158C15.1249 30.0158 15.4759 29.9911 15.8272 29.9651C16.197 31.1403 17.2834 32.0001 18.5771 32.0001C20.1749 32.0001 21.4738 30.7011 21.4738 29.1034C21.4738 27.5056 20.1741 26.2082 18.5771 26.2082C16.9808 26.2082 15.6804 27.5071 15.6804 29.1034C15.6804 29.1458 15.6917 29.1848 15.6939 29.2272C12.3885 29.4546 9.1533 28.457 6.55598 26.3744C0.889159 21.8305 -0.0242511 13.5239 4.5196 7.85699C4.64866 7.69597 4.62245 7.46179 4.46218 7.33272C4.3019 7.2044 4.06698 7.23061 3.93791 7.39014C-0.863111 13.3768 0.10181 22.1535 6.08914 26.9551L6.08931 26.9551ZM18.5781 26.9521C19.7637 26.9521 20.7285 27.9177 20.7285 29.1033C20.7285 30.2889 19.7636 31.2545 18.5781 31.2545C17.391 31.2545 16.4268 30.2889 16.4268 29.1033C16.4271 27.9177 17.3912 26.9521 18.5781 26.9521Z" fill="#EA5C0B"/>
<path d="M11.0701 17.2929L11.6787 17.9015L11.983 17.5972C12.0548 17.5254 12.6835 16.8794 12.6835 16.1444C12.6835 15.4095 12.0548 14.7635 11.983 14.6917C11.8394 14.5481 11.5351 14.1462 11.5351 13.8476C11.5351 13.549 11.8667 13.1212 11.9844 13.0035L12.2872 12.6993L11.6786 12.0906L11.3743 12.3949C11.3026 12.4667 10.6738 13.1126 10.6738 13.8476C10.6738 14.5826 11.3025 15.2285 11.3743 15.3003C11.5179 15.4439 11.8222 15.8458 11.8222 16.1444C11.8222 16.443 11.4892 16.8708 11.3743 16.9886L11.0701 17.2929Z" fill="#EA5C0B"/>
<path d="M13.9417 17.2929L14.5503 17.9015L14.8546 17.5972C14.9264 17.5254 15.5551 16.8794 15.5551 16.1444C15.5551 15.4095 14.9264 14.7635 14.8546 14.6917C14.711 14.5481 14.4067 14.1462 14.4067 13.8476C14.4067 13.549 14.7383 13.1212 14.8559 13.0035L15.1588 12.6993L14.5502 12.0906L14.2459 12.3949C14.1741 12.4667 13.5454 13.1126 13.5454 13.8476C13.5454 14.5826 14.1741 15.2285 14.2459 15.3003C14.3895 15.4439 14.6938 15.8458 14.6938 16.1444C14.6938 16.443 14.3608 16.8708 14.2459 16.9886L13.9417 17.2929Z" fill="#EA5C0B"/>
<path d="M17.1171 15.3003C17.2606 15.4439 17.565 15.8458 17.565 16.1444C17.565 16.443 17.2319 16.8708 17.1171 16.9886L16.8128 17.2929L17.4214 17.9015L17.7256 17.5972C17.7974 17.5254 18.4262 16.8794 18.4262 16.1444C18.4262 15.4095 17.7975 14.7635 17.7256 14.6917C17.5821 14.5481 17.2777 14.1462 17.2777 13.8476C17.2777 13.549 17.6094 13.1212 17.727 13.0035L18.0299 12.6993L17.4213 12.0906L17.117 12.3949C17.0452 12.4667 16.4165 13.1126 16.4165 13.8476C16.4165 14.5826 17.0452 15.2286 17.117 15.3003H17.1171Z" fill="#EA5C0B"/>
<path d="M10.1001 19.3025H19.0002V20.1638H10.1001V19.3025Z" fill="#EA5C0B"/>
</svg>
