<svg width="50" height="50" viewBox="0 0 33 32" fill="none" xmlns="http://www.w3.org/2000/svg">
<path d="M4.96891 11.6197C3.76218 11.6197 2.78076 12.6011 2.78076 13.8078C2.78076 14.0286 2.95923 14.2071 3.18003 14.2071C3.40083 14.2071 3.5793 14.0286 3.5793 13.8078C3.5793 13.0413 4.2027 12.4179 4.96921 12.4179C5.19001 12.4179 5.36848 12.2394 5.36848 12.0186C5.3682 11.7981 5.18915 11.6197 4.96891 11.6197Z" fill="#EA5C0B"/>
<path d="M10.694 19.6277C9.44916 19.6277 8.43652 20.6403 8.43652 21.8852C8.43652 23.1301 9.44916 24.1427 10.694 24.1427C11.9389 24.1427 12.9515 23.1301 12.9515 21.8852C12.9518 20.6403 11.9392 19.6277 10.694 19.6277ZM10.694 23.3447C9.88937 23.3447 9.23476 22.6895 9.23476 21.8854C9.23476 21.081 9.8899 20.4261 10.694 20.4261C11.4984 20.4261 12.1533 21.0813 12.1533 21.8854C12.1536 22.6898 11.499 23.3447 10.694 23.3447Z" fill="#EA5C0B"/>
<path d="M27.7816 0.00927734C25.5946 0.00927734 23.7751 1.59463 23.4008 3.67587C22.8448 3.49851 22.4027 3.37099 22.1418 3.29776C22.2042 3.15687 22.1838 2.99204 22.0808 2.87455L20.8379 1.45342C20.8223 1.43476 20.8048 1.41722 20.7853 1.40163C20.7786 1.39606 20.7722 1.39133 20.7652 1.38604C20.6931 1.33425 20.6071 1.30195 20.5277 1.31086L11.9473 1.31114C11.866 1.31281 11.7791 1.33536 11.7068 1.38854C11.7023 1.39216 11.6984 1.39522 11.694 1.39856C11.6937 1.39856 11.6937 1.39884 11.6931 1.39884C11.6722 1.41555 11.6541 1.43393 11.6372 1.45341L10.3937 2.87455C10.286 2.99789 10.2665 3.17386 10.3405 3.3192C8.58896 3.80505 1.96685 5.81391 1.96685 8.43001V10.5867C1.96685 10.5876 1.96713 10.5878 1.96713 10.5887C0.951136 11.4452 0.303223 12.7251 0.303223 14.1548C0.303223 15.5845 0.951122 16.8642 1.96684 17.7209V25.3198C1.96684 25.4771 2.059 25.6196 2.20239 25.6837L6.17191 27.4678C6.17303 27.4681 6.17442 27.4681 6.17553 27.4686V29.5418C6.17553 29.7626 6.354 29.9411 6.5748 29.9411H18.1574C18.5753 31.1378 19.7124 32.0001 21.0497 32.0001C22.387 32.0001 23.5244 31.1378 23.9423 29.9411H25.9896C26.2104 29.9411 26.3889 29.7626 26.3889 29.5418V27.4686C26.39 27.4684 26.3914 27.4684 26.3925 27.4678L30.362 25.6837C30.5048 25.6193 30.5976 25.4765 30.5976 25.3198L30.5973 8.42982C30.5973 8.27641 30.568 8.12077 30.5243 7.96596C31.564 7.14991 32.2358 5.88502 32.2358 4.46388C32.2358 2.00759 30.2376 0.00931976 27.7816 0.00931976L27.7816 0.00927734ZM20.552 2.33863L21.2957 3.18897L18.361 8.4819L16.9407 7.03104L20.552 2.33863ZM11.9231 2.33863L15.5334 7.03069L14.114 8.48183L11.1794 3.1889L11.9231 2.33863ZM6.17548 26.5944L2.76499 25.0619V18.2652C3.42152 18.6186 4.17158 18.8202 4.96818 18.8202C5.3861 18.8202 5.78951 18.76 6.17519 18.6562L6.17548 26.5944ZM4.96847 18.0218C2.83627 18.0218 1.10137 16.2872 1.10137 14.1547C1.10137 12.0225 2.83598 10.2876 4.96847 10.2876C7.10066 10.2876 8.83556 12.0223 8.83556 14.1547C8.83556 16.2869 7.10038 18.0218 4.96847 18.0218ZM15.8825 29.1433H6.9735V18.3611C8.54325 17.6091 9.63301 16.0092 9.63301 14.1557C9.63301 11.5836 7.54037 9.49041 4.96768 9.49041C4.17137 9.49041 3.42131 9.69199 2.76449 10.0453V8.43074C2.76449 6.77631 7.59162 4.88104 10.7362 4.0394L13.6744 9.33817C13.7354 9.44788 13.8457 9.52333 13.9701 9.54003C13.9882 9.54254 14.0061 9.54365 14.0236 9.54365C14.1305 9.54365 14.2333 9.50105 14.309 9.42337L15.8815 7.81627V29.1432L15.8825 29.1433ZM12.7535 2.10983H19.7206L16.2372 6.63709L12.7535 2.10983ZM21.0495 31.2025C19.7991 31.2025 18.7821 30.1854 18.7821 28.935C18.7821 27.6846 19.7992 26.6669 21.0495 26.6669C22.3 26.6669 23.3176 27.6843 23.3176 28.935C23.3176 30.1854 22.2997 31.2025 21.0495 31.2025ZM29.7989 25.0623L26.3884 26.5947L26.3887 13.1881C26.3887 12.9673 26.2102 12.7889 25.9894 12.7889C25.7686 12.7889 25.5901 12.9673 25.5901 13.1881V29.1436H24.105C24.1097 29.0746 24.1153 29.0055 24.1153 28.9354C24.1153 27.245 22.7398 25.869 21.0489 25.869C19.358 25.869 17.9831 27.2444 17.9831 28.9354C17.9831 29.0055 17.9892 29.0746 17.9934 29.1436H16.6801L16.6803 7.9079L18.1643 9.42419C18.2526 9.51412 18.3762 9.557 18.5032 9.54085C18.6282 9.52414 18.7379 9.44897 18.7989 9.33899L21.7483 4.01933C21.9379 4.07056 22.5362 4.23595 23.3272 4.49238C23.342 6.93585 25.3333 8.91964 27.7806 8.91964C28.507 8.91964 29.1917 8.74117 29.7984 8.43156V25.0628L29.7989 25.0623ZM27.7811 8.12031C25.765 8.12031 24.1247 6.48064 24.1247 4.46455C24.125 2.44847 25.765 0.808228 27.7811 0.808228C29.7974 0.808228 31.4371 2.44847 31.4371 4.46455C31.4371 6.48064 29.7974 8.12031 27.7811 8.12031Z" fill="#EA5C0B"/>
<path d="M27.6656 2.0757C26.3489 2.0757 25.2778 3.14708 25.2778 4.4635C25.2778 4.6843 25.4563 4.86277 25.6771 4.86277C25.8979 4.86277 26.0764 4.6843 26.0764 4.4635C26.0764 3.587 26.7891 2.87394 27.6659 2.87394C27.8867 2.87394 28.0652 2.69547 28.0652 2.47467C28.0646 2.25416 27.8864 2.0757 27.6656 2.0757Z" fill="#EA5C0B"/>
</svg>
