<svg width="50" height="50" viewBox="0 0 50 50" fill="none" xmlns="http://www.w3.org/2000/svg">
<rect width="50" height="50" fill="white"/>
<path d="M21.0146 14.986C22.6116 14.986 23.9105 13.6863 23.9105 12.0901C23.9105 12.0476 23.9001 12.0087 23.8978 11.967C27.2054 11.7388 30.4391 12.7364 33.0357 14.8198C38.7033 19.3637 39.616 27.6696 35.0721 33.3359C34.9423 33.4977 34.9685 33.7319 35.1288 33.8602C35.1982 33.9154 35.2801 33.9431 35.3622 33.9431C35.4711 33.9431 35.5799 33.8954 35.6546 33.803C40.4548 27.8164 39.49 19.039 33.5026 14.2381C30.737 12.0199 27.2908 10.9649 23.7645 11.228C23.3948 10.0529 22.3091 9.19312 21.0139 9.19312C19.4169 9.19312 18.1172 10.4928 18.1172 12.0898C18.1177 13.6865 19.4174 14.9862 21.0146 14.9862V14.986ZM21.0146 9.93877C22.2002 9.93877 23.1651 10.9037 23.1651 12.09C23.1651 13.2756 22.2002 14.2405 21.0146 14.2405C19.8283 14.2405 18.8634 13.2755 18.8634 12.09C18.8634 10.9029 19.8283 9.93877 21.0146 9.93877Z" fill="#EA5C0B"/>
<path d="M16.0893 35.9551C18.5796 37.9518 21.6218 39.0158 24.7767 39.0158C25.1249 39.0158 25.4759 38.9911 25.8272 38.9651C26.197 40.1403 27.2834 41.0001 28.5771 41.0001C30.1749 41.0001 31.4738 39.7011 31.4738 38.1034C31.4738 36.5056 30.1741 35.2082 28.5771 35.2082C26.9808 35.2082 25.6804 36.5071 25.6804 38.1034C25.6804 38.1458 25.6917 38.1848 25.6939 38.2272C22.3885 38.4546 19.1533 37.457 16.556 35.3744C10.8892 30.8305 9.97575 22.5239 14.5196 16.857C14.6487 16.696 14.6225 16.4618 14.4622 16.3327C14.3019 16.2044 14.067 16.2306 13.9379 16.3901C9.13689 22.3768 10.1018 31.1535 16.0891 35.9551L16.0893 35.9551ZM28.5781 35.9521C29.7637 35.9521 30.7285 36.9177 30.7285 38.1033C30.7285 39.2889 29.7636 40.2545 28.5781 40.2545C27.391 40.2545 26.4268 39.2889 26.4268 38.1033C26.4271 36.9177 27.3912 35.9521 28.5781 35.9521Z" fill="#EA5C0B"/>
<path d="M21.0701 26.2929L21.6787 26.9015L21.983 26.5972C22.0548 26.5254 22.6835 25.8794 22.6835 25.1444C22.6835 24.4095 22.0548 23.7635 21.983 23.6917C21.8394 23.5481 21.5351 23.1462 21.5351 22.8476C21.5351 22.549 21.8667 22.1212 21.9844 22.0035L22.2872 21.6993L21.6786 21.0906L21.3743 21.3949C21.3026 21.4667 20.6738 22.1126 20.6738 22.8476C20.6738 23.5826 21.3025 24.2285 21.3743 24.3003C21.5179 24.4439 21.8222 24.8458 21.8222 25.1444C21.8222 25.443 21.4892 25.8708 21.3743 25.9886L21.0701 26.2929Z" fill="#EA5C0B"/>
<path d="M23.9417 26.2929L24.5503 26.9015L24.8546 26.5972C24.9264 26.5254 25.5551 25.8794 25.5551 25.1444C25.5551 24.4095 24.9264 23.7635 24.8546 23.6917C24.711 23.5481 24.4067 23.1462 24.4067 22.8476C24.4067 22.549 24.7383 22.1212 24.8559 22.0035L25.1588 21.6993L24.5502 21.0906L24.2459 21.3949C24.1741 21.4667 23.5454 22.1126 23.5454 22.8476C23.5454 23.5826 24.1741 24.2285 24.2459 24.3003C24.3895 24.4439 24.6938 24.8458 24.6938 25.1444C24.6938 25.443 24.3608 25.8708 24.2459 25.9886L23.9417 26.2929Z" fill="#EA5C0B"/>
<path d="M27.1171 24.3003C27.2606 24.4439 27.565 24.8458 27.565 25.1444C27.565 25.443 27.2319 25.8708 27.1171 25.9886L26.8128 26.2929L27.4214 26.9015L27.7256 26.5972C27.7974 26.5254 28.4262 25.8794 28.4262 25.1444C28.4262 24.4095 27.7975 23.7635 27.7256 23.6917C27.5821 23.5481 27.2777 23.1462 27.2777 22.8476C27.2777 22.549 27.6094 22.1212 27.727 22.0035L28.0299 21.6993L27.4213 21.0906L27.117 21.3949C27.0452 21.4667 26.4165 22.1126 26.4165 22.8476C26.4165 23.5826 27.0452 24.2286 27.117 24.3003H27.1171Z" fill="#EA5C0B"/>
<path d="M20.1001 28.3025H29.0002V29.1638H20.1001V28.3025Z" fill="#EA5C0B"/>
</svg>
