<svg width="50" height="50" viewBox="0 0 50 50" fill="none" xmlns="http://www.w3.org/2000/svg">
<rect width="50" height="50" fill="white"/>
<path d="M13.9689 20.6197C12.7622 20.6197 11.7808 21.6011 11.7808 22.8078C11.7808 23.0286 11.9592 23.2071 12.18 23.2071C12.4008 23.2071 12.5793 23.0286 12.5793 22.8078C12.5793 22.0413 13.2027 21.4179 13.9692 21.4179C14.19 21.4179 14.3685 21.2394 14.3685 21.0186C14.3682 20.7981 14.1892 20.6197 13.9689 20.6197Z" fill="#EA5C0B"/>
<path d="M19.694 28.6277C18.4492 28.6277 17.4365 29.6403 17.4365 30.8852C17.4365 32.1301 18.4492 33.1427 19.694 33.1427C20.9389 33.1427 21.9515 32.1301 21.9515 30.8852C21.9518 29.6403 20.9392 28.6277 19.694 28.6277ZM19.694 32.3447C18.8894 32.3447 18.2348 31.6895 18.2348 30.8854C18.2348 30.081 18.8899 29.4261 19.694 29.4261C20.4984 29.4261 21.1533 30.0813 21.1533 30.8854C21.1536 31.6898 20.499 32.3447 19.694 32.3447Z" fill="#EA5C0B"/>
<path d="M36.7816 9.00928C34.5946 9.00928 32.7751 10.5946 32.4008 12.6759C31.8448 12.4985 31.4027 12.371 31.1418 12.2978C31.2042 12.1569 31.1838 11.992 31.0808 11.8746L29.8379 10.4534C29.8223 10.4348 29.8048 10.4172 29.7853 10.4016C29.7786 10.3961 29.7722 10.3913 29.7652 10.386C29.6931 10.3343 29.6071 10.302 29.5277 10.3109L20.9473 10.3111C20.866 10.3128 20.7791 10.3354 20.7068 10.3885C20.7023 10.3922 20.6984 10.3952 20.694 10.3986C20.6937 10.3986 20.6937 10.3988 20.6931 10.3988C20.6722 10.4155 20.6541 10.4339 20.6372 10.4534L19.3937 11.8745C19.286 11.9979 19.2665 12.1739 19.3405 12.3192C17.589 12.8051 10.9668 14.8139 10.9668 17.43V19.5867C10.9668 19.5876 10.9671 19.5878 10.9671 19.5887C9.95114 20.4452 9.30322 21.7251 9.30322 23.1548C9.30322 24.5845 9.95112 25.8642 10.9668 26.7209V34.3198C10.9668 34.4771 11.059 34.6196 11.2024 34.6837L15.1719 36.4678C15.173 36.4681 15.1744 36.4681 15.1755 36.4686V38.5418C15.1755 38.7626 15.354 38.9411 15.5748 38.9411H27.1574C27.5753 40.1378 28.7124 41.0001 30.0497 41.0001C31.387 41.0001 32.5244 40.1378 32.9423 38.9411H34.9896C35.2104 38.9411 35.3889 38.7626 35.3889 38.5418V36.4686C35.39 36.4684 35.3914 36.4684 35.3925 36.4678L39.362 34.6837C39.5048 34.6193 39.5976 34.4765 39.5976 34.3198L39.5973 17.4298C39.5973 17.2764 39.568 17.1208 39.5243 16.966C40.564 16.1499 41.2358 14.885 41.2358 13.4639C41.2358 11.0076 39.2376 9.00932 36.7816 9.00932L36.7816 9.00928ZM29.552 11.3386L30.2957 12.189L27.361 17.4819L25.9407 16.031L29.552 11.3386ZM20.9231 11.3386L24.5334 16.0307L23.114 17.4818L20.1794 12.1889L20.9231 11.3386ZM15.1755 35.5944L11.765 34.0619V27.2652C12.4215 27.6186 13.1716 27.8202 13.9682 27.8202C14.3861 27.8202 14.7895 27.76 15.1752 27.6562L15.1755 35.5944ZM13.9685 27.0218C11.8363 27.0218 10.1014 25.2872 10.1014 23.1547C10.1014 21.0225 11.836 19.2876 13.9685 19.2876C16.1007 19.2876 17.8356 21.0223 17.8356 23.1547C17.8356 25.2869 16.1004 27.0218 13.9685 27.0218ZM24.8825 38.1433H15.9735V27.3611C17.5432 26.6091 18.633 25.0092 18.633 23.1557C18.633 20.5836 16.5404 18.4904 13.9677 18.4904C13.1714 18.4904 12.4213 18.692 11.7645 19.0453V17.4307C11.7645 15.7763 16.5916 13.881 19.7362 13.0394L22.6744 18.3382C22.7354 18.4479 22.8457 18.5233 22.9701 18.54C22.9882 18.5425 23.0061 18.5436 23.0236 18.5436C23.1305 18.5436 23.2333 18.501 23.309 18.4234L24.8815 16.8163V38.1432L24.8825 38.1433ZM21.7535 11.1098H28.7206L25.2372 15.6371L21.7535 11.1098ZM30.0495 40.2025C28.7991 40.2025 27.7821 39.1854 27.7821 37.935C27.7821 36.6846 28.7992 35.6669 30.0495 35.6669C31.3 35.6669 32.3176 36.6843 32.3176 37.935C32.3176 39.1854 31.2997 40.2025 30.0495 40.2025ZM38.7989 34.0623L35.3884 35.5947L35.3887 22.1881C35.3887 21.9673 35.2102 21.7889 34.9894 21.7889C34.7686 21.7889 34.5901 21.9673 34.5901 22.1881V38.1436H33.105C33.1097 38.0746 33.1153 38.0055 33.1153 37.9354C33.1153 36.245 31.7398 34.869 30.0489 34.869C28.358 34.869 26.9831 36.2444 26.9831 37.9354C26.9831 38.0055 26.9892 38.0746 26.9934 38.1436H25.6801L25.6803 16.9079L27.1643 18.4242C27.2526 18.5141 27.3762 18.557 27.5032 18.5408C27.6282 18.5241 27.7379 18.449 27.7989 18.339L30.7483 13.0193C30.9379 13.0706 31.5362 13.236 32.3272 13.4924C32.342 15.9358 34.3333 17.9196 36.7806 17.9196C37.507 17.9196 38.1917 17.7412 38.7984 17.4316V34.0628L38.7989 34.0623ZM36.7811 17.1203C34.765 17.1203 33.1247 15.4806 33.1247 13.4646C33.125 11.4485 34.765 9.80823 36.7811 9.80823C38.7974 9.80823 40.4371 11.4485 40.4371 13.4646C40.4371 15.4806 38.7974 17.1203 36.7811 17.1203Z" fill="#EA5C0B"/>
<path d="M36.6656 11.0757C35.3489 11.0757 34.2778 12.1471 34.2778 13.4635C34.2778 13.6843 34.4563 13.8628 34.6771 13.8628C34.8979 13.8628 35.0764 13.6843 35.0764 13.4635C35.0764 12.587 35.7891 11.8739 36.6659 11.8739C36.8867 11.8739 37.0652 11.6955 37.0652 11.4747C37.0646 11.2542 36.8864 11.0757 36.6656 11.0757Z" fill="#EA5C0B"/>
</svg>
