<svg width="50" height="50" viewBox="0 0 50 50" fill="none" xmlns="http://www.w3.org/2000/svg">
<rect width="50" height="50" fill="white"/>
<path d="M37.6643 23.1596C36.5497 21.316 34.9053 19.1501 32.7316 16.662C30.3604 13.9527 27.9934 11.5364 25.6305 9.41316C25.3225 9.13781 24.9255 9 24.439 9L24.3675 9.0186C24.3438 9.01755 24.3201 9.01755 24.2959 9.0186C23.8786 9.05973 23.5531 9.19125 23.3191 9.41316L23.2951 9.43176C20.9441 11.5468 18.5771 13.9569 16.194 16.6618C14.0528 19.1368 12.3924 21.3216 11.2137 23.2158C10.0231 25.1553 9.34007 26.7075 9.16428 27.8731C8.9837 29.0261 8.95204 30.0466 9.06907 30.9342V30.9531C9.44858 33.5444 10.9419 35.7855 13.5491 37.6761C16.5682 39.8917 20.2142 40.9997 24.4868 41C28.7593 40.9997 32.4049 39.8918 35.4245 37.6761C38.4768 35.4589 40.002 32.7609 39.9999 29.5822C40.0092 27.8088 39.2308 25.6678 37.6646 23.1595M31.7548 17.1877C33.8862 19.6323 35.4986 21.7608 36.5922 23.5727C38.0603 25.9219 38.7991 27.9251 38.8084 29.5822C38.8061 32.4879 37.4082 34.9543 34.6143 36.9813C31.8191 39.0347 28.4434 40.0615 24.4868 40.061C20.5303 40.0615 17.1542 39.0347 14.3593 36.9813C11.9812 35.2558 10.615 33.2089 10.2607 30.8403C10.1557 30.0088 10.1876 29.0572 10.3559 27.9859C10.5299 26.8978 11.1732 25.4456 12.2863 23.629C13.4426 21.7676 15.071 19.6203 17.1713 17.1877C19.5343 14.5133 21.8856 12.1284 24.2248 10.0328C24.283 9.99113 24.3546 9.96597 24.4394 9.95759H24.3679L24.4394 9.93899C24.5567 9.93873 24.6519 9.9699 24.7253 10.0328C27.0646 12.1284 29.4077 14.5133 31.755 17.1877M31.8502 22.9156C31.5167 22.6525 31.1433 22.521 30.7303 22.521H18.2675C17.8069 22.521 17.4258 22.6525 17.1239 22.9156C17.1079 22.9279 17.092 22.9405 17.076 22.953C16.8061 23.241 16.6869 23.5478 16.7186 23.8732L16.7425 23.9109L18.6489 34.4461H18.6249C18.6728 34.7466 18.8555 34.9971 19.1731 35.1972H19.1494C19.4353 35.3977 19.7768 35.4977 20.1739 35.4977H28.8001C29.1812 35.4977 29.515 35.3977 29.8009 35.1972C29.8009 35.1847 29.8089 35.1786 29.8245 35.1786C29.8724 35.1409 29.9121 35.1097 29.9437 35.0846C29.9597 35.072 29.9756 35.0597 29.9916 35.0471C30.1612 34.8645 30.2647 34.6641 30.3011 34.4461L32.2315 23.9109V23.9295C32.311 23.5789 32.1998 23.2536 31.898 22.953C31.882 22.9279 31.866 22.9156 31.8501 22.9156M31.0639 23.7605V23.7794L30.4203 27.291L30.349 27.3099L28.5855 27.5163H28.5619C28.3393 27.5289 28.1249 27.5289 27.9182 27.5163H27.8946C27.0842 27.4915 26.3217 27.3474 25.6068 27.0843C24.5425 26.6714 23.4225 26.4335 22.247 26.3709H22.1991H22.1515C21.7069 26.3458 21.2619 26.3458 20.8172 26.3709C19.7369 26.4458 18.9425 26.5399 18.4343 26.6525L17.9098 23.7793C17.9098 23.6915 17.9417 23.6166 18.0053 23.554C18.0689 23.4914 18.1561 23.4599 18.2673 23.4599H30.73C30.8096 23.4599 30.8891 23.4851 30.9683 23.5351C31.0319 23.6103 31.0638 23.6853 31.0638 23.7604M18.601 27.5538L20.2451 27.3474C21.0236 27.2596 21.7781 27.241 22.5089 27.291C23.2238 27.3411 24.0818 27.5478 25.0826 27.9106C26.0833 28.2612 27.0048 28.4427 27.8469 28.4553C28.1009 28.4679 28.3472 28.4679 28.5855 28.4553H28.6331C28.7445 28.4553 28.8714 28.449 29.0145 28.4365H29.0384C29.4036 28.3864 29.8009 28.349 30.2299 28.3238L29.1336 34.3144L29.1097 34.3333C29.1097 34.3708 29.094 34.4148 29.062 34.4648C29.0304 34.4774 29.0065 34.496 28.9905 34.5211V34.5023C28.9269 34.5397 28.8636 34.5586 28.8001 34.5586H20.1738C20.0946 34.5586 20.023 34.5397 19.9595 34.5023C19.9595 34.4897 19.9515 34.4834 19.9355 34.4834C19.872 34.4334 19.8324 34.377 19.8164 34.3144L18.601 27.5538Z" fill="#EA5C0B"/>
</svg>
