<svg width="50" height="50" viewBox="0 0 50 50" fill="none" xmlns="http://www.w3.org/2000/svg">
<rect width="50" height="50" fill="white"/>
<path fill-rule="evenodd" clip-rule="evenodd" d="M8.81939 33.1248L7.64264 35.1293C7.48293 35.4006 7.56957 35.7549 7.83625 35.9181C8.10168 36.0814 8.44822 35.9928 8.60793 35.7202L10.1312 33.1248H39.8691L41.3924 35.7202C41.5521 35.9928 41.8986 36.0814 42.164 35.9181C42.4307 35.7549 42.5174 35.4006 42.3577 35.1293L41.1809 33.1248H42.4375C42.7479 33.1248 43 32.8671 43 32.5498V13.575C43 13.2577 42.7479 13 42.4375 13H7.5625C7.25212 13 7 13.2577 7 13.575V32.5498C7 32.8671 7.25212 33.1248 7.5625 33.1248H8.81939ZM41.8751 14.15V31.9748H8.1251V14.15H41.8751Z" fill="#EA5C0B"/>
</svg>
