<svg width="50" height="50" viewBox="0 0 31 32" fill="none" xmlns="http://www.w3.org/2000/svg">
<path d="M28.6643 14.1596C27.5497 12.316 25.9053 10.1501 23.7316 7.66201C21.3604 4.95274 18.9934 2.53644 16.6305 0.41316C16.3225 0.137807 15.9255 0 15.439 0L15.3675 0.018601C15.3438 0.017553 15.3201 0.017553 15.2959 0.018601C14.8786 0.0597332 14.5531 0.191251 14.3191 0.413156L14.2951 0.431757C11.9441 2.54679 9.5771 4.95685 7.19395 7.66182C5.05278 10.1368 3.39241 12.3216 2.21374 14.2158C1.02309 16.1553 0.340068 17.7075 0.164275 18.8731C-0.0163041 20.0261 -0.0479563 21.0466 0.0690666 21.9342V21.9531C0.448581 24.5444 1.94192 26.7855 4.54906 28.6761C7.56818 30.8917 11.2142 31.9997 15.4868 32C19.7593 31.9997 23.4049 30.8918 26.4245 28.6761C29.4768 26.4589 31.002 23.7609 30.9999 20.5822C31.0092 18.8088 30.2308 16.6678 28.6646 14.1595M22.7548 8.18773C24.8862 10.6323 26.4986 12.7608 27.5922 14.5727C29.0603 16.9219 29.7991 18.9251 29.8084 20.5822C29.8061 23.4879 28.4082 25.9543 25.6143 27.9813C22.8191 30.0347 19.4434 31.0615 15.4868 31.061C11.5303 31.0615 8.15418 30.0347 5.35933 27.9813C2.98116 26.2558 1.61498 24.2089 1.26074 21.8403C1.15569 21.0088 1.18761 20.0572 1.35595 18.9859C1.52988 17.8978 2.17323 16.4456 3.28627 14.629C4.44261 12.7676 6.07104 10.6203 8.1713 8.18773C10.5343 5.51334 12.8856 3.12843 15.2248 1.03278C15.283 0.991126 15.3546 0.965974 15.4394 0.95759H15.3679L15.4394 0.938989C15.5567 0.938727 15.6519 0.969904 15.7253 1.03278C18.0646 3.12842 20.4077 5.51334 22.755 8.18773M22.8502 13.9156C22.5167 13.6525 22.1433 13.521 21.7303 13.521H9.26751C8.80688 13.521 8.42579 13.6525 8.1239 13.9156C8.10795 13.9279 8.09199 13.9405 8.07603 13.953C7.80609 14.241 7.68695 14.5478 7.71859 14.8732L7.74253 14.9109L9.64888 25.4461H9.62494C9.67282 25.7466 9.85553 25.9971 10.1731 26.1972H10.1494C10.4353 26.3977 10.7768 26.4977 11.1739 26.4977H19.8001C20.1812 26.4977 20.515 26.3977 20.8009 26.1972C20.8009 26.1847 20.8089 26.1786 20.8245 26.1786C20.8724 26.1409 20.9121 26.1097 20.9437 26.0846C20.9597 26.072 20.9756 26.0597 20.9916 26.0471C21.1612 25.8645 21.2647 25.6641 21.3011 25.4461L23.2315 14.9109V14.9295C23.311 14.5789 23.1998 14.2536 22.898 13.953C22.882 13.9279 22.866 13.9156 22.8501 13.9156M22.0639 14.7605V14.7794L21.4203 18.291L21.349 18.3099L19.5855 18.5163H19.5619C19.3393 18.5289 19.1249 18.5289 18.9182 18.5163H18.8946C18.0842 18.4915 17.3217 18.3474 16.6068 18.0843C15.5425 17.6714 14.4225 17.4335 13.247 17.3709H13.1991H13.1515C12.7069 17.3458 12.2619 17.3458 11.8172 17.3709C10.7369 17.4458 9.94253 17.5399 9.43428 17.6525L8.90982 14.7793C8.90982 14.6915 8.94174 14.6166 9.0053 14.554C9.06886 14.4914 9.15609 14.4599 9.26726 14.4599H21.73C21.8096 14.4599 21.8891 14.4851 21.9683 14.5351C22.0319 14.6103 22.0638 14.6853 22.0638 14.7604M9.60103 18.5538L11.2451 18.3474C12.0236 18.2596 12.7781 18.241 13.5089 18.291C14.2238 18.3411 15.0818 18.5478 16.0826 18.9106C17.0833 19.2612 18.0048 19.4427 18.8469 19.4553C19.1009 19.4679 19.3472 19.4679 19.5855 19.4553H19.6331C19.7445 19.4553 19.8714 19.449 20.0145 19.4365H20.0384C20.4036 19.3864 20.8009 19.349 21.2299 19.3238L20.1336 25.3144L20.1097 25.3333C20.1097 25.3708 20.094 25.4148 20.062 25.4648C20.0304 25.4774 20.0065 25.496 19.9905 25.5211V25.5023C19.9269 25.5397 19.8636 25.5586 19.8001 25.5586H11.1738C11.0946 25.5586 11.023 25.5397 10.9595 25.5023C10.9595 25.4897 10.9515 25.4834 10.9355 25.4834C10.872 25.4334 10.8324 25.377 10.8164 25.3144L9.60103 18.5538Z" fill="#EA5C0B"/>
</svg>
