<svg width="119" height="66" viewBox="0 0 119 66" fill="none" xmlns="http://www.w3.org/2000/svg"><path d="M32.834 20.737l9.205-4.956V60c-3.068-1.787-6.137-3.57-9.205-5.357v-9.377l-6.56-3.817-6.56 3.817v9.377c-3.067 1.786-6.136 3.57-9.204 5.357V31.7l9.207-4.491-.002 11.248-3.069 1.617v-8.05l-3.06 2.005v20.614l3.06-1.783v-9.383c3.274-1.905 6.378-3.771 9.628-5.602l9.628 5.602v9.383l3.061 1.783V22.666l-3.061 1.782v15.626l-3.068-1.617c0-4.317.002-13.404 0-17.72z" fill="#DA3C3C"/><path d="M24.022 46.503a.988.988 0 111.977 0v.036a.988.988 0 11-1.977 0v-.036zm2.526 2.562a.989.989 0 111.978 0v.035a.989.989 0 01-1.978 0v-.035zm-2.526 0a.989.989 0 111.977 0v.035a.989.989 0 11-1.977 0v-.035zm2.526-2.562a.989.989 0 111.978 0v.035a.989.989 0 01-1.978 0v-.035zM3.911 26.805L60 4.11 1.974 32.853l1.937-6.048zm26.016 3.241a2.02 2.02 0 00-2.887 0l-.772.784a2.011 2.011 0 00-2.78.097l-.968.983.101.102a2.02 2.02 0 002.887 0l.772-.784a2.011 2.011 0 002.78-.097l.967-.983-.1-.102zm-4.62 1.762a1.738 1.738 0 01-2.379.097l.762-.774a1.733 1.733 0 011.242-.523c.422 0 .82.15 1.138.424l-.763.776zm3.552-.88a1.733 1.733 0 01-1.242.522c-.422 0-.82-.15-1.138-.424l.763-.774a1.738 1.738 0 012.38-.097l-.763.772z" fill="#DA3C3C"/><path opacity=".3" d="M24.932 30.587c-.475 0-.922.188-1.257.529l-.78.791.018.016a1.762 1.762 0 002.41-.099l.779-.792-.018-.015a1.756 1.756 0 00-1.152-.43zm.375 1.22a1.738 1.738 0 01-2.379.098l.762-.774a1.733 1.733 0 011.242-.523c.422 0 .82.15 1.138.424l-.763.776zm3.178-2.1c-.476 0-.922.186-1.258.527l-.78.792.018.015a1.762 1.762 0 002.41-.1l.779-.791-.018-.016a1.768 1.768 0 00-1.151-.428zm.374 1.22a1.733 1.733 0 01-1.242.523c-.422 0-.82-.15-1.138-.424l.763-.774a1.738 1.738 0 012.38-.097l-.763.772zm1.067-.881a2.02 2.02 0 00-2.886 0l-.772.784a2.011 2.011 0 00-2.78.097l-.968.983.101.102a2.02 2.02 0 002.887 0l.772-.784a2.011 2.011 0 002.78-.097l.967-.983-.1-.102zm-.881 1.07a1.991 1.991 0 01-2.752.096l-.015-.014-.785.798a1.99 1.99 0 01-1.428.6 1.99 1.99 0 01-1.428-.6l-.085-.086.952-.967a1.991 1.991 0 012.752-.096l.015.014.786-.798c.38-.387.888-.6 1.428-.6.54 0 1.047.213 1.428.6l.084.085-.952.968z" fill="#DA3C3C"/><path d="M29.612 30.57a.612.612 0 00-.214-.19l-.539.547c-.17.173-.37.307-.589.395.07.082.166.146.271.19a1.97 1.97 0 00.519-.38l.552-.562zm-3.504.831a.514.514 0 00-.07-.335l-.73.741c-.263.267-.589.43-.93.491-.035.1-.064.203-.089.305.445-.05.878-.246 1.219-.592l.6-.61zm-3.135.049c.068.068.144.127.226.18l.49-.499c.207-.21.457-.361.73-.446a1.13 1.13 0 00-.231-.223 2.03 2.03 0 00-.699.464l-.516.524zm4.068-1.404l-.395.4c.081.046.191.05.287.04l.09-.015.219-.221a1.73 1.73 0 011.086-.513l.098-.294a2.02 2.02 0 00-1.385.603z" fill="#DA3C3C"/><path d="M27.242 27.32l-.1-.103-.968.983a2.097 2.097 0 00-.096 2.823l-.772.785a2.097 2.097 0 000 2.93l.1.103.968-.982c.762-.774.793-2.01.096-2.824l.772-.784a2.097 2.097 0 000-2.931zm-1.068 6.334l-.762.773a1.807 1.807 0 01.096-2.416l.762-.774c.588.7.555 1.756-.096 2.417zm.105-2.833a1.805 1.805 0 01.097-2.416l.762-.774c.586.7.555 1.755-.098 2.416l-.761.774z" fill="#DA3C3C"/><path opacity=".3" d="M26.272 31.204l-.78.792a1.835 1.835 0 00-.097 2.447l.016.018.78-.792c.65-.661.693-1.736.096-2.447l-.015-.018zm-.098 2.45l-.762.773a1.807 1.807 0 01.096-2.416l.762-.774c.588.7.555 1.756-.096 2.417zm.98-6.038l-.015-.018-.78.792a1.835 1.835 0 00-.097 2.446l.015.018.78-.791c.65-.661.694-1.736.097-2.447zm-.112 2.43l-.762.774a1.805 1.805 0 01.097-2.416l.762-.774c.585.7.554 1.755-.097 2.416zm.2-2.726l-.1-.103-.968.983a2.097 2.097 0 00-.096 2.823l-.772.785a2.097 2.097 0 000 2.93l.1.103.968-.982c.762-.774.793-2.01.096-2.824l.772-.784a2.097 2.097 0 000-2.931zm-.8 3.714l.013.015a2.077 2.077 0 01-.095 2.793l-.952.967-.084-.086c-.788-.8-.788-2.1 0-2.899l.785-.798-.013-.015a2.078 2.078 0 01.094-2.793l.953-.967.084.085c.787.8.787 2.1 0 2.9l-.786.798z" fill="#DA3C3C"/><path d="M26.797 33.232a.742.742 0 00-.217-.225 1.768 1.768 0 01-.405.646l-.496.504a.601.601 0 00.213.193l.485-.492c.181-.187.32-.4.42-.626zm-1.053-4.384c.019.015.035.033.055.047.058.047.119.089.183.126.086-.225.216-.437.395-.619l.505-.512a.838.838 0 00-.234-.172l-.472.48a2.057 2.057 0 00-.432.65z" fill="#DA3C3C"/><path d="M27.242 31.808l-.772-.785a2.097 2.097 0 00-.096-2.823l-.967-.983-.101.103a2.097 2.097 0 000 2.931l.772.784a2.097 2.097 0 00.096 2.824l.967.982.101-.102a2.097 2.097 0 000-2.931zm-1.83-4.178l.762.774c.65.66.684 1.716.097 2.416l-.762-.774a1.805 1.805 0 01-.097-2.416zm1.726 6.799l-.762-.774a1.807 1.807 0 01-.098-2.416l.763.774c.652.66.683 1.715.097 2.416z" fill="#DA3C3C"/><path opacity=".3" d="M26.287 30.835a1.838 1.838 0 00-.097-2.447l-.78-.792-.015.018a1.838 1.838 0 00.098 2.447l.78.792.014-.018zm-.78-.789a1.805 1.805 0 01-.095-2.416l.762.774c.65.66.684 1.716.097 2.416l-.763-.774zm1.735 1.762l-.772-.785a2.097 2.097 0 00-.096-2.823l-.967-.983-.101.103a2.097 2.097 0 000 2.931l.772.784a2.097 2.097 0 00.096 2.824l.967.982.101-.102a2.097 2.097 0 000-2.931zm-.015 2.914l-.084.086-.953-.967a2.079 2.079 0 01-.094-2.793l.014-.016-.786-.798c-.788-.8-.788-2.1 0-2.899l.084-.086.952.968c.746.757.788 1.984.095 2.792l-.014.016.786.798c.787.8.787 2.1 0 2.899zm-.17-2.726l-.78-.792-.015.018a1.838 1.838 0 00.097 2.447l.78.792.015-.018a1.835 1.835 0 00-.097-2.447zm.08 2.433l-.761-.774a1.807 1.807 0 01-.098-2.416l.763.774c.652.66.683 1.715.097 2.416z" fill="#DA3C3C"/><path d="M27.242 31.808l-.225-.228a.488.488 0 00-.248.155l.273.276c.39.396.556.934.502 1.452a.518.518 0 00.286-.01 2.086 2.086 0 00-.588-1.645zm-1.935-1.558l.427.434c.1-.022-.056-.465-.056-.465l-.17-.173a1.78 1.78 0 01-.472-.874 2.393 2.393 0 00-.306-.116c.056.438.248.86.577 1.195z" fill="#DA3C3C"/><path d="M29.06 30.927a2.011 2.011 0 00-2.78-.097l-.772-.784a2.02 2.02 0 00-2.887 0l-.1.102.967.983a2.011 2.011 0 002.78.097l.772.784a2.02 2.02 0 002.887 0l.1-.102-.967-.983zm-4.128.522c-.469 0-.91-.186-1.242-.523l-.762-.774a1.739 1.739 0 012.38.098l.762.773a1.72 1.72 0 01-1.138.426zm2.31.358l-.763-.773a1.73 1.73 0 011.138-.424c.469 0 .91.185 1.242.522l.762.774a1.739 1.739 0 01-2.379-.098z" fill="#DA3C3C"/><path opacity=".3" d="M29.06 30.927a2.011 2.011 0 00-2.78-.097l-.772-.784a2.02 2.02 0 00-2.887 0l-.1.102.967.983a2.011 2.011 0 002.78.097l.772.784a2.02 2.02 0 002.887 0l.1-.102-.967-.983zm.851 1.069c-.38.387-.888.6-1.428.6a1.99 1.99 0 01-1.428-.6l-.785-.798-.016.014a1.996 1.996 0 01-2.75-.096l-.953-.968.084-.085a1.99 1.99 0 011.428-.6c.54 0 1.047.213 1.428.6l.786.798.015-.014a1.996 1.996 0 012.752.096l.952.967-.085.086zm-5.847-2.29c-.422 0-.83.153-1.151.43l-.018.015.78.792a1.762 1.762 0 002.41.1l.017-.016-.78-.792a1.754 1.754 0 00-1.258-.529zm.868 1.743c-.469 0-.91-.186-1.242-.523l-.762-.774a1.739 1.739 0 012.38.098l.762.773a1.72 1.72 0 01-1.138.426zm2.685-.862a1.76 1.76 0 00-1.152.429l-.018.015.78.792a1.763 1.763 0 002.41.099l.017-.016-.78-.792a1.752 1.752 0 00-1.257-.527zm-.375 1.22l-.763-.773a1.73 1.73 0 011.138-.424c.469 0 .91.185 1.242.522l.762.774a1.739 1.739 0 01-2.379-.098z" fill="#DA3C3C"/><path d="M24.143 34.764a.341.341 0 01-.337-.292c-.064-.419-.012-.787.155-1.094a1.496 1.496 0 01-.745.184c-.108 0-.216-.008-.33-.026a.342.342 0 01-.232-.151.353.353 0 01-.045-.279.342.342 0 01.46-.235c.336.14.635.212.886.212.222 0 .324-.058.325-.058l.072-.043-.041.073c-.003.004-.2.367.15 1.231a.348.348 0 01-.318.478zm4.264 0a.346.346 0 01-.318-.477c.35-.865.152-1.228.15-1.23l-.042-.074.072.043c.001 0 .102.059.326.059.25 0 .55-.072.886-.213a.341.341 0 01.46.236.359.359 0 01-.046.278.342.342 0 01-.23.15 2.143 2.143 0 01-.331.028c-.278 0-.527-.062-.746-.185.168.308.22.675.155 1.094a.338.338 0 01-.336.291zm1.204-5.553a.345.345 0 01-.128-.026c-.337-.14-.636-.213-.887-.213-.222 0-.324.06-.326.06l-.072.041.042-.073c.003-.003.2-.366-.15-1.23a.348.348 0 01.318-.477c.169 0 .31.123.337.292.064.419.012.787-.155 1.094a1.5 1.5 0 01.745-.184c.107 0 .216.008.332.026a.34.34 0 01.23.151c.054.082.07.184.046.279a.344.344 0 01-.332.26zm-6.673 0a.341.341 0 01-.33-.262.359.359 0 01.045-.278.342.342 0 01.231-.15c.116-.019.224-.028.332-.028.277 0 .527.062.745.185-.167-.308-.22-.675-.155-1.094a.341.341 0 01.643-.102c.045.09.048.194.012.286-.352.87-.153 1.229-.15 1.231l.043.073-.074-.042s-.102-.059-.325-.059c-.251 0-.55.072-.887.213a.311.311 0 01-.13.027z" fill="#DA3C3C"/><path d="M28.241 29.002l-.041.073.072-.042s.102-.06.325-.06c.25 0 .55.072.887.213a.341.341 0 00.46-.236.36.36 0 00-.046-.277.342.342 0 00-.231-.152 2.157 2.157 0 00-.332-.027c-.278 0-.527.062-.746.185.168-.307.22-.675.155-1.094a.341.341 0 00-.643-.101.352.352 0 00-.011.285c.35.868.152 1.229.151 1.233zm.086-1.677a.32.32 0 01.395.262c.044.289.064.741-.196 1.155.408-.264.853-.245 1.137-.199.185.03.305.215.258.401a.318.318 0 01-.43.22c-.875-.365-1.232-.15-1.232-.15s.21-.362-.149-1.252a.326.326 0 01.217-.437zm-4.019 5.732l.042-.073-.072.042c-.002 0-.102.059-.326.059-.25 0-.55-.072-.887-.213a.341.341 0 00-.46.236.359.359 0 00.047.278c.053.08.136.136.23.151.116.018.225.027.331.027.277 0 .527-.062.745-.184-.167.307-.219.675-.155 1.094a.34.34 0 00.644.1.353.353 0 00.011-.285c-.35-.867-.151-1.23-.15-1.232zm-.086 1.675a.32.32 0 01-.395-.262c-.044-.288-.064-.74.196-1.155-.408.264-.853.245-1.137.199a.324.324 0 01-.258-.401.318.318 0 01.43-.22c.875.365 1.232.15 1.232.15s-.21.362.15 1.252a.326.326 0 01-.218.437zm.005-7.427a.341.341 0 00-.421.282c-.065.418-.013.786.155 1.093a1.499 1.499 0 00-.745-.184c-.108 0-.216.009-.332.027a.342.342 0 00-.231.151.353.353 0 00-.045.278.343.343 0 00.459.236c.336-.141.635-.213.886-.213.222 0 .325.06.326.06l.073.041-.043-.073c-.002-.003-.2-.362.15-1.23a.348.348 0 00-.011-.287.34.34 0 00-.22-.181zm.212.457c-.36.89-.149 1.252-.149 1.252s-.355-.214-1.232.15a.32.32 0 01-.43-.22.324.324 0 01.258-.4c.284-.045.73-.066 1.137.198-.26-.414-.241-.866-.196-1.154a.32.32 0 01.395-.263c.187.049.29.255.217.437zm5.172 5.085a.343.343 0 00-.128.025c-.337.141-.636.213-.887.213-.222 0-.325-.06-.326-.06l-.072-.041.042.073c.003.003.2.366-.15 1.23a.348.348 0 00.318.477.34.34 0 00.336-.292c.065-.419.013-.786-.155-1.094.219.123.47.185.746.185.107 0 .216-.01.33-.027a.342.342 0 00.231-.151.353.353 0 00.046-.278.341.341 0 00-.33-.26zm.052.668c-.284.045-.73.066-1.137-.198.26.413.241.866.196 1.154a.32.32 0 01-.395.263.325.325 0 01-.217-.437c.36-.89.149-1.252.149-1.252s.356.214 1.232-.151a.32.32 0 01.43.22.324.324 0 01-.258.401z" opacity=".3" fill="#DA3C3C"/><path d="M49.544 29.1c1.008 0 1.8.252 2.376.756.6.48.9 1.152.9 2.016 0 .864-.3 1.548-.9 2.052-.576.48-1.368.72-2.376.72-1.008 0-1.812-.24-2.412-.72-.576-.504-.864-1.188-.864-2.052 0-.864.288-1.536.864-2.016.6-.504 1.404-.756 2.412-.756zm2.808 8.892v15.66c0 1.008.168 1.692.504 2.052.36.36.96.54 1.8.54V57a76.663 76.663 0 00-2.016-.072 52.737 52.737 0 00-2.772-.072c-.936 0-1.884.024-2.844.072-.96.024-1.68.048-2.16.072v-.756c.84 0 1.428-.18 1.764-.54.36-.36.54-1.044.54-2.052v-11.34c0-1.08-.168-1.872-.504-2.376-.312-.528-.912-.792-1.8-.792v-.756c.768.072 1.512.108 2.232.108 1.008 0 1.944-.036 2.808-.108a21.774 21.774 0 002.448-.396zm16.215-.108c1.873 0 3.42.768 4.645 2.304 1.248 1.512 1.871 3.852 1.871 7.02 0 2.496-.383 4.5-1.151 6.012-.745 1.512-1.74 2.604-2.989 3.276-1.248.672-2.615 1.008-4.103 1.008A7.3 7.3 0 0164.103 57c-.84-.336-1.56-.888-2.16-1.656l.505-.18a4.21 4.21 0 001.511 1.188c.6.264 1.188.396 1.764.396 1.32 0 2.305-.744 2.953-2.232.647-1.488.971-3.756.971-6.804 0-2.064-.132-3.696-.396-4.896-.24-1.224-.6-2.088-1.08-2.592-.48-.528-1.056-.792-1.728-.792-.84 0-1.608.348-2.303 1.044-.697.672-1.093 1.62-1.188 2.844l-.18-1.26c.431-1.368 1.163-2.4 2.196-3.096 1.031-.72 2.231-1.08 3.6-1.08zm-5.507-9.036V56.28a5.888 5.888 0 00-1.837 0c-.623.096-1.2.264-1.727.504-.529.216-.973.48-1.333.792l-.54-.324c.096-.336.157-.672.18-1.008.049-.336.073-.672.073-1.008V33.168c0-1.08-.168-1.872-.505-2.376-.312-.528-.912-.792-1.8-.792v-.756a23.96 23.96 0 002.233.108c.983 0 1.92-.036 2.807-.108a21.774 21.774 0 002.449-.396zm21.561 3.636v5.904h4.248v.72h-4.248v14.544c0 .72.132 1.236.396 1.548.264.288.66.432 1.188.432.432 0 .864-.156 1.296-.468.432-.336.816-.9 1.152-1.692l.612.324c-.384 1.08-.972 1.968-1.764 2.664-.768.696-1.824 1.044-3.168 1.044-.792 0-1.488-.108-2.088-.324a3.688 3.688 0 01-1.512-.9 3.848 3.848 0 01-1.044-1.944c-.168-.792-.252-1.812-.252-3.06V39.108h-3.024v-.72h3.024v-4.752a14.16 14.16 0 002.772-.252 9.087 9.087 0 002.412-.9zm14.496 5.4c2.112 0 3.768.624 4.968 1.872 1.2 1.248 1.8 3.288 1.8 6.12H94.041l-.072-.684h7.38a17.21 17.21 0 00-.216-3.24c-.168-1.008-.432-1.812-.792-2.412-.36-.6-.84-.9-1.44-.9-.84 0-1.56.528-2.16 1.584-.576 1.056-.924 2.808-1.044 5.256l.108.216-.072.9v.972c0 1.656.228 3 .684 4.032.48 1.032 1.08 1.788 1.8 2.268.72.456 1.452.684 2.196.684a5.87 5.87 0 001.548-.216c.552-.168 1.104-.456 1.656-.864.552-.432 1.068-1.032 1.548-1.8l.648.216c-.288.912-.744 1.8-1.368 2.664a7.5 7.5 0 01-2.376 2.124c-.96.552-2.112.828-3.456.828-1.632 0-3.072-.348-4.32-1.044-1.248-.696-2.232-1.752-2.952-3.168-.696-1.416-1.044-3.216-1.044-5.4 0-2.232.372-4.092 1.116-5.58.768-1.488 1.812-2.592 3.132-3.312 1.344-.744 2.868-1.116 4.572-1.116zm16.196-9.072v24.84c0 1.008.168 1.692.504 2.052.36.36.96.54 1.8.54V57a85.453 85.453 0 00-2.052-.072 52.737 52.737 0 00-2.772-.072c-.936 0-1.884.024-2.844.072-.936.024-1.644.048-2.124.072v-.756c.84 0 1.428-.18 1.764-.54.36-.36.54-1.044.54-2.052v-20.52c0-1.08-.168-1.872-.504-2.376-.312-.528-.912-.792-1.8-.792v-.756c.768.072 1.512.108 2.232.108.984 0 1.92-.036 2.808-.108a21.774 21.774 0 002.448-.396z" fill="#111B27"/></svg>